<?xml version="1.0" encoding="UTF-8"?>
<svg id="Layer_1" xmlns="http://www.w3.org/2000/svg" version="1.1" viewBox="0 0 298.01 88.88">
  <!-- Generator: Adobe Illustrator 30.2.1, SVG Export Plug-In . SVG Version: 2.1.1 Build 1)  -->
  <defs>
    <style>
      .st0 {
        fill: #faf1eb;
      }

      .st1 {
        fill: none;
        stroke: #faf1eb;
        stroke-miterlimit: 10;
        stroke-width: 2.83px;
      }
    </style>
  </defs>
  <rect class="st1" x="1.42" y="1.42" width="295.17" height="86.05"/>
  <g>
    <path class="st0" d="M61.33,55.28c-1.59,0-3.06-.27-4.41-.81s-2.53-1.3-3.53-2.28c-1-.98-1.77-2.12-2.32-3.44s-.82-2.75-.82-4.32.27-3.01.82-4.32c.55-1.31,1.33-2.46,2.34-3.44,1.01-.98,2.18-1.74,3.53-2.27s2.81-.81,4.4-.81c1.51,0,2.92.24,4.23.73,1.31.49,2.44,1.23,3.37,2.23l-.98,1.01c-.92-.9-1.93-1.54-3.04-1.94-1.11-.4-2.29-.6-3.53-.6-1.36,0-2.63.23-3.8.7-1.17.47-2.19,1.13-3.05,1.99-.87.85-1.54,1.85-2.02,2.99-.48,1.14-.72,2.38-.72,3.73s.24,2.59.72,3.73c.48,1.14,1.15,2.14,2.02,2.99.87.85,1.88,1.52,3.05,1.98,1.17.47,2.44.7,3.8.7,1.24,0,2.42-.2,3.53-.6,1.11-.4,2.12-1.05,3.04-1.97l.98,1.01c-.94,1-2.06,1.75-3.37,2.24-1.31.5-2.72.75-4.23.75Z"/>
    <path class="st0" d="M83.23,55.28c-1.59,0-3.06-.27-4.41-.81-1.35-.54-2.53-1.3-3.54-2.29-1.01-.99-1.79-2.14-2.34-3.45-.55-1.31-.82-2.74-.82-4.29s.28-2.98.82-4.29c.55-1.31,1.33-2.46,2.34-3.45s2.19-1.75,3.54-2.29c1.35-.54,2.83-.81,4.41-.81s3.06.27,4.41.81c1.35.54,2.53,1.3,3.53,2.27,1,.98,1.78,2.12,2.34,3.44.56,1.31.84,2.75.84,4.32s-.28,3.01-.84,4.32-1.34,2.46-2.34,3.44c-1,.98-2.17,1.74-3.53,2.28-1.35.54-2.82.81-4.41.81ZM83.23,53.85c1.36,0,2.63-.23,3.79-.7,1.16-.47,2.17-1.13,3.02-1.98s1.52-1.85,2-2.99c.48-1.14.72-2.38.72-3.73s-.24-2.61-.72-3.74-1.14-2.12-2-2.98c-.85-.86-1.86-1.52-3.02-1.99-1.16-.47-2.42-.7-3.79-.7s-2.63.23-3.79.7c-1.16.47-2.17,1.13-3.04,1.99-.87.85-1.54,1.85-2.02,2.98-.48,1.13-.72,2.38-.72,3.74s.24,2.59.72,3.73c.48,1.14,1.15,2.14,2.02,2.99.87.85,1.88,1.52,3.04,1.98,1.16.47,2.42.7,3.79.7Z"/>
    <path class="st0" d="M99.75,55.13v-21.38h1.31l15.24,19.45h-.7v-19.45h1.56v21.38h-1.28l-15.27-19.45h.7v19.45h-1.56Z"/>
    <path class="st0" d="M128.7,55.13v-19.97h-7.7v-1.41h16.95v1.41h-7.7v19.97h-1.56Z"/>
    <path class="st0" d="M138.22,55.13l9.83-21.38h1.56l9.83,21.38h-1.68l-9.28-20.4h.67l-9.25,20.4h-1.68ZM141.83,49.11l.52-1.31h12.79l.52,1.31h-13.83Z"/>
    <path class="st0" d="M172.36,55.28c-1.59,0-3.06-.27-4.41-.81-1.35-.54-2.53-1.3-3.53-2.28-1-.98-1.77-2.12-2.32-3.44-.55-1.31-.82-2.75-.82-4.32s.28-3.01.82-4.32c.55-1.31,1.33-2.46,2.34-3.44,1.01-.98,2.18-1.74,3.53-2.27,1.34-.54,2.81-.81,4.4-.81s2.92.24,4.23.73c1.31.49,2.44,1.23,3.38,2.23l-.98,1.01c-.92-.9-1.93-1.54-3.04-1.94-1.11-.4-2.29-.6-3.53-.6-1.36,0-2.63.23-3.8.7-1.17.47-2.19,1.13-3.05,1.99-.87.85-1.54,1.85-2.02,2.99-.48,1.14-.72,2.38-.72,3.73s.24,2.59.72,3.73c.48,1.14,1.15,2.14,2.02,2.99.87.85,1.88,1.52,3.05,1.98,1.17.47,2.44.7,3.8.7,1.24,0,2.42-.2,3.53-.6,1.11-.4,2.12-1.05,3.04-1.97l.98,1.01c-.94,1-2.06,1.75-3.38,2.24-1.31.5-2.72.75-4.23.75Z"/>
    <path class="st0" d="M189.28,55.13v-19.97h-7.7v-1.41h16.95v1.41h-7.7v19.97h-1.56Z"/>
    <path class="st0" d="M218.6,55.28c-2.65,0-4.73-.77-6.26-2.32-1.53-1.55-2.29-3.85-2.29-6.9v-12.31h1.56v12.25c0,2.67.61,4.64,1.83,5.92,1.22,1.28,2.95,1.92,5.19,1.92s3.94-.64,5.16-1.92c1.22-1.28,1.83-3.26,1.83-5.92v-12.25h1.56v12.31c0,3.05-.76,5.35-2.29,6.9-1.53,1.55-3.62,2.32-6.29,2.32Z"/>
    <path class="st0" d="M240.07,55.28c-1.59,0-3.09-.27-4.5-.81s-2.51-1.24-3.28-2.09l.7-1.16c.73.75,1.74,1.39,3.01,1.91,1.27.52,2.62.78,4.05.78s2.59-.19,3.5-.56c.91-.38,1.58-.88,2.02-1.51.44-.63.66-1.33.66-2.11,0-.92-.24-1.65-.73-2.2-.49-.55-1.13-.99-1.92-1.31-.79-.33-1.66-.6-2.6-.82-.94-.22-1.88-.46-2.84-.72s-1.83-.58-2.63-.99c-.79-.41-1.43-.96-1.91-1.66-.48-.7-.72-1.61-.72-2.73,0-1.02.26-1.95.79-2.81.53-.86,1.35-1.55,2.47-2.08,1.12-.53,2.55-.79,4.31-.79,1.18,0,2.35.17,3.5.52,1.15.35,2.13.81,2.95,1.4l-.58,1.25c-.9-.61-1.86-1.06-2.89-1.36-1.03-.29-2.02-.44-2.98-.44-1.36,0-2.49.19-3.39.58-.9.39-1.56.9-1.99,1.54-.43.64-.64,1.36-.64,2.15,0,.92.24,1.65.72,2.2s1.12.99,1.91,1.31c.79.33,1.67.6,2.63.83.96.22,1.9.46,2.84.72.94.25,1.8.59,2.6.99s1.44.96,1.92,1.65c.49.69.73,1.59.73,2.69,0,1-.28,1.93-.82,2.79-.55.87-1.39,1.56-2.52,2.08s-2.58.78-4.35.78Z"/>
  </g>
</svg>