<?xml version="1.0" encoding="UTF-8"?>
<svg id="Layer_1" xmlns="http://www.w3.org/2000/svg" version="1.1" viewBox="0 0 1920 138.69">
  <!-- Generator: Adobe Illustrator 30.2.1, SVG Export Plug-In . SVG Version: 2.1.1 Build 1)  -->
  <defs>
    <style>
      .st0 {
        font-family: Montserrat-Light, Montserrat;
        font-size: 24px;
        font-weight: 300;
      }

      .st0, .st1 {
        fill: #faf1eb;
      }

      .st2 {
        fill: #aa4e43;
      }
    </style>
  </defs>
  <rect class="st2" width="1920" height="138.69"/>
  <text class="st0" transform="translate(1417.19 87.41)"><tspan x="0" y="0">2026 Espadrina. All Rights Reserved.</tspan></text>
  <g>
    <path class="st1" d="M113.69,108.1H36.18V30.59h77.51v77.51ZM39.02,105.26h71.83V33.43H39.02v71.83Z"/>
    <path class="st1" d="M78.4,66.29v3.07h10.84l-2.92,7.69h-7.59v28.51h-10.69v-28.51h-6.91v-7.69h6.91v-3.15c0-4.71,1.43-8.61,4.14-11.29,2.79-2.76,6.95-4.22,12.04-4.22,3.35,0,6.45.65,8.51,1.76l-2.62,7.23c-1.39-.68-2.99-1.04-4.64-1.04-4.55,0-7.07,2.72-7.07,7.65Z"/>
  </g>
  <g>
    <path class="st1" d="M207.26,108.1h-77.51V30.59h77.51v77.51ZM132.59,105.26h71.83V33.43h-71.83v71.83Z"/>
    <path class="st1" d="M180.06,47.2h-23.1c-6.38,0-11.57,5.19-11.57,11.57v21.14c0,6.38,5.19,11.57,11.57,11.57h23.1c6.38,0,11.57-5.19,11.57-11.57v-21.14c0-6.38-5.19-11.57-11.57-11.57ZM149.46,58.78c0-4.13,3.36-7.49,7.49-7.49h23.1c4.13,0,7.49,3.36,7.49,7.49v21.14c0,4.13-3.36,7.49-7.49,7.49h-23.1c-4.13,0-7.49-3.36-7.49-7.49v-21.14Z"/>
    <path class="st1" d="M168.51,80.11c5.94,0,10.77-4.83,10.77-10.77s-4.83-10.77-10.77-10.77-10.77,4.83-10.77,10.77,4.83,10.77,10.77,10.77ZM168.51,62.66c3.69,0,6.68,3,6.68,6.68s-3,6.68-6.68,6.68-6.68-3-6.68-6.68,3-6.68,6.68-6.68Z"/>
    <path class="st1" d="M180.27,60.32c1.6,0,2.9-1.3,2.9-2.9s-1.3-2.9-2.9-2.9-2.9,1.3-2.9,2.9,1.3,2.9,2.9,2.9Z"/>
  </g>
  <g>
    <path class="st1" d="M300.84,108.1h-77.51V30.59h77.51v77.51ZM226.17,105.26h71.83V33.43h-71.83v71.83Z"/>
    <path class="st1" d="M280.13,59.02v7.05c-1.23-.12-2.83-.4-4.6-1.05-2.31-.85-4.04-2.01-5.16-2.9v14.25l-.03-.04c.02.28.03.57.03.86,0,7.08-5.76,12.84-12.84,12.84s-12.84-5.76-12.84-12.84,5.76-12.84,12.84-12.84c.69,0,1.37.06,2.04.16v6.95c-.64-.23-1.32-.35-2.04-.35-3.35,0-6.08,2.73-6.08,6.08s2.73,6.08,6.08,6.08,6.08-2.73,6.08-6.08c0-.13,0-.25-.01-.38v-27.69h7.05c.03.6.05,1.2.08,1.79.05,1.17.47,2.3,1.19,3.23.86,1.09,2.12,2.35,3.89,3.35,1.66.94,3.22,1.35,4.33,1.53Z"/>
  </g>
  <g>
    <path class="st1" d="M394.41,108.1h-77.51V30.59h77.51v77.51ZM319.74,105.26h71.83V33.43h-71.83v71.83Z"/>
    <path class="st1" d="M379.17,61.61c-.29-2.84-.93-5.97-3.25-7.62-1.8-1.28-4.17-1.33-6.38-1.32-4.68,0-9.35,0-14.03.01-4.5,0-8.99,0-13.49.01-1.88,0-3.71-.14-5.45.67-1.5.7-2.67,2.02-3.37,3.5-.98,2.05-1.19,4.38-1.3,6.65-.22,4.14-.19,8.28.07,12.42.19,3.02.68,6.35,3.01,8.27,2.07,1.71,4.99,1.79,7.67,1.79,8.51,0,17.03.02,25.54.02,1.09,0,2.23-.02,3.34-.14,2.19-.24,4.27-.86,5.68-2.48,1.42-1.63,1.78-3.91,2-6.07.53-5.22.52-10.5-.02-15.72ZM350.58,76.67v-14.65l12.69,7.32-12.69,7.32Z"/>
  </g>
  <g>
    <path class="st1" d="M487.98,108.1h-77.51V30.59h77.51v77.51ZM413.32,105.26h71.83V33.43h-71.83v71.83Z"/>
    <path class="st1" d="M456.51,80.27c-9.56,0-17.33-7.78-17.33-17.33,0-2.42,1.97-4.39,4.39-4.39.25,0,.49.02.73.06.52.09,1.01.26,1.46.52.07.04.11.1.12.18l1.01,6.37c.01.07-.01.15-.06.2-.56.62-1.27,1.06-2.06,1.28l-.38.11.14.37c1.3,3.32,3.95,5.97,7.27,7.27l.37.15.11-.38c.22-.79.67-1.5,1.28-2.06.05-.04.1-.06.17-.06.01,0,.03,0,.04,0l6.36,1.01c.08.01.14.05.18.12.26.45.44.95.52,1.46.04.23.06.47.06.73,0,2.42-1.97,4.39-4.39,4.39h0Z"/>
    <path class="st1" d="M473.46,67.25c-.52-5.82-3.18-11.23-7.51-15.21-4.36-4.01-10.01-6.22-15.92-6.22-12.97,0-23.52,10.55-23.52,23.52,0,4.35,1.2,8.59,3.47,12.29l-5.07,11.22,16.23-1.73c2.82,1.16,5.81,1.74,8.89,1.74.81,0,1.64-.04,2.47-.13.73-.08,1.47-.19,2.2-.34,10.86-2.19,18.79-11.84,18.85-22.93v-.13c0-.71-.03-1.41-.1-2.1ZM441.76,86.2l-8.98.96,2.68-5.94-.54-.72c-.04-.05-.08-.11-.12-.17-2.33-3.21-3.56-7.01-3.56-10.99,0-10.35,8.42-18.78,18.78-18.78,9.7,0,17.92,7.57,18.71,17.23.04.52.06,1.04.06,1.55,0,.15,0,.29,0,.44-.2,8.66-6.25,16.02-14.72,17.89-.65.14-1.31.25-1.97.33-.69.08-1.39.12-2.09.12-2.49,0-4.9-.48-7.19-1.43-.25-.1-.5-.21-.73-.32l-.34-.16Z"/>
  </g>
  <g>
    <g>
      <path class="st1" d="M582.59,108.13h-77.12V31.01h77.12v77.12ZM507.92,105.67h72.22V33.46h-72.22v72.22Z"/>
      <path class="st1" d="M524.5,57.05c-.98-.91-1.47-2.04-1.47-3.39s.49-2.53,1.47-3.44c.98-.91,2.25-1.37,3.8-1.37s2.77.46,3.75,1.37c.98.91,1.47,2.06,1.47,3.44s-.49,2.47-1.47,3.39c-.98.91-2.23,1.37-3.75,1.37s-2.82-.46-3.8-1.37ZM532.7,62.29v27.99h-8.84v-27.99h8.84Z"/>
      <path class="st1" d="M562.14,65.05c1.93,2.09,2.89,4.97,2.89,8.62v16.11h-8.4v-14.97c0-1.84-.48-3.28-1.43-4.3-.96-1.02-2.24-1.53-3.85-1.53s-2.9.51-3.85,1.53c-.96,1.02-1.43,2.45-1.43,4.3v14.97h-8.45v-27.57h8.45v3.66c.86-1.22,2.01-2.18,3.46-2.89,1.45-.71,3.08-1.06,4.89-1.06,3.23,0,5.81,1.05,7.73,3.14Z"/>
    </g>
    <path class="st1" d="M582.78,108.32h-77.51V30.81h77.51v77.51ZM508.12,105.48h71.83V33.65h-71.83v71.83Z"/>
  </g>
</svg>