<?xml version="1.0" encoding="UTF-8"?>
<svg id="Layer_1" xmlns="http://www.w3.org/2000/svg" xmlns:xlink="http://www.w3.org/1999/xlink" version="1.1" viewBox="0 0 1920 474.87">
  <!-- Generator: Adobe Illustrator 30.2.1, SVG Export Plug-In . SVG Version: 2.1.1 Build 1)  -->
  <defs>
    <style>
      .st0 {
        fill: #faf1eb;
      }

      .st1 {
        clip-path: url(#clippath-1);
      }

      .st2 {
        clip-path: url(#clippath-3);
      }

      .st3 {
        clip-path: url(#clippath-4);
      }

      .st4 {
        clip-path: url(#clippath-2);
      }

      .st5 {
        clip-path: url(#clippath-7);
      }

      .st6 {
        clip-path: url(#clippath-6);
      }

      .st7 {
        clip-path: url(#clippath-8);
      }

      .st8 {
        clip-path: url(#clippath-5);
      }

      .st9 {
        fill: #193248;
      }

      .st10 {
        clip-path: url(#clippath);
      }
    </style>
    <clipPath id="clippath">
      <polygon class="st0" points="608.05 210.96 608.05 266.62 643.24 266.62 643.24 262.39 617.61 262.39 617.61 240.9 636.89 240.9 636.89 236.67 617.61 236.67 617.61 215.19 643.24 215.19 643.24 210.96 608.05 210.96"/>
    </clipPath>
    <clipPath id="clippath-1">
      <path class="st0" d="M696.02,212.23c-2.88,1.19-5.2,2.92-6.98,5.2-1.78,2.28-2.66,5.03-2.66,8.25,0,2.65.66,4.93,1.99,6.85,1.32,1.92,3.27,3.64,5.84,5.16,2.56,1.52,5.74,3.07,9.52,4.65,4.68,1.97,8.25,3.74,10.7,5.29,2.45,1.55,3.68,3.65,3.68,6.3,0,2.43-1.13,4.52-3.38,6.3-2.26,1.78-5.39,2.67-9.39,2.67-2.76,0-5.53-.58-8.29-1.73-2.76-1.16-5.39-3.34-7.87-6.56l-2.79,3.13c2.31,3.27,5.19,5.66,8.63,7.15,3.44,1.49,6.88,2.24,10.32,2.24,4.12,0,7.64-.72,10.58-2.16,2.93-1.44,5.2-3.4,6.81-5.88,1.61-2.48,2.41-5.22,2.41-8.21,0-2.59-.66-4.83-1.99-6.72s-3.19-3.61-5.58-5.16c-2.4-1.55-5.23-3.06-8.5-4.53-3.33-1.58-6.16-2.88-8.5-3.89-2.34-1.02-4.1-2.13-5.29-3.34-1.18-1.21-1.78-2.8-1.78-4.78,0-1.24.44-2.45,1.31-3.64.87-1.18,2.18-2.17,3.93-2.96,1.75-.79,3.92-1.18,6.51-1.18,3.16,0,6.15.73,8.97,2.2,2.82,1.47,4.93,3.61,6.34,6.43l2.79-3.13c-1.01-2.03-2.47-3.78-4.36-5.25-1.89-1.47-4.03-2.58-6.43-3.34-2.4-.76-4.84-1.14-7.32-1.14-3.27,0-6.34.59-9.22,1.77"/>
    </clipPath>
    <clipPath id="clippath-2">
      <path class="st0" d="M780.28,215.19h11.59c2.54,0,4.6.41,6.18,1.23,1.58.82,2.79,1.85,3.64,3.09.85,1.24,1.42,2.51,1.73,3.81.31,1.3.46,2.45.46,3.47s-.16,2.17-.46,3.47c-.31,1.3-.89,2.57-1.73,3.81-.85,1.24-2.06,2.27-3.64,3.09-1.58.82-3.64,1.23-6.18,1.23h-11.59v-23.18ZM770.72,210.96v55.66h9.56v-24.03h11.84c3.66,0,6.78-.41,9.35-1.23,2.57-.82,4.75-2.04,6.56-3.68,3.55-3.22,5.33-6.85,5.33-10.91s-1.78-7.7-5.33-10.91c-1.81-1.64-3.99-2.86-6.56-3.68-2.57-.82-5.68-1.23-9.35-1.23h-21.4Z"/>
    </clipPath>
    <clipPath id="clippath-3">
      <path class="st0" d="M868.17,227.29l8.88,20.22h-18.19l9.31-20.22ZM845.5,266.62h4.65l6.77-14.89h21.99l6.51,14.89h10.41l-24.53-56.17-25.8,56.17Z"/>
    </clipPath>
    <clipPath id="clippath-4">
      <path class="st0" d="M949.21,215.19h7.78c2.99,0,5.77.94,8.33,2.83,2.57,1.89,4.65,4.6,6.26,8.12,1.61,3.53,2.41,7.74,2.41,12.65s-.8,9.12-2.41,12.65c-1.61,3.52-3.69,6.23-6.26,8.12-2.57,1.89-5.34,2.83-8.33,2.83h-7.78v-47.2ZM953.95,210.96h-14.3v55.66h16.16c3.89,0,7.54-.72,10.96-2.16,3.41-1.44,6.4-3.43,8.97-5.96,2.56-2.54,4.58-5.48,6.05-8.84,1.47-3.36,2.2-6.98,2.2-10.87s-.73-7.51-2.2-10.87c-1.47-3.35-3.48-6.3-6.05-8.84-2.57-2.54-5.56-4.53-8.97-5.96-3.41-1.44-7.06-2.16-10.96-2.16h-1.86Z"/>
    </clipPath>
    <clipPath id="clippath-5">
      <path class="st0" d="M1038.88,215.19h11.59c2.54,0,4.6.41,6.18,1.23,1.58.82,2.79,1.85,3.64,3.09.85,1.24,1.42,2.51,1.73,3.81.31,1.3.47,2.45.47,3.47s-.16,2.17-.47,3.47c-.31,1.3-.89,2.57-1.73,3.81-.84,1.24-2.06,2.27-3.64,3.09-1.58.82-3.64,1.23-6.18,1.23h-11.59v-23.18ZM1029.32,210.96v55.66h9.56v-24.03h10.66c5.24,0,8.71,4.03,10.4,12.1.34,1.64.69,3.38,1.06,5.25.37,1.86.83,4.09,1.4,6.68h9.73c-.62-3.1-1.17-5.84-1.65-8.21-.48-2.37-.97-4.74-1.48-7.11-.45-2.2-1.38-4.19-2.79-5.96-1.41-1.78-3.27-3.17-5.58-4.19,1.18-.39,2.27-.89,3.26-1.48.99-.59,1.9-1.26,2.75-1.99,3.55-3.22,5.33-6.85,5.33-10.91s-1.78-7.7-5.33-10.91c-1.81-1.64-3.99-2.86-6.56-3.68-2.57-.82-5.68-1.23-9.35-1.23h-21.4Z"/>
    </clipPath>
    <clipPath id="clippath-6">
      <rect class="st0" x="1119.5" y="210.96" width="9.56" height="55.66"/>
    </clipPath>
    <clipPath id="clippath-7">
      <polygon class="st0" points="1216.61 210.96 1216.61 251.99 1181.5 210.96 1177.27 210.96 1177.27 266.62 1181.5 266.62 1181.5 225.68 1216.53 266.62 1220.75 266.62 1220.75 210.96 1216.61 210.96"/>
    </clipPath>
    <clipPath id="clippath-8">
      <path class="st0" d="M1287.5,227.29l8.88,20.22h-18.19l9.31-20.22ZM1264.83,266.62h4.65l6.77-14.89h21.99l6.51,14.89h10.4l-24.53-56.17-25.8,56.17Z"/>
    </clipPath>
  </defs>
  <rect class="st9" width="1920" height="474.87"/>
  <g>
    <g>
      <polygon class="st0" points="608.05 210.96 608.05 266.62 643.24 266.62 643.24 262.39 617.61 262.39 617.61 240.9 636.89 240.9 636.89 236.67 617.61 236.67 617.61 215.19 643.24 215.19 643.24 210.96 608.05 210.96"/>
      <g class="st10">
        <rect class="st0" x="596.95" y="205.94" width="57.39" height="65.7" transform="translate(-38.39 325.44) rotate(-28.32)"/>
      </g>
    </g>
    <g>
      <path class="st0" d="M696.02,212.23c-2.88,1.19-5.2,2.92-6.98,5.2-1.78,2.28-2.66,5.03-2.66,8.25,0,2.65.66,4.93,1.99,6.85,1.32,1.92,3.27,3.64,5.84,5.16,2.56,1.52,5.74,3.07,9.52,4.65,4.68,1.97,8.25,3.74,10.7,5.29,2.45,1.55,3.68,3.65,3.68,6.3,0,2.43-1.13,4.52-3.38,6.3-2.26,1.78-5.39,2.67-9.39,2.67-2.76,0-5.53-.58-8.29-1.73-2.76-1.16-5.39-3.34-7.87-6.56l-2.79,3.13c2.31,3.27,5.19,5.66,8.63,7.15,3.44,1.49,6.88,2.24,10.32,2.24,4.12,0,7.64-.72,10.58-2.16,2.93-1.44,5.2-3.4,6.81-5.88,1.61-2.48,2.41-5.22,2.41-8.21,0-2.59-.66-4.83-1.99-6.72s-3.19-3.61-5.58-5.16c-2.4-1.55-5.23-3.06-8.5-4.53-3.33-1.58-6.16-2.88-8.5-3.89-2.34-1.02-4.1-2.13-5.29-3.34-1.18-1.21-1.78-2.8-1.78-4.78,0-1.24.44-2.45,1.31-3.64.87-1.18,2.18-2.17,3.93-2.96,1.75-.79,3.92-1.18,6.51-1.18,3.16,0,6.15.73,8.97,2.2,2.82,1.47,4.93,3.61,6.34,6.43l2.79-3.13c-1.01-2.03-2.47-3.78-4.36-5.25-1.89-1.47-4.03-2.58-6.43-3.34-2.4-.76-4.84-1.14-7.32-1.14-3.27,0-6.34.59-9.22,1.77"/>
      <g class="st1">
        <rect class="st0" x="675.25" y="204.65" width="61" height="68.27" transform="translate(-28.8 363.45) rotate(-28.32)"/>
      </g>
    </g>
    <g>
      <path class="st0" d="M780.28,215.19h11.59c2.54,0,4.6.41,6.18,1.23,1.58.82,2.79,1.85,3.64,3.09.85,1.24,1.42,2.51,1.73,3.81.31,1.3.46,2.45.46,3.47s-.16,2.17-.46,3.47c-.31,1.3-.89,2.57-1.73,3.81-.85,1.24-2.06,2.27-3.64,3.09-1.58.82-3.64,1.23-6.18,1.23h-11.59v-23.18ZM770.72,210.96v55.66h9.56v-24.03h11.84c3.66,0,6.78-.41,9.35-1.23,2.57-.82,4.75-2.04,6.56-3.68,3.55-3.22,5.33-6.85,5.33-10.91s-1.78-7.7-5.33-10.91c-1.81-1.64-3.99-2.86-6.56-3.68-2.57-.82-5.68-1.23-9.35-1.23h-21.4Z"/>
      <g class="st4">
        <rect class="st0" x="760.07" y="204.18" width="63.94" height="69.23" transform="translate(-18.47 404.39) rotate(-28.33)"/>
      </g>
    </g>
    <g>
      <path class="st0" d="M868.17,227.29l8.88,20.22h-18.19l9.31-20.22ZM845.5,266.62h4.65l6.77-14.89h21.99l6.51,14.89h10.41l-24.53-56.17-25.8,56.17Z"/>
      <g class="st2">
        <rect class="st0" x="835.19" y="201.87" width="70.96" height="73.33" transform="translate(-8.93 441.67) rotate(-28.33)"/>
      </g>
    </g>
    <g>
      <path class="st0" d="M949.21,215.19h7.78c2.99,0,5.77.94,8.33,2.83,2.57,1.89,4.65,4.6,6.26,8.12,1.61,3.53,2.41,7.74,2.41,12.65s-.8,9.12-2.41,12.65c-1.61,3.52-3.69,6.23-6.26,8.12-2.57,1.89-5.34,2.83-8.33,2.83h-7.78v-47.2ZM953.95,210.96h-14.3v55.66h16.16c3.89,0,7.54-.72,10.96-2.16,3.41-1.44,6.4-3.43,8.97-5.96,2.56-2.54,4.58-5.48,6.05-8.84,1.47-3.36,2.2-6.98,2.2-10.87s-.73-7.51-2.2-10.87c-1.47-3.35-3.48-6.3-6.05-8.84-2.57-2.54-5.56-4.53-8.97-5.96-3.41-1.44-7.06-2.16-10.96-2.16h-1.86Z"/>
      <g class="st3">
        <rect class="st0" x="929.1" y="203.77" width="65.43" height="70.03" transform="translate(1.86 484.94) rotate(-28.32)"/>
      </g>
    </g>
    <g>
      <path class="st0" d="M1038.88,215.19h11.59c2.54,0,4.6.41,6.18,1.23,1.58.82,2.79,1.85,3.64,3.09.85,1.24,1.42,2.51,1.73,3.81.31,1.3.47,2.45.47,3.47s-.16,2.17-.47,3.47c-.31,1.3-.89,2.57-1.73,3.81-.84,1.24-2.06,2.27-3.64,3.09-1.58.82-3.64,1.23-6.18,1.23h-11.59v-23.18ZM1029.32,210.96v55.66h9.56v-24.03h10.66c5.24,0,8.71,4.03,10.4,12.1.34,1.64.69,3.38,1.06,5.25.37,1.86.83,4.09,1.4,6.68h9.73c-.62-3.1-1.17-5.84-1.65-8.21-.48-2.37-.97-4.74-1.48-7.11-.45-2.2-1.38-4.19-2.79-5.96-1.41-1.78-3.27-3.17-5.58-4.19,1.18-.39,2.27-.89,3.26-1.48.99-.59,1.9-1.26,2.75-1.99,3.55-3.22,5.33-6.85,5.33-10.91s-1.78-7.7-5.33-10.91c-1.81-1.64-3.99-2.86-6.56-3.68-2.57-.82-5.68-1.23-9.35-1.23h-21.4Z"/>
      <g class="st8">
        <rect class="st0" x="1018.68" y="204.14" width="64.09" height="69.31" transform="translate(12.5 527.13) rotate(-28.33)"/>
      </g>
    </g>
    <g>
      <rect class="st0" x="1119.5" y="210.96" width="9.56" height="55.66"/>
      <g class="st6">
        <rect class="st0" x="1106.86" y="212.02" width="34.83" height="53.53" transform="translate(21.31 562.03) rotate(-28.32)"/>
      </g>
    </g>
    <g>
      <polygon class="st0" points="1216.61 210.96 1216.61 251.99 1181.5 210.96 1177.27 210.96 1177.27 266.62 1181.5 266.62 1181.5 225.68 1216.53 266.62 1220.75 266.62 1220.75 210.96 1216.61 210.96"/>
      <g class="st5">
        <rect class="st0" x="1166.67" y="203.97" width="64.69" height="69.63" transform="translate(30.26 597.49) rotate(-28.32)"/>
      </g>
    </g>
    <g>
      <path class="st0" d="M1287.5,227.29l8.88,20.22h-18.19l9.31-20.22ZM1264.83,266.62h4.65l6.77-14.89h21.99l6.51,14.89h10.4l-24.53-56.17-25.8,56.17Z"/>
      <g class="st7">
        <rect class="st0" x="1254.52" y="201.87" width="70.96" height="73.33" transform="translate(41.27 640.63) rotate(-28.32)"/>
      </g>
    </g>
  </g>
</svg>