<?xml version="1.0" encoding="UTF-8"?>
<svg id="Layer_1" xmlns="http://www.w3.org/2000/svg" version="1.1" viewBox="0 0 78.43 79.45">
  <!-- Generator: Adobe Illustrator 30.2.1, SVG Export Plug-In . SVG Version: 2.1.1 Build 1)  -->
  <defs>
    <style>
      .st0 {
        fill: #faf1eb;
      }
    </style>
  </defs>
  <path class="st0" d="M.04,41.19c.26,6.02,1.91,11.91,4.79,17.18l.02-.88.06.06c.55-6.06,3.11-12,7.13-16.5.88-1.16,6.77-6.88,21.65-20.98,1.47-1.4,2.63-2.49,3.27-3.1-4.66-5.16-11.79-8.3-18.75-8.24h-.5s-.01-.02-.01-.02L.29,8.27.11,31.38c0,.26-.03,3.35-.03,5.5-.06.9-.08,1.74-.08,2.53,0,.6.01,1.19.04,1.78Z"/>
  <path class="st0" d="M38.57,59.31l19.51-18.58c-5.22-5.22-12.13-8.08-19.54-8.08-6.89,0-13.45,2.53-18.55,7.15l18.58,19.51Z"/>
  <path class="st0" d="M46.23.02c-2.06-.01-5.98-.03-6.28-.02h-.14c-.12,0-.27.01-.41.01h-.29c-6.47.06-12.8,1.71-18.44,4.78,6.28.42,12.48,3.01,17.13,7.18,1.16.87,6.9,6.8,21.1,21.77,1.34,1.41,2.39,2.52,2.99,3.14,5.16-4.66,8.31-11.78,8.24-18.75v-.3s.02-.02.02-.02l.43-17.6L46.23.02Z"/>
  <path class="st0" d="M78.39,38.26c-.26-6.02-1.91-11.91-4.79-17.18l-.05,2.03-.14-.26c-.72,5.73-3.21,11.29-7.03,15.55-.87,1.16-6.73,6.83-21.49,20.83-1.55,1.47-2.77,2.62-3.43,3.26,4.66,5.16,11.81,8.31,18.75,8.24h.51s.01.03.01.03l17.41.43.18-23.1c0-.26.02-3.35.03-5.5.05-.89.08-1.73.08-2.53,0-.6-.02-1.19-.04-1.78Z"/>
  <path class="st0" d="M32.13,79.43c1.82,0,6.07.03,6.35.02h.27c.1,0,.19-.01.28-.01h.29c6.47-.06,12.8-1.71,18.44-4.77-6.28-.42-12.48-3.01-17.13-7.18-1.16-.87-6.87-6.77-21.02-21.69-1.38-1.46-2.46-2.6-3.07-3.23-5.16,4.65-8.31,11.77-8.24,18.75v.31s-.02.02-.02.02l-.43,17.59,24.28.19Z"/>
</svg>