<?xml version="1.0" encoding="UTF-8"?>
<svg id="Layer_1" xmlns="http://www.w3.org/2000/svg" xmlns:xlink="http://www.w3.org/1999/xlink" version="1.1" viewBox="0 0 1014.93 1503.76">
  <!-- Generator: Adobe Illustrator 30.4.0, SVG Export Plug-In . SVG Version: 2.1.4 Build 226)  -->
  <defs>
    <style>
      .st0 {
        fill: #aa4e43;
      }

      .st1 {
        clip-path: url(#clippath-2);
      }

      .st2 {
        fill: #193248;
        fill-rule: evenodd;
      }

      .st3 {
        clip-rule: evenodd;
        fill: none;
      }

      .st4 {
        clip-path: url(#clippath);
      }
    </style>
    <clipPath id="clippath">
      <polygon class="st3" points="1018.18 1545.86 0 1504.05 61.87 -2.31 1014.95 36.82 1018.18 1545.86"/>
    </clipPath>
    <clipPath id="clippath-2">
      <path class="st0" d="M871.2,797.63l44.52,46.76,46.76-44.52c-12.69-13.33-29.71-20.05-46.76-20.05-16,0-32.02,5.91-44.52,17.81"/>
    </clipPath>
  </defs>
  <g class="st4">
    <path class="st2" d="M88.65,1600.16l-4.5-1.41-1.54-2.95-1.54-2.95-4.5-1.41-4.5-1.41-4.5-1.41-4.5-1.41-1.54-2.95-1.54-2.95-1.54-2.95,1.41-4.5,1.41-4.5-1.54-2.95-4.5-1.41-1.54-2.95-1.54-2.95-1.54-2.95-1.54-2.95-1.54-2.95,1.41-4.5-1.54-2.95-1.54-2.95,1.41-4.5,1.41-4.5-1.54-2.95-1.54-2.95,1.41-4.5,1.41-4.5-1.54-2.95-1.54-2.95,1.41-4.5,1.41-4.5-1.54-2.95-1.54-2.95,1.41-4.5-1.54-2.95-1.54-2.95,1.41-4.5,1.41-4.5-1.54-2.95-1.54-2.95,1.41-4.5-1.54-2.95-1.54-2.95,1.41-4.5,1.41-4.5-1.54-2.95-1.54-2.95,1.41-4.5,1.41-4.5,1.41-4.5,1.41-4.5,1.41-4.5,1.41-4.5-1.54-2.95-1.54-2.95,1.41-4.5,1.41-4.5,2.95-1.54,2.95-1.54,1.41-4.5,2.95-1.54,4.5,1.41,4.5,1.41,4.5,1.41,2.95-1.54,2.95-1.54,2.95-1.54,1.41-4.5,1.41-4.5,2.95-1.54,2.95-1.54-1.54-2.95-1.54-2.95,1.41-4.5,2.95-1.54,2.95-1.54,2.95-1.54,4.5,1.41,2.95-1.54,2.95-1.54,2.95-1.54-1.54-2.95-1.54-2.95,1.41-4.5,2.95-1.54,2.95-1.54,2.95-1.54,2.95-1.54,1.41-4.5,1.41-4.5-1.54-2.95-1.54-2.95,1.41-4.5-1.54-2.95-1.54-2.95,1.41-4.5,1.41-4.5,2.95-1.54,2.95-1.54,1.41-4.5,2.95-1.54,2.95-1.54,2.95-1.54,4.5,1.41,4.5,1.41,4.5,1.41,4.5,1.41,4.5,1.41,4.5,1.41,4.5,1.41,2.95-1.54,2.95-1.54,2.95-1.54,2.95-1.54,2.95-1.54,2.95-1.54,4.5,1.41,2.95-1.54,2.95-1.54,2.95-1.54,2.95-1.54,2.95-1.54,2.95-1.54,2.95-1.54,2.95-1.54,4.5,1.41,4.5,1.41,2.95-1.54,2.95-1.54,2.95-1.54,2.95-1.54,4.5,1.41,1.54,2.95,1.54,2.95,1.54,2.95,1.54,2.95,4.5,1.41,2.95-1.54,2.95-1.54,2.95-1.54,2.95-1.54,2.95-1.54,2.95-1.54,4.5,1.41,4.5,1.41,4.5,1.41,2.95-1.54,1.41-4.5,1.41-4.5,1.41-4.5,1.41-4.5,1.41-4.5,1.41-4.5,2.95-1.54,2.95-1.54,2.95-1.54,2.95-1.54,2.95-1.54,2.95-1.54,2.95-1.54,2.95-1.54,1.41-4.5,2.95-1.54,2.95-1.54,2.95-1.54,4.5,1.41,2.95-1.54,2.95-1.54,4.5,1.41,1.54,2.95,1.54,2.95,1.54,2.95,1.54,2.95,4.5,1.41,4.5,1.41,4.5,1.41,4.5,1.41,1.54,2.95,1.54,2.95,2.95-1.54,2.95-1.54,4.5,1.41,2.95-1.54,2.95-1.54,4.5,1.41,2.95-1.54,2.95-1.54,4.5,1.41,2.95-1.54,2.95-1.54,4.5,1.41,4.5,1.41,4.5,1.41,4.5,1.41,4.5,1.41,4.5,1.41,4.5,1.41,4.5,1.41,1.54,2.95,1.54,2.95,1.54,2.95,1.54,2.95,4.5,1.41,4.5,1.41,4.5,1.41,2.95-1.54,2.95-1.54,2.95-1.54,1.41-4.5,1.41-4.5,2.95-1.54,2.95-1.54,1.41-4.5,1.41-4.5,1.41-4.5,1.41-4.5,1.41-4.5,1.41-4.5,1.41-4.5,2.95-1.54,2.95-1.54,2.95-1.54,4.5,1.41,2.95-1.54,2.95-1.54,4.5,1.41,2.95-1.54,2.95-1.54,4.5,1.41,2.95-1.54,2.95-1.54,4.5,1.41,2.95-1.54,2.95-1.54,4.5,1.41,2.95-1.54,2.95-1.54,4.5,1.41,1.54,2.95,1.54,2.95,4.5,1.41,4.5,1.41,4.5,1.41,4.5,1.41,2.95-1.54,2.95-1.54,2.95-1.54,2.95-1.54,2.95-1.54,1.41-4.5,2.95-1.54,2.95-1.54,1.41-4.5,1.41-4.5,1.41-4.5,1.41-4.5,1.41-4.5-1.54-2.95-1.54-2.95,1.41-4.5-1.54-2.95-1.54-2.95,1.41-4.5-1.54-2.95-1.54-2.95-1.54-2.95-1.54-2.95-1.54-2.95-1.54-2.95-1.54-2.95-1.54-2.95-1.54-2.95-1.54-2.95-1.54-2.95-1.54-2.95-1.54-2.95-4.5-1.41-1.54-2.95-1.54-2.95-1.54-2.95-1.54-2.95-1.54-2.95-1.54-2.95-1.54-2.95,1.41-4.5-1.54-2.95-1.54-2.95,1.41-4.5-1.54-2.95-1.54-2.95,1.41-4.5,1.41-4.5,2.95-1.54,2.95-1.54-1.54-2.95-1.54-2.95,1.41-4.5-1.54-2.95-1.54-2.95-1.54-2.95-1.54-2.95,1.41-4.5-1.54-2.95-1.54-2.95-1.54-2.95-1.54-2.95,1.41-4.5-1.54-2.95-1.54-2.95-1.54-2.95-1.54-2.95,1.41-4.5-1.54-2.95-1.54-2.95,1.41-4.5,1.41-4.5,1.41-4.5,2.95-1.54,2.95-1.54,2.95-1.54,2.95-1.54,2.95-1.54,4.5,1.41,4.5,1.41,4.5,1.41,4.5,1.41,4.5,1.41,4.5,1.41,2.95-1.54,2.95-1.54,2.95-1.54,2.95-1.54,2.95-1.54,2.95-1.54,4.5,1.41,4.5,1.41,2.95-1.54,2.95-1.54,2.95-1.54,1.41-4.5,1.41-4.5-1.54-2.95-1.54-2.95-1.54-2.95-1.54-2.95-1.54-2.95-1.54-2.95,1.41-4.5,2.95-1.54,2.95-1.54,1.41-4.5,1.41-4.5,1.41-4.5,1.41-4.5,1.41-4.5,1.41-4.5,1.41-4.5,2.95-1.54,2.95-1.54,2.95-1.54,4.5,1.41,1.54,2.95,1.54,2.95,1.54,2.95,1.54,2.95,1.54,2.95,1.54,2.95,4.5,1.41,1.54,2.95,1.54,2.95,1.54,2.95,1.54,2.95,4.5,1.41,4.5,1.41,4.5,1.41,4.5,1.41,4.5,1.41,4.5,1.41,4.5,1.41,1.54,2.95,1.54,2.95,1.54,2.95,1.54,2.95,1.54,2.95,1.54,2.95,1.54,2.95,1.54,2.95,4.5,1.41,4.5,1.41,4.5,1.41,4.5,1.41,1.54,2.95,1.54,2.95,1.54,2.95-1.41,4.5,1.54,2.95,1.54,2.95,1.54,2.95,1.54,2.95,1.54,2.95,4.5,1.41,4.5,1.41,4.5,1.41,2.95-1.54,2.95-1.54,4.5,1.41,4.5,1.41,1.54,2.95,1.54,2.95,1.54,2.95,1.54,2.95,4.5,1.41,4.5,1.41,4.5,1.41,2.95-1.54,2.95-1.54,4.5,1.41,4.5,1.41,4.5,1.41,1.54,2.95,1.54,2.95,4.5,1.41,4.5,1.41,4.5,1.41,1.54,2.95,1.54,2.95,4.5,1.41,4.5,1.41,4.5,1.41,4.5,1.41,2.95-1.54,2.95-1.54,2.95-1.54,1.41-4.5,2.95-1.54,2.95-1.54,2.95-1.54,2.95-1.54,2.95-1.54,4.5,1.41,2.95-1.54,2.95-1.54,2.95-1.54,2.95-1.54,2.95-1.54,1.41-4.5,1.41-4.5,1.41-4.5,2.95-1.54,2.95-1.54,2.95-1.54,4.5,1.41,2.95-1.54,2.95-1.54,4.5,1.41,4.5,1.41,2.95-1.54,2.95-1.54,4.5,1.41,2.95-1.54,2.95-1.54,4.5,1.41,2.95-1.54,1.41-4.5,1.41-4.5,1.41-4.5,1.41-4.5,1.41-4.5-1.54-2.95-4.5-1.41-4.5-1.41-1.54-2.95-1.54-2.95-2.95,1.54-1.41,4.5-2.95,1.54-2.95,1.54-2.95,1.54-4.5-1.41-1.54-2.95-1.54-2.95-1.54-2.95,1.41-4.5-1.54-2.95-1.54-2.95-1.54-2.95-1.54-2.95,1.41-4.5-1.54-2.95-1.54-2.95-1.54-2.95-1.54-2.95-1.54-2.95-4.5-1.41-4.5-1.41-1.54-2.95-1.54-2.95-4.5-1.41-4.5-1.41-4.5-1.41-1.54-2.95-1.54-2.95-1.54-2.95,1.41-4.5-1.54-2.95-1.54-2.95-1.54-2.95-1.54-2.95,1.41-4.5-1.54-2.95-1.54-2.95,1.41-4.5,1.41-4.5-1.54-2.95-4.5-1.41-4.5-1.41-1.54-2.95-1.54-2.95-1.54-2.95,1.41-4.5-1.54-2.95-1.54-2.95-1.54-2.95-4.5-1.41-4.5-1.41-4.5-1.41-1.54-2.95-1.54-2.95-1.54-2.95-1.54-2.95-1.54-2.95-1.54-2.95-1.54-2.95-1.54-2.95-1.54-2.95-1.54-2.95-1.54-2.95,1.41-4.5,1.41-4.5,1.41-4.5-1.54-2.95-1.54-2.95-1.54-2.95-4.5-1.41-1.54-2.95-1.54-2.95-1.54-2.95-1.54-2.95-1.54-2.95-1.54-2.95-4.5-1.41-4.5-1.41-4.5-1.41-4.5-1.41-1.54-2.95-1.54-2.95-1.54-2.95,1.41-4.5,1.41-4.5,1.41-4.5,1.41-4.5,1.41-4.5,1.41-4.5,1.41-4.5-1.54-2.95-4.5-1.41-1.54-2.95-1.54-2.95-1.54-2.95,1.41-4.5,1.41-4.5,2.95-1.54,2.95-1.54,1.41-4.5,1.41-4.5-1.54-2.95-1.54-2.95-1.54-2.95-1.54-2.95-1.54-2.95-1.54-2.95,1.41-4.5,1.41-4.5,1.41-4.5-1.54-2.95-1.54-2.95-1.54-2.95-2.95,1.54-2.95,1.54-4.5-1.41-4.5-1.41-1.54-2.95-1.54-2.95-1.54-2.95-1.54-2.95-2.95,1.54-2.95,1.54-4.5-1.41-2.95,1.54-2.95,1.54-4.5-1.41-4.5-1.41-2.95,1.54-2.95,1.54-4.5-1.41-2.95,1.54-2.95,1.54-4.5-1.41-1.54-2.95-1.54-2.95-4.5-1.41-1.54-2.95-1.54-2.95-1.54-2.95-1.54-2.95-1.54-2.95,1.41-4.5,1.41-4.5-1.54-2.95-1.54-2.95-1.54-2.95-4.5-1.41-2.95,1.54-2.95,1.54-4.5-1.41-2.95,1.54-2.95,1.54-4.5-1.41-1.54-2.95-1.54-2.95-4.5-1.41-1.54-2.95-1.54-2.95-1.54-2.95-1.54-2.95-1.54-2.95,1.41-4.5-1.54-2.95-1.54-2.95-1.54-2.95-1.54-2.95-1.54-2.95-1.54-2.95,1.41-4.5-1.54-2.95-1.54-2.95-1.54-2.95-1.54-2.95-1.54-2.95-1.54-2.95,1.41-4.5,2.95-1.54,2.95-1.54,1.41-4.5-1.54-2.95-1.54-2.95-1.54-2.95-1.54-2.95,1.41-4.5-1.54-2.95-1.54-2.95-1.54-2.95-1.54-2.95,1.41-4.5,2.95-1.54,2.95-1.54,1.41-4.5-1.54-2.95-1.54-2.95-1.54-2.95-1.54-2.95,1.41-4.5,1.41-4.5,1.41-4.5,1.41-4.5,1.41-4.5,1.41-4.5,1.41-4.5,2.95-1.54,2.95-1.54,2.95-1.54,2.95-1.54,2.95-1.54,4.5,1.41,2.95-1.54,2.95-1.54,2.95-1.54,2.95-1.54,4.5,1.41,2.95-1.54,2.95-1.54,2.95-1.54,1.41-4.5,1.41-4.5,1.41-4.5,1.41-4.5,1.41-4.5,1.41-4.5,1.41-4.5,1.41-4.5,1.41-4.5,1.41-4.5-1.54-2.95-1.54-2.95,1.41-4.5-1.54-2.95-1.54-2.95,1.41-4.5,1.41-4.5-1.54-2.95-1.54-2.95,1.41-4.5,1.41-4.5-1.54-2.95-1.54-2.95,1.41-4.5-1.54-2.95-1.54-2.95,1.41-4.5,2.95-1.54,2.95-1.54,1.41-4.5,1.41-4.5,1.41-4.5,2.95-1.54,2.95-1.54,2.95-1.54,2.95-1.54,2.95-1.54,2.95-1.54,2.95-1.54,4.5,1.41,1.54,2.95,1.54,2.95,4.5,1.41,4.5,1.41,2.95-1.54,2.95-1.54,2.95-1.54,1.41-4.5,2.95-1.54,2.95-1.54,2.95-1.54,4.5,1.41,2.95-1.54,2.95-1.54,2.95-1.54-1.54-2.95-4.5-1.41-1.54-2.95-1.54-2.95-1.54-2.95,1.41-4.5,1.41-4.5,1.41-4.5,2.95-1.54,2.95-1.54,2.95-1.54,2.95-1.54,2.95-1.54,2.95-1.54,1.41-4.5,2.95-1.54,2.95-1.54,2.95-1.54,2.95-1.54,2.95-1.54,2.95-1.54,2.95-1.54,4.5,1.41,2.95-1.54-1.54-2.95-1.54-2.95,1.41-4.5,1.41-4.5,2.95-1.54,2.95-1.54,2.95-1.54,4.5,1.41,4.5,1.41,4.5,1.41,2.95-1.54,1.41-4.5,1.41-4.5,1.41-4.5,2.95-1.54,2.95-1.54,1.41-4.5,1.41-4.5,2.95-1.54,2.95-1.54,1.41-4.5,1.41-4.5,1.41-4.5,2.95-1.54,2.95-1.54,2.95-1.54,2.95-1.54,2.95-1.54,2.95-1.54,1.41-4.5-1.54-2.95-1.54-2.95,1.41-4.5,2.95-1.54,2.95-1.54,2.95-1.54,4.5,1.41,4.5,1.41,4.5,1.41,2.95-1.54,2.95-1.54,2.95-1.54,2.95-1.54,2.95-1.54,1.41-4.5,2.95-1.54,2.95-1.54,1.41-4.5,2.95-1.54,2.95-1.54,2.95-1.54,2.95-1.54,1.41-4.5,1.41-4.5,1.41-4.5,1.41-4.5,1.41-4.5,1.41-4.5,1.41-4.5,2.95-1.54,2.95-1.54,2.95-1.54,2.95-1.54,1.41-4.5-1.54-2.95-1.54-2.95,1.41-4.5,1.41-4.5,1.41-4.5,2.95-1.54,2.95-1.54,1.41-4.5,1.41-4.5,2.95-1.54,2.95-1.54,2.95-1.54,2.95-1.54-1.54-2.95-1.54-2.95,1.41-4.5,2.95-1.54,2.95-1.54,1.41-4.5,1.41-4.5-1.54-2.95-1.54-2.95,1.41-4.5,2.95-1.54,2.95-1.54,2.95-1.54,2.95-1.54,2.95-1.54,2.95-1.54,1.41-4.5,1.41-4.5,1.41-4.5,1.41-4.5,2.95-1.54,4.5,1.41,1.54,2.95,1.54,2.95,1.54,2.95,1.54,2.95,1.54,2.95-1.41,4.5-1.41,4.5-1.41,4.5-2.95,1.54-2.95,1.54-2.95,1.54-2.95,1.54-1.41,4.5,1.54,2.95,1.54,2.95-1.41,4.5-2.95,1.54-2.95,1.54-1.41,4.5-2.95,1.54-2.95,1.54-1.41,4.5,1.54,2.95,1.54,2.95-1.41,4.5-2.95,1.54-2.95,1.54-2.95,1.54-2.95,1.54,1.54,2.95,1.54,2.95-1.41,4.5-2.95,1.54-2.95,1.54-2.95,1.54-2.95,1.54-1.41,4.5-1.41,4.5,1.54,2.95,1.54,2.95,1.54,2.95,1.54,2.95,1.54,2.95,1.54,2.95-1.41,4.5-2.95,1.54-2.95,1.54-2.95,1.54-2.95,1.54-2.95,1.54-2.95,1.54-2.95,1.54-2.95,1.54-1.41,4.5-2.95,1.54-2.95,1.54-1.41,4.5-1.41,4.5-2.95,1.54-2.95,1.54-2.95,1.54-2.95,1.54-1.41,4.5-2.95,1.54-2.95,1.54-1.41,4.5-2.95,1.54-2.95,1.54-2.95,1.54-2.95,1.54-2.95,1.54-4.5-1.41-4.5-1.41-2.95,1.54-1.41,4.5-1.41,4.5-2.95,1.54-2.95,1.54-2.95,1.54-2.95,1.54-2.95,1.54-2.95,1.54-1.41,4.5-2.95,1.54-2.95,1.54-1.41,4.5-1.41,4.5-1.41,4.5-2.95,1.54-2.95,1.54-1.41,4.5-1.41,4.5-1.41,4.5-2.95,1.54-2.95,1.54-1.41,4.5-1.41,4.5-2.95,1.54-2.95,1.54-2.95,1.54-4.5-1.41-4.5-1.41-2.95,1.54,1.54,2.95,1.54,2.95-1.41,4.5-1.41,4.5-2.95,1.54-2.95,1.54-2.95,1.54-4.5-1.41-4.5-1.41-4.5-1.41-2.95,1.54-2.95,1.54-2.95,1.54-1.41,4.5-2.95,1.54-2.95,1.54-2.95,1.54-2.95,1.54,1.54,2.95,4.5,1.41,1.54,2.95,1.54,2.95,1.54,2.95-1.41,4.5-1.41,4.5-1.41,4.5-2.95,1.54-2.95,1.54-2.95,1.54-2.95,1.54-2.95,1.54-4.5-1.41-2.95,1.54-2.95,1.54-2.95,1.54-1.41,4.5-2.95,1.54-2.95,1.54-1.41,4.5-2.95,1.54-2.95,1.54-2.95,1.54-4.5-1.41-1.54-2.95-1.54-2.95-4.5-1.41-4.5-1.41-4.5-1.41-2.95,1.54-2.95,1.54-2.95,1.54-1.41,4.5-1.41,4.5-1.41,4.5-1.41,4.5,1.54,2.95,1.54,2.95-1.41,4.5,1.54,2.95,1.54,2.95-1.41,4.5-1.41,4.5,1.54,2.95,1.54,2.95-1.41,4.5-1.41,4.5,1.54,2.95,1.54,2.95-1.41,4.5,1.54,2.95,1.54,2.95-1.41,4.5-1.41,4.5-1.41,4.5-1.41,4.5-1.41,4.5-1.41,4.5-1.41,4.5-1.41,4.5-1.41,4.5-1.41,4.5-2.95,1.54-2.95,1.54-2.95,1.54-2.95,1.54-2.95,1.54-4.5-1.41-2.95,1.54-2.95,1.54-2.95,1.54-2.95,1.54-2.95,1.54-2.95,1.54-4.5-1.41-2.95,1.54-1.41,4.5-1.41,4.5-1.41,4.5-1.41,4.5-1.41,4.5,1.54,2.95,1.54,2.95,1.54,2.95,1.54,2.95-1.41,4.5-2.95,1.54-2.95,1.54-1.41,4.5,1.54,2.95,1.54,2.95-1.41,4.5,1.54,2.95,4.5,1.41,4.5,1.41,1.54,2.95,1.54,2.95,1.54,2.95-1.41,4.5-2.95,1.54-2.95,1.54-1.41,4.5-2.95,1.54-2.95,1.54,1.54,2.95,1.54,2.95-1.41,4.5,1.54,2.95,1.54,2.95,1.54,2.95,1.54,2.95,1.54,2.95,1.54,2.95-1.41,4.5,1.54,2.95,1.54,2.95,1.54,2.95,1.54,2.95,1.54,2.95,4.5,1.41,2.95-1.54,2.95-1.54,4.5,1.41,2.95-1.54,2.95-1.54,4.5,1.41,2.95-1.54,2.95-1.54,4.5,1.41,1.54,2.95,1.54,2.95,1.54,2.95-1.41,4.5-1.41,4.5,1.54,2.95,1.54,2.95-1.41,4.5-1.41,4.5,1.54,2.95,1.54,2.95,1.54,2.95,4.5,1.41,2.95-1.54,2.95-1.54,4.5,1.41,2.95-1.54,2.95-1.54,4.5,1.41,4.5,1.41,2.95-1.54,2.95-1.54,4.5,1.41,2.95-1.54,2.95-1.54,4.5,1.41,1.54,2.95,1.54,2.95,1.54,2.95,1.54,2.95,4.5,1.41,4.5,1.41,2.95-1.54,2.95-1.54,4.5,1.41,4.5,1.41,1.54,2.95,1.54,2.95,1.54,2.95-1.41,4.5-1.41,4.5-1.41,4.5-1.41,4.5-1.41,4.5,1.54,2.95,1.54,2.95,1.54,2.95,4.5,1.41,1.54,2.95,1.54,2.95,1.54,2.95-1.41,4.5-2.95,1.54-2.95,1.54-1.41,4.5-1.41,4.5-1.41,4.5,1.54,2.95,4.5,1.41,1.54,2.95,1.54,2.95,1.54,2.95-1.41,4.5-1.41,4.5-1.41,4.5-1.41,4.5-1.41,4.5-1.41,4.5,1.54,2.95,4.5,1.41,4.5,1.41,1.54,2.95,1.54,2.95,1.54,2.95,1.54,2.95,4.5,1.41,4.5,1.41,1.54,2.95,1.54,2.95,1.54,2.95,1.54,2.95,1.54,2.95,1.54,2.95,1.54,2.95-1.41,4.5-1.41,4.5-1.41,4.5-1.41,4.5,1.54,2.95,1.54,2.95,1.54,2.95,1.54,2.95,1.54,2.95,4.5,1.41,2.95-1.54,2.95-1.54,2.95-1.54,2.95-1.54,2.95-1.54,2.95-1.54,2.95-1.54,2.95-1.54,4.5,1.41,4.5,1.41,4.5,1.41,1.54,2.95,1.54,2.95,1.54,2.95-1.41,4.5-1.41,4.5,1.54,2.95,1.54,2.95-1.41,4.5-2.95,1.54-2.95,1.54-2.95,1.54-2.95,1.54-2.95,1.54-2.95,1.54,1.54,2.95,4.5,1.41,4.5,1.41,4.5,1.41,1.54,2.95,1.54,2.95,1.54,2.95-1.41,4.5-1.41,4.5-1.41,4.5-1.41,4.5-1.41,4.5,1.54,2.95,1.54,2.95-1.41,4.5,1.54,2.95,1.54,2.95,1.54,2.95,4.5,1.41,4.5,1.41,4.5,1.41,1.54,2.95,1.54,2.95,4.5,1.41,4.5,1.41,4.5,1.41,1.54,2.95,1.54,2.95,1.54,2.95,1.54,2.95,2.95-1.54,2.95-1.54,2.95-1.54,2.95-1.54,4.5,1.41,4.5,1.41,4.5,1.41,1.54,2.95,1.54,2.95,1.54,2.95-1.41,4.5,1.54,2.95,1.54,2.95,1.54,2.95,1.54,2.95,1.54,2.95,4.5,1.41,1.54,2.95,1.54,2.95,1.54,2.95-1.41,4.5-1.41,4.5-1.41,4.5-1.41,4.5-1.41,4.5-1.41,4.5-1.41,4.5-1.41,4.5-1.41,4.5-1.41,4.5-2.95,1.54-2.95,1.54-2.95,1.54-4.5-1.41-4.5-1.41-2.95,1.54-2.95,1.54-4.5-1.41-2.95,1.54-2.95,1.54-4.5-1.41-4.5-1.41-2.95,1.54-2.95,1.54-2.95,1.54-1.41,4.5-1.41,4.5-1.41,4.5-2.95,1.54-2.95,1.54-2.95,1.54-4.5-1.41-2.95,1.54-2.95,1.54-2.95,1.54-2.95,1.54-2.95,1.54-2.95,1.54-2.95,1.54-2.95,1.54-2.95,1.54-1.41,4.5-2.95,1.54-2.95,1.54-2.95,1.54-4.5-1.41-4.5-1.41-4.5-1.41-2.95,1.54-2.95,1.54-4.5-1.41-4.5-1.41-1.54-2.95-1.54-2.95-4.5-1.41-4.5-1.41-4.5-1.41-1.54-2.95-1.54-2.95-4.5-1.41-4.5-1.41-4.5-1.41-4.5-1.41-4.5-1.41-4.5-1.41-4.5-1.41-2.95,1.54-2.95,1.54-4.5-1.41-1.54-2.95-1.54-2.95-1.54-2.95-1.54-2.95-4.5-1.41-4.5-1.41-4.5-1.41-2.95,1.54-2.95,1.54-4.5-1.41-1.54-2.95-1.54-2.95-4.5-1.41-1.54-2.95-1.54-2.95-1.54-2.95-1.54-2.95-4.5-1.41-1.54-2.95-1.54-2.95-1.54-2.95-1.54-2.95-4.5-1.41-4.5-1.41-1.54-2.95-1.54-2.95-1.54-2.95-1.54-2.95-1.54-2.95-1.54-2.95-1.54-2.95-1.54-2.95-4.5-1.41-4.5-1.41-4.5-1.41-4.5-1.41-4.5-1.41-4.5-1.41-4.5-1.41-1.54-2.95-1.54-2.95-1.54-2.95-1.54-2.95-1.54-2.95-1.54-2.95-4.5-1.41-2.95,1.54-1.41,4.5-1.41,4.5-1.41,4.5,1.54,2.95,1.54,2.95,1.54,2.95,1.54,2.95,1.54,2.95,1.54,2.95-1.41,4.5-1.41,4.5-1.41,4.5-1.41,4.5-1.41,4.5-1.41,4.5-2.95,1.54-2.95,1.54-2.95,1.54-4.5-1.41-4.5-1.41-4.5-1.41-2.95,1.54-2.95,1.54-2.95,1.54-2.95,1.54-2.95,1.54-2.95,1.54-2.95,1.54-2.95,1.54-4.5-1.41-4.5-1.41-4.5-1.41-4.5-1.41-4.5-1.41-4.5-1.41-2.95,1.54,1.54,2.95,1.54,2.95,1.54,2.95,1.54,2.95-1.41,4.5,1.54,2.95,1.54,2.95-1.41,4.5,1.54,2.95,1.54,2.95,1.54,2.95,1.54,2.95-1.41,4.5,1.54,2.95,1.54,2.95,1.54,2.95,1.54,2.95,1.54,2.95,1.54,2.95-1.41,4.5-1.41,4.5-1.41,4.5-2.95,1.54-2.95,1.54,1.54,2.95,1.54,2.95-1.41,4.5,1.54,2.95,1.54,2.95,1.54,2.95,1.54,2.95,1.54,2.95,4.5,1.41,1.54,2.95,1.54,2.95,1.54,2.95,1.54,2.95,1.54,2.95,1.54,2.95,1.54,2.95,1.54,2.95,1.54,2.95,1.54,2.95,1.54,2.95,1.54,2.95,1.54,2.95,1.54,2.95,1.54,2.95-1.41,4.5,1.54,2.95,1.54,2.95-1.41,4.5,1.54,2.95,1.54,2.95-1.41,4.5,1.54,2.95,1.54,2.95-1.41,4.5-1.41,4.5-1.41,4.5-1.41,4.5-1.41,4.5-1.41,4.5-1.41,4.5-1.41,4.5-1.41,4.5-1.41,4.5-2.95,1.54-2.95,1.54-2.95,1.54-4.5-1.41-4.5-1.41-2.95,1.54-2.95,1.54-2.95,1.54-2.95,1.54-2.95,1.54-2.95,1.54-4.5-1.41-4.5-1.41-1.54-2.95-1.54-2.95-4.5-1.41-4.5-1.41-4.5-1.41-4.5-1.41-2.95,1.54-2.95,1.54-4.5-1.41-2.95,1.54-2.95,1.54-4.5-1.41-2.95,1.54-2.95,1.54-4.5-1.41-2.95,1.54-2.95,1.54-2.95,1.54-1.41,4.5-1.41,4.5-2.95,1.54-2.95,1.54-1.41,4.5-1.41,4.5-1.41,4.5-1.41,4.5-1.41,4.5-1.41,4.5-2.95,1.54-2.95,1.54-2.95,1.54-2.95,1.54-2.95,1.54-2.95,1.54-2.95,1.54-4.5-1.41-4.5-1.41-4.5-1.41-4.5-1.41-2.95,1.54-2.95,1.54-4.5-1.41-1.54-2.95-1.54-2.95-1.54-2.95-1.54-2.95-4.5-1.41-4.5-1.41-4.5-1.41-4.5-1.41-4.5-1.41-4.5-1.41-4.5-1.41-2.95,1.54-2.95,1.54-4.5-1.41-2.95,1.54-2.95,1.54-4.5-1.41-2.95,1.54-2.95,1.54-4.5-1.41-2.95,1.54-2.95,1.54-4.5-1.41-4.5-1.41-4.5-1.41-4.5-1.41-1.54-2.95-1.54-2.95-4.5-1.41-4.5-1.41-4.5-1.41-2.95,1.54-2.95,1.54-2.95,1.54-2.95,1.54-2.95,1.54-2.95,1.54-2.95,1.54-1.41,4.5-1.41,4.5-1.41,4.5-1.41,4.5-1.41,4.5-1.41,4.5-1.41,4.5-1.41,4.5-2.95,1.54-2.95,1.54-2.95,1.54-4.5-1.41-4.5-1.41-4.5-1.41-1.54-2.95-1.54-2.95-4.5-1.41-2.95,1.54-2.95,1.54-2.95,1.54-2.95,1.54-2.95,1.54-2.95,1.54-4.5-1.41-4.5-1.41-4.5-1.41-1.54-2.95-1.54-2.95-2.95,1.54-2.95,1.54-4.5-1.41-4.5-1.41-2.95,1.54-2.95,1.54-2.95,1.54-2.95,1.54-2.95,1.54-2.95,1.54-2.95,1.54-2.95,1.54-4.5-1.41-2.95,1.54-2.95,1.54-2.95,1.54-2.95,1.54-2.95,1.54-2.95,1.54-4.5-1.41-4.5-1.41-4.5-1.41-4.5-1.41-4.5-1.41-4.5-1.41-2.95,1.54,1.54,2.95,1.54,2.95,1.54,2.95,1.54,2.95-1.41,4.5-1.41,4.5-1.41,4.5-2.95,1.54-2.95,1.54-1.41,4.5-2.95,1.54-2.95,1.54-2.95,1.54-2.95,1.54,1.54,2.95,1.54,2.95-1.41,4.5-1.41,4.5-2.95,1.54-2.95,1.54-2.95,1.54-4.5-1.41-2.95,1.54-1.41,4.5-2.95,1.54-2.95,1.54-1.41,4.5-2.95,1.54-2.95,1.54-1.41,4.5-2.95,1.54-2.95,1.54-1.41,4.5-1.41,4.5-2.95,1.54-2.95,1.54-2.95,1.54-4.5-1.41-4.5-1.41-2.95,1.54-1.41,4.5-1.41,4.5-1.41,4.5,1.54,2.95,1.54,2.95-1.41,4.5-1.41,4.5-1.41,4.5-1.41,4.5,1.54,2.95,1.54,2.95-1.41,4.5,1.54,2.95,1.54,2.95-1.41,4.5-1.41,4.5,1.54,2.95,1.54,2.95-1.41,4.5-1.41,4.5,1.54,2.95,1.54,2.95-1.41,4.5,1.54,2.95,1.54,2.95-1.41,4.5-1.41,4.5,1.54,2.95,1.54,2.95-1.41,4.5,1.54,2.95,1.54,2.95-1.41,4.5-1.41,4.5,1.54,2.95,4.5,1.41,1.54,2.95,1.54,2.95,1.54,2.95,1.54,2.95,1.54,2.95-1.41,4.5,1.54,2.95,1.54,2.95,1.54,2.95,4.5,1.41,4.5,1.41,4.5,1.41,1.54,2.95,1.54,2.95,1.54,2.95-1.41,4.5-2.95,1.54-2.95,1.54-2.95,1.54Z"/>
  </g>
  <g>
    <path class="st0" d="M871.2,797.63l44.52,46.76,46.76-44.52c-12.69-13.33-29.71-20.05-46.76-20.05-16,0-32.02,5.91-44.52,17.81"/>
    <g class="st1">
      <rect class="st0" x="868.05" y="775.18" width="97.59" height="73.85" transform="translate(-80.68 101.43) rotate(-6.07)"/>
    </g>
  </g>
</svg>