<?xml version="1.0" encoding="utf-8"?>
<svg xmlns="http://www.w3.org/2000/svg" viewBox="19.0762 -221.018 451.366 838.6626" width="451.366px" height="838.663px" preserveAspectRatio="none"><defs><clipPath id="clippath"><rect class="st0" width="786.13" height="1001.3" style="fill: none;"/></clipPath></defs><g id="object-1"><g id="Layer_1" transform="matrix(0.049906, 0, 0, 0.054715, 396.607758, 177.782578)" style=""><g><path class="cls-1" d="M 40.884 261.117 L 287.064 519.657 L 545.604 273.497 C 409.644 130.697 183.674 125.157 40.884 261.117" style="fill: rgb(170, 78, 67); stroke-width: 1;"/></g></g><g id="svg-1" style="" transform="matrix(0.612988, 0, 0, 0.666868, 43.849625, 51.762886)"><g class="st2" style="clip-path: url(&quot;#clippath&quot;);" transform="matrix(1, 0, 0, 1, -70.274208, -224.013763)"><path class="st1" d="M71.38,1072.58l-3.51-.94-1.28-2.23-1.28-2.23-3.51-.94-3.51-.94-3.51-.94-3.51-.94-1.28-2.23-1.28-2.23-1.28-2.23.94-3.51.94-3.51-1.28-2.23-3.51-.94-1.28-2.23-1.28-2.23-1.28-2.23-1.28-2.23-1.28-2.23.94-3.51-1.28-2.23-1.28-2.23.94-3.51.94-3.51-1.28-2.23-1.28-2.23.94-3.51.94-3.51-1.28-2.23-1.28-2.23.94-3.51.94-3.51-1.28-2.23-1.28-2.23.94-3.51-1.28-2.23-1.28-2.23.94-3.51.94-3.51-1.28-2.23-1.28-2.23.94-3.51-1.28-2.23-1.28-2.23.94-3.51.94-3.51-1.28-2.23-1.28-2.23.94-3.51.94-3.51.94-3.51.94-3.51.94-3.51.94-3.51-1.28-2.23-1.28-2.23.94-3.51.94-3.51,2.23-1.28,2.23-1.28.94-3.51,2.23-1.28,3.51.94,3.51.94,3.51.94,2.23-1.28,2.23-1.28,2.23-1.28.94-3.51.94-3.51,2.23-1.28,2.23-1.28-1.28-2.23-1.28-2.23.94-3.51,2.23-1.28,2.23-1.28,2.23-1.28,3.51.94,2.23-1.28,2.23-1.28,2.23-1.28-1.28-2.23-1.28-2.23.94-3.51,2.23-1.28,2.23-1.28,2.23-1.28,2.23-1.28.94-3.51.94-3.51-1.28-2.23-1.28-2.23.94-3.51-1.28-2.23-1.28-2.23.94-3.51.94-3.51,2.23-1.28,2.23-1.28.94-3.51,2.23-1.28,2.23-1.28,2.23-1.28,3.51.94,3.51.94,3.51.94,3.51.94,3.51.94,3.51.94,3.51.94,2.23-1.28,2.23-1.28,2.23-1.28,2.23-1.28,2.23-1.28,2.23-1.28,3.51.94,2.23-1.28,2.23-1.28,2.23-1.28,2.23-1.28,2.23-1.28,2.23-1.28,2.23-1.28,2.23-1.28,3.51.94,3.51.94,2.23-1.28,2.23-1.28,2.23-1.28,2.23-1.28,3.51.94,1.28,2.23,1.28,2.23,1.28,2.23,1.28,2.23,3.51.94,2.23-1.28,2.23-1.28,2.23-1.28,2.23-1.28,2.23-1.28,2.23-1.28,3.51.94,3.51.94,3.51.94,2.23-1.28.94-3.51.94-3.51.94-3.51.94-3.51.94-3.51.94-3.51,2.23-1.28,2.23-1.28,2.23-1.28,2.23-1.28,2.23-1.28,2.23-1.28,2.23-1.28,2.23-1.28.94-3.51,2.23-1.28,2.23-1.28,2.23-1.28,3.51.94,2.23-1.28,2.23-1.28,3.51.94,1.28,2.23,1.28,2.23,1.28,2.23,1.28,2.23,3.51.94,3.51.94,3.51.94,3.51.94,1.28,2.23,1.28,2.23,2.23-1.28,2.23-1.28,3.51.94,2.23-1.28,2.23-1.28,3.51.94,2.23-1.28,2.23-1.28,3.51.94,2.23-1.28,2.23-1.28,3.51.94,3.51.94,3.51.94,3.51.94,3.51.94,3.51.94,3.51.94,3.51.94,1.28,2.23,1.28,2.23,1.28,2.23,1.28,2.23,3.51.94,3.51.94,3.51.94,2.23-1.28,2.23-1.28,2.23-1.28.94-3.51.94-3.51,2.23-1.28,2.23-1.28.94-3.51.94-3.51.94-3.51.94-3.51.94-3.51.94-3.51.94-3.51,2.23-1.28,2.23-1.28,2.23-1.28,3.51.94,2.23-1.28,2.23-1.28,3.51.94,2.23-1.28,2.23-1.28,3.51.94,2.23-1.28,2.23-1.28,3.51.94,2.23-1.28,2.23-1.28,3.51.94,2.23-1.28,2.23-1.28,3.51.94,1.28,2.23,1.28,2.23,3.51.94,3.51.94,3.51.94,3.51.94,2.23-1.28,2.23-1.28,2.23-1.28,2.23-1.28,2.23-1.28.94-3.51,2.23-1.28,2.23-1.28.94-3.51.94-3.51.94-3.51.94-3.51.94-3.51-1.28-2.23-1.28-2.23.94-3.51-1.28-2.23-1.28-2.23.94-3.51-1.28-2.23-1.28-2.23-1.28-2.23-1.28-2.23-1.28-2.23-1.28-2.23-1.28-2.23-1.28-2.23-1.28-2.23-1.28-2.23-1.28-2.23-1.28-2.23-1.28-2.23-3.51-.94-1.28-2.23-1.28-2.23-1.28-2.23-1.28-2.23-1.28-2.23-1.28-2.23-1.28-2.23.94-3.51-1.28-2.23-1.28-2.23.94-3.51-1.28-2.23-1.28-2.23.94-3.51.94-3.51,2.23-1.28,2.23-1.28-1.28-2.23-1.28-2.23.94-3.51-1.28-2.23-1.28-2.23-1.28-2.23-1.28-2.23.94-3.51-1.28-2.23-1.28-2.23-1.28-2.23-1.28-2.23.94-3.51-1.28-2.23-1.28-2.23-1.28-2.23-1.28-2.23.94-3.51-1.28-2.23-1.28-2.23.94-3.51.94-3.51.94-3.51,2.23-1.28,2.23-1.28,2.23-1.28,2.23-1.28,2.23-1.28,3.51.94,3.51.94,3.51.94,3.51.94,3.51.94,3.51.94,2.23-1.28,2.23-1.28,2.23-1.28,2.23-1.28,2.23-1.28,2.23-1.28,3.51.94,3.51.94,2.23-1.28,2.23-1.28,2.23-1.28.94-3.51.94-3.51-1.28-2.23-1.28-2.23-1.28-2.23-1.28-2.23-1.28-2.23-1.28-2.23.94-3.51,2.23-1.28,2.23-1.28.94-3.51.94-3.51.94-3.51.94-3.51.94-3.51.94-3.51.94-3.51,2.23-1.28,2.23-1.28,2.23-1.28,3.51.94,1.28,2.23,1.28,2.23,1.28,2.23,1.28,2.23,1.28,2.23,1.28,2.23,3.51.94,1.28,2.23,1.28,2.23,1.28,2.23,1.28,2.23,3.51.94,3.51.94,3.51.94,3.51.94,3.51.94,3.51.94,3.51.94,1.28,2.23,1.28,2.23,1.28,2.23,1.28,2.23,1.28,2.23,1.28,2.23,1.28,2.23,1.28,2.23,3.51.94,3.51.94,3.51.94,3.51.94,1.28,2.23,1.28,2.23,1.28,2.23-.94,3.51,1.28,2.23,1.28,2.23,1.28,2.23,1.28,2.23,1.28,2.23,3.51.94,3.51.94,3.51.94,2.23-1.28,2.23-1.28,3.51.94,3.51.94,1.28,2.23,1.28,2.23,1.28,2.23,1.28,2.23,3.51.94,3.51.94,3.51.94,2.23-1.28,2.23-1.28,3.51.94,3.51.94,3.51.94,1.28,2.23,1.28,2.23,3.51.94,3.51.94,3.51.94,1.28,2.23,1.28,2.23,3.51.94,3.51.94,3.51.94,3.51.94,2.23-1.28,2.23-1.28,2.23-1.28.94-3.51,2.23-1.28,2.23-1.28,2.23-1.28,2.23-1.28,2.23-1.28,3.51.94,2.23-1.28,2.23-1.28,2.23-1.28,2.23-1.28,2.23-1.28.94-3.51.94-3.51.94-3.51,2.23-1.28,2.23-1.28,2.23-1.28,3.51.94,2.23-1.28,2.23-1.28,3.51.94,3.51.94,2.23-1.28,2.23-1.28,3.51.94,2.23-1.28,2.23-1.28,3.51.94,2.23-1.28.94-3.51.94-3.51.94-3.51.94-3.51.94-3.51-1.28-2.23-3.51-.94-3.51-.94-1.28-2.23-1.28-2.23-2.23,1.28-.94,3.51-2.23,1.28-2.23,1.28-2.23,1.28-3.51-.94-1.28-2.23-1.28-2.23-1.28-2.23.94-3.51-1.28-2.23-1.28-2.23-1.28-2.23-1.28-2.23.94-3.51-1.28-2.23-1.28-2.23-1.28-2.23-1.28-2.23-1.28-2.23-3.51-.94-3.51-.94-1.28-2.23-1.28-2.23-3.51-.94-3.51-.94-3.51-.94-1.28-2.23-1.28-2.23-1.28-2.23.94-3.51-1.28-2.23-1.28-2.23-1.28-2.23-1.28-2.23.94-3.51-1.28-2.23-1.28-2.23.94-3.51.94-3.51-1.28-2.23-3.51-.94-3.51-.94-1.28-2.23-1.28-2.23-1.28-2.23.94-3.51-1.28-2.23-1.28-2.23-1.28-2.23-3.51-.94-3.51-.94-3.51-.94-1.28-2.23-1.28-2.23-1.28-2.23-1.28-2.23-1.28-2.23-1.28-2.23-1.28-2.23-1.28-2.23-1.28-2.23-1.28-2.23-1.28-2.23.94-3.51.94-3.51.94-3.51-1.28-2.23-1.28-2.23-1.28-2.23-3.51-.94-1.28-2.23-1.28-2.23-1.28-2.23-1.28-2.23-1.28-2.23-1.28-2.23-3.51-.94-3.51-.94-3.51-.94-3.51-.94-1.28-2.23-1.28-2.23-1.28-2.23.94-3.51.94-3.51.94-3.51.94-3.51.94-3.51.94-3.51.94-3.51-1.28-2.23-3.51-.94-1.28-2.23-1.28-2.23-1.28-2.23.94-3.51.94-3.51,2.23-1.28,2.23-1.28.94-3.51.94-3.51-1.28-2.23-1.28-2.23-1.28-2.23-1.28-2.23-1.28-2.23-1.28-2.23.94-3.51.94-3.51.94-3.51-1.28-2.23-1.28-2.23-1.28-2.23-2.23,1.28-2.23,1.28-3.51-.94-3.51-.94-1.28-2.23-1.28-2.23-1.28-2.23-1.28-2.23-2.23,1.28-2.23,1.28-3.51-.94-2.23,1.28-2.23,1.28-3.51-.94-3.51-.94-2.23,1.28-2.23,1.28-3.51-.94-2.23,1.28-2.23,1.28-3.51-.94-1.28-2.23-1.28-2.23-3.51-.94-1.28-2.23-1.28-2.23-1.28-2.23-1.28-2.23-1.28-2.23.94-3.51.94-3.51-1.28-2.23-1.28-2.23-1.28-2.23-3.51-.94-2.23,1.28-2.23,1.28-3.51-.94-2.23,1.28-2.23,1.28-3.51-.94-1.28-2.23-1.28-2.23-3.51-.94-1.28-2.23-1.28-2.23-1.28-2.23-1.28-2.23-1.28-2.23.94-3.51-1.28-2.23-1.28-2.23-1.28-2.23-1.28-2.23-1.28-2.23-1.28-2.23.94-3.51-1.28-2.23-1.28-2.23-1.28-2.23-1.28-2.23-1.28-2.23-1.28-2.23.94-3.51,2.23-1.28,2.23-1.28.94-3.51-1.28-2.23-1.28-2.23-1.28-2.23-1.28-2.23.94-3.51-1.28-2.23-1.28-2.23-1.28-2.23-1.28-2.23.94-3.51,2.23-1.28,2.23-1.28.94-3.51-1.28-2.23-1.28-2.23-1.28-2.23-1.28-2.23.94-3.51.94-3.51.94-3.51.94-3.51.94-3.51.94-3.51.94-3.51,2.23-1.28,2.23-1.28,2.23-1.28,2.23-1.28,2.23-1.28,3.51.94,2.23-1.28,2.23-1.28,2.23-1.28,2.23-1.28,3.51.94,2.23-1.28,2.23-1.28,2.23-1.28.94-3.51.94-3.51.94-3.51.94-3.51.94-3.51.94-3.51.94-3.51.94-3.51.94-3.51.94-3.51-1.28-2.23-1.28-2.23.94-3.51-1.28-2.23-1.28-2.23.94-3.51.94-3.51-1.28-2.23-1.28-2.23.94-3.51.94-3.51-1.28-2.23-1.28-2.23.94-3.51-1.28-2.23-1.28-2.23.94-3.51,2.23-1.28,2.23-1.28.94-3.51.94-3.51.94-3.51,2.23-1.28,2.23-1.28,2.23-1.28,2.23-1.28,2.23-1.28,2.23-1.28,2.23-1.28,3.51.94,1.28,2.23,1.28,2.23,3.51.94,3.51.94,2.23-1.28,2.23-1.28,2.23-1.28.94-3.51,2.23-1.28,2.23-1.28,2.23-1.28,3.51.94,2.23-1.28,2.23-1.28,2.23-1.28-1.28-2.23-3.51-.94-1.28-2.23-1.28-2.23-1.28-2.23.94-3.51.94-3.51.94-3.51,2.23-1.28,2.23-1.28,2.23-1.28,2.23-1.28,2.23-1.28,2.23-1.28.94-3.51,2.23-1.28,2.23-1.28,2.23-1.28,2.23-1.28,2.23-1.28,2.23-1.28,2.23-1.28,3.51.94,2.23-1.28-1.28-2.23-1.28-2.23.94-3.51.94-3.51,2.23-1.28,2.23-1.28,2.23-1.28,3.51.94,3.51.94,3.51.94,2.23-1.28.94-3.51.94-3.51.94-3.51,2.23-1.28,2.23-1.28.94-3.51.94-3.51,2.23-1.28,2.23-1.28.94-3.51.94-3.51.94-3.51,2.23-1.28,2.23-1.28,2.23-1.28,2.23-1.28,2.23-1.28,2.23-1.28.94-3.51-1.28-2.23-1.28-2.23.94-3.51,2.23-1.28,2.23-1.28,2.23-1.28,3.51.94,3.51.94,3.51.94,2.23-1.28,2.23-1.28,2.23-1.28,2.23-1.28,2.23-1.28.94-3.51,2.23-1.28,2.23-1.28.94-3.51,2.23-1.28,2.23-1.28,2.23-1.28,2.23-1.28.94-3.51.94-3.51.94-3.51.94-3.51.94-3.51.94-3.51.94-3.51,2.23-1.28,2.23-1.28,2.23-1.28,2.23-1.28.94-3.51-1.28-2.23-1.28-2.23.94-3.51.94-3.51.94-3.51,2.23-1.28,2.23-1.28.94-3.51.94-3.51,2.23-1.28,2.23-1.28,2.23-1.28,2.23-1.28-1.28-2.23-1.28-2.23.94-3.51,2.23-1.28,2.23-1.28.94-3.51.94-3.51-1.28-2.23-1.28-2.23.94-3.51,2.23-1.28,2.23-1.28,2.23-1.28,2.23-1.28,2.23-1.28,2.23-1.28.94-3.51.94-3.51.94-3.51.94-3.51,2.23-1.28,3.51.94,1.28,2.23,1.28,2.23,1.28,2.23,1.28,2.23,1.28,2.23-.94,3.51-.94,3.51-.94,3.51-2.23,1.28-2.23,1.28-2.23,1.28-2.23,1.28-.94,3.51,1.28,2.23,1.28,2.23-.94,3.51-2.23,1.28-2.23,1.28-.94,3.51-2.23,1.28-2.23,1.28-.94,3.51,1.28,2.23,1.28,2.23-.94,3.51-2.23,1.28-2.23,1.28-2.23,1.28-2.23,1.28,1.28,2.23,1.28,2.23-.94,3.51-2.23,1.28-2.23,1.28-2.23,1.28-2.23,1.28-.94,3.51-.94,3.51,1.28,2.23,1.28,2.23,1.28,2.23,1.28,2.23,1.28,2.23,1.28,2.23-.94,3.51-2.23,1.28-2.23,1.28-2.23,1.28-2.23,1.28-2.23,1.28-2.23,1.28-2.23,1.28-2.23,1.28-.94,3.51-2.23,1.28-2.23,1.28-.94,3.51-.94,3.51-2.23,1.28-2.23,1.28-2.23,1.28-2.23,1.28-.94,3.51-2.23,1.28-2.23,1.28-.94,3.51-2.23,1.28-2.23,1.28-2.23,1.28-2.23,1.28-2.23,1.28-3.51-.94-3.51-.94-2.23,1.28-.94,3.51-.94,3.51-2.23,1.28-2.23,1.28-2.23,1.28-2.23,1.28-2.23,1.28-2.23,1.28-.94,3.51-2.23,1.28-2.23,1.28-.94,3.51-.94,3.51-.94,3.51-2.23,1.28-2.23,1.28-.94,3.51-.94,3.51-.94,3.51-2.23,1.28-2.23,1.28-.94,3.51-.94,3.51-2.23,1.28-2.23,1.28-2.23,1.28-3.51-.94-3.51-.94-2.23,1.28,1.28,2.23,1.28,2.23-.94,3.51-.94,3.51-2.23,1.28-2.23,1.28-2.23,1.28-3.51-.94-3.51-.94-3.51-.94-2.23,1.28-2.23,1.28-2.23,1.28-.94,3.51-2.23,1.28-2.23,1.28-2.23,1.28-2.23,1.28,1.28,2.23,3.51.94,1.28,2.23,1.28,2.23,1.28,2.23-.94,3.51-.94,3.51-.94,3.51-2.23,1.28-2.23,1.28-2.23,1.28-2.23,1.28-2.23,1.28-3.51-.94-2.23,1.28-2.23,1.28-2.23,1.28-.94,3.51-2.23,1.28-2.23,1.28-.94,3.51-2.23,1.28-2.23,1.28-2.23,1.28-3.51-.94-1.28-2.23-1.28-2.23-3.51-.94-3.51-.94-3.51-.94-2.23,1.28-2.23,1.28-2.23,1.28-.94,3.51-.94,3.51-.94,3.51-.94,3.51,1.28,2.23,1.28,2.23-.94,3.51,1.28,2.23,1.28,2.23-.94,3.51-.94,3.51,1.28,2.23,1.28,2.23-.94,3.51-.94,3.51,1.28,2.23,1.28,2.23-.94,3.51,1.28,2.23,1.28,2.23-.94,3.51-.94,3.51-.94,3.51-.94,3.51-.94,3.51-.94,3.51-.94,3.51-.94,3.51-.94,3.51-.94,3.51-2.23,1.28-2.23,1.28-2.23,1.28-2.23,1.28-2.23,1.28-3.51-.94-2.23,1.28-2.23,1.28-2.23,1.28-2.23,1.28-2.23,1.28-2.23,1.28-3.51-.94-2.23,1.28-.94,3.51-.94,3.51-.94,3.51-.94,3.51-.94,3.51,1.28,2.23,1.28,2.23,1.28,2.23,1.28,2.23-.94,3.51-2.23,1.28-2.23,1.28-.94,3.51,1.28,2.23,1.28,2.23-.94,3.51,1.28,2.23,3.51.94,3.51.94,1.28,2.23,1.28,2.23,1.28,2.23-.94,3.51-2.23,1.28-2.23,1.28-.94,3.51-2.23,1.28-2.23,1.28,1.28,2.23,1.28,2.23-.94,3.51,1.28,2.23,1.28,2.23,1.28,2.23,1.28,2.23,1.28,2.23,1.28,2.23-.94,3.51,1.28,2.23,1.28,2.23,1.28,2.23,1.28,2.23,1.28,2.23,3.51.94,2.23-1.28,2.23-1.28,3.51.94,2.23-1.28,2.23-1.28,3.51.94,2.23-1.28,2.23-1.28,3.51.94,1.28,2.23,1.28,2.23,1.28,2.23-.94,3.51-.94,3.51,1.28,2.23,1.28,2.23-.94,3.51-.94,3.51,1.28,2.23,1.28,2.23,1.28,2.23,3.51.94,2.23-1.28,2.23-1.28,3.51.94,2.23-1.28,2.23-1.28,3.51.94,3.51.94,2.23-1.28,2.23-1.28,3.51.94,2.23-1.28,2.23-1.28,3.51.94,1.28,2.23,1.28,2.23,1.28,2.23,1.28,2.23,3.51.94,3.51.94,2.23-1.28,2.23-1.28,3.51.94,3.51.94,1.28,2.23,1.28,2.23,1.28,2.23-.94,3.51-.94,3.51-.94,3.51-.94,3.51-.94,3.51,1.28,2.23,1.28,2.23,1.28,2.23,3.51.94,1.28,2.23,1.28,2.23,1.28,2.23-.94,3.51-2.23,1.28-2.23,1.28-.94,3.51-.94,3.51-.94,3.51,1.28,2.23,3.51.94,1.28,2.23,1.28,2.23,1.28,2.23-.94,3.51-.94,3.51-.94,3.51-.94,3.51-.94,3.51-.94,3.51,1.28,2.23,3.51.94,3.51.94,1.28,2.23,1.28,2.23,1.28,2.23,1.28,2.23,3.51.94,3.51.94,1.28,2.23,1.28,2.23,1.28,2.23,1.28,2.23,1.28,2.23,1.28,2.23,1.28,2.23-.94,3.51-.94,3.51-.94,3.51-.94,3.51,1.28,2.23,1.28,2.23,1.28,2.23,1.28,2.23,1.28,2.23,3.51.94,2.23-1.28,2.23-1.28,2.23-1.28,2.23-1.28,2.23-1.28,2.23-1.28,2.23-1.28,2.23-1.28,3.51.94,3.51.94,3.51.94,1.28,2.23,1.28,2.23,1.28,2.23-.94,3.51-.94,3.51,1.28,2.23,1.28,2.23-.94,3.51-2.23,1.28-2.23,1.28-2.23,1.28-2.23,1.28-2.23,1.28-2.23,1.28,1.28,2.23,3.51.94,3.51.94,3.51.94,1.28,2.23,1.28,2.23,1.28,2.23-.94,3.51-.94,3.51-.94,3.51-.94,3.51-.94,3.51,1.28,2.23,1.28,2.23-.94,3.51,1.28,2.23,1.28,2.23,1.28,2.23,3.51.94,3.51.94,3.51.94,1.28,2.23,1.28,2.23,3.51.94,3.51.94,3.51.94,1.28,2.23,1.28,2.23,1.28,2.23,1.28,2.23,2.23-1.28,2.23-1.28,2.23-1.28,2.23-1.28,3.51.94,3.51.94,3.51.94,1.28,2.23,1.28,2.23,1.28,2.23-.94,3.51,1.28,2.23,1.28,2.23,1.28,2.23,1.28,2.23,1.28,2.23,3.51.94,1.28,2.23,1.28,2.23,1.28,2.23-.94,3.51-.94,3.51-.94,3.51-.94,3.51-.94,3.51-.94,3.51-.94,3.51-.94,3.51-.94,3.51-.94,3.51-2.23,1.28-2.23,1.28-2.23,1.28-3.51-.94-3.51-.94-2.23,1.28-2.23,1.28-3.51-.94-2.23,1.28-2.23,1.28-3.51-.94-3.51-.94-2.23,1.28-2.23,1.28-2.23,1.28-.94,3.51-.94,3.51-.94,3.51-2.23,1.28-2.23,1.28-2.23,1.28-3.51-.94-2.23,1.28-2.23,1.28-2.23,1.28-2.23,1.28-2.23,1.28-2.23,1.28-2.23,1.28-2.23,1.28-2.23,1.28-.94,3.51-2.23,1.28-2.23,1.28-2.23,1.28-3.51-.94-3.51-.94-3.51-.94-2.23,1.28-2.23,1.28-3.51-.94-3.51-.94-1.28-2.23-1.28-2.23-3.51-.94-3.51-.94-3.51-.94-1.28-2.23-1.28-2.23-3.51-.94-3.51-.94-3.51-.94-3.51-.94-3.51-.94-3.51-.94-3.51-.94-2.23,1.28-2.23,1.28-3.51-.94-1.28-2.23-1.28-2.23-1.28-2.23-1.28-2.23-3.51-.94-3.51-.94-3.51-.94-2.23,1.28-2.23,1.28-3.51-.94-1.28-2.23-1.28-2.23-3.51-.94-1.28-2.23-1.28-2.23-1.28-2.23-1.28-2.23-3.51-.94-1.28-2.23-1.28-2.23-1.28-2.23-1.28-2.23-3.51-.94-3.51-.94-1.28-2.23-1.28-2.23-1.28-2.23-1.28-2.23-1.28-2.23-1.28-2.23-1.28-2.23-1.28-2.23-3.51-.94-3.51-.94-3.51-.94-3.51-.94-3.51-.94-3.51-.94-3.51-.94-1.28-2.23-1.28-2.23-1.28-2.23-1.28-2.23-1.28-2.23-1.28-2.23-3.51-.94-2.23,1.28-.94,3.51-.94,3.51-.94,3.51,1.28,2.23,1.28,2.23,1.28,2.23,1.28,2.23,1.28,2.23,1.28,2.23-.94,3.51-.94,3.51-.94,3.51-.94,3.51-.94,3.51-.94,3.51-2.23,1.28-2.23,1.28-2.23,1.28-3.51-.94-3.51-.94-3.51-.94-2.23,1.28-2.23,1.28-2.23,1.28-2.23,1.28-2.23,1.28-2.23,1.28-2.23,1.28-2.23,1.28-3.51-.94-3.51-.94-3.51-.94-3.51-.94-3.51-.94-3.51-.94-2.23,1.28,1.28,2.23,1.28,2.23,1.28,2.23,1.28,2.23-.94,3.51,1.28,2.23,1.28,2.23-.94,3.51,1.28,2.23,1.28,2.23,1.28,2.23,1.28,2.23-.94,3.51,1.28,2.23,1.28,2.23,1.28,2.23,1.28,2.23,1.28,2.23,1.28,2.23-.94,3.51-.94,3.51-.94,3.51-2.23,1.28-2.23,1.28,1.28,2.23,1.28,2.23-.94,3.51,1.28,2.23,1.28,2.23,1.28,2.23,1.28,2.23,1.28,2.23,3.51.94,1.28,2.23,1.28,2.23,1.28,2.23,1.28,2.23,1.28,2.23,1.28,2.23,1.28,2.23,1.28,2.23,1.28,2.23,1.28,2.23,1.28,2.23,1.28,2.23,1.28,2.23,1.28,2.23,1.28,2.23-.94,3.51,1.28,2.23,1.28,2.23-.94,3.51,1.28,2.23,1.28,2.23-.94,3.51,1.28,2.23,1.28,2.23-.94,3.51-.94,3.51-.94,3.51-.94,3.51-.94,3.51-.94,3.51-.94,3.51-.94,3.51-.94,3.51-.94,3.51-2.23,1.28-2.23,1.28-2.23,1.28-3.51-.94-3.51-.94-2.23,1.28-2.23,1.28-2.23,1.28-2.23,1.28-2.23,1.28-2.23,1.28-3.51-.94-3.51-.94-1.28-2.23-1.28-2.23-3.51-.94-3.51-.94-3.51-.94-3.51-.94-2.23,1.28-2.23,1.28-3.51-.94-2.23,1.28-2.23,1.28-3.51-.94-2.23,1.28-2.23,1.28-3.51-.94-2.23,1.28-2.23,1.28-2.23,1.28-.94,3.51-.94,3.51-2.23,1.28-2.23,1.28-.94,3.51-.94,3.51-.94,3.51-.94,3.51-.94,3.51-.94,3.51-2.23,1.28-2.23,1.28-2.23,1.28-2.23,1.28-2.23,1.28-2.23,1.28-2.23,1.28-3.51-.94-3.51-.94-3.51-.94-3.51-.94-2.23,1.28-2.23,1.28-3.51-.94-1.28-2.23-1.28-2.23-1.28-2.23-1.28-2.23-3.51-.94-3.51-.94-3.51-.94-3.51-.94-3.51-.94-3.51-.94-3.51-.94-2.23,1.28-2.23,1.28-3.51-.94-2.23,1.28-2.23,1.28-3.51-.94-2.23,1.28-2.23,1.28-3.51-.94-2.23,1.28-2.23,1.28-3.51-.94-3.51-.94-3.51-.94-3.51-.94-1.28-2.23-1.28-2.23-3.51-.94-3.51-.94-3.51-.94-2.23,1.28-2.23,1.28-2.23,1.28-2.23,1.28-2.23,1.28-2.23,1.28-2.23,1.28-.94,3.51-.94,3.51-.94,3.51-.94,3.51-.94,3.51-.94,3.51-.94,3.51-.94,3.51-2.23,1.28-2.23,1.28-2.23,1.28-3.51-.94-3.51-.94-3.51-.94-1.28-2.23-1.28-2.23-3.51-.94-2.23,1.28-2.23,1.28-2.23,1.28-2.23,1.28-2.23,1.28-2.23,1.28-3.51-.94-3.51-.94-3.51-.94-1.28-2.23-1.28-2.23-2.23,1.28-2.23,1.28-3.51-.94-3.51-.94-2.23,1.28-2.23,1.28-2.23,1.28-2.23,1.28-2.23,1.28-2.23,1.28-2.23,1.28-2.23,1.28-3.51-.94-2.23,1.28-2.23,1.28-2.23,1.28-2.23,1.28-2.23,1.28-2.23,1.28-3.51-.94-3.51-.94-3.51-.94-3.51-.94-3.51-.94-3.51-.94-2.23,1.28,1.28,2.23,1.28,2.23,1.28,2.23,1.28,2.23-.94,3.51-.94,3.51-.94,3.51-2.23,1.28-2.23,1.28-.94,3.51-2.23,1.28-2.23,1.28-2.23,1.28-2.23,1.28,1.28,2.23,1.28,2.23-.94,3.51-.94,3.51-2.23,1.28-2.23,1.28-2.23,1.28-3.51-.94-2.23,1.28-.94,3.51-2.23,1.28-2.23,1.28-.94,3.51-2.23,1.28-2.23,1.28-.94,3.51-2.23,1.28-2.23,1.28-.94,3.51-.94,3.51-2.23,1.28-2.23,1.28-2.23,1.28-3.51-.94-3.51-.94-2.23,1.28-.94,3.51-.94,3.51-.94,3.51,1.28,2.23,1.28,2.23-.94,3.51-.94,3.51-.94,3.51-.94,3.51,1.28,2.23,1.28,2.23-.94,3.51,1.28,2.23,1.28,2.23-.94,3.51-.94,3.51,1.28,2.23,1.28,2.23-.94,3.51-.94,3.51,1.28,2.23,1.28,2.23-.94,3.51,1.28,2.23,1.28,2.23-.94,3.51-.94,3.51,1.28,2.23,1.28,2.23-.94,3.51,1.28,2.23,1.28,2.23-.94,3.51-.94,3.51,1.28,2.23,3.51.94,1.28,2.23,1.28,2.23,1.28,2.23,1.28,2.23,1.28,2.23-.94,3.51,1.28,2.23,1.28,2.23,1.28,2.23,3.51.94,3.51.94,3.51.94,1.28,2.23,1.28,2.23,1.28,2.23-.94,3.51-2.23,1.28-2.23,1.28-2.23,1.28Z" style="fill: rgb(25, 50, 72); fill-rule: evenodd;" id="object-0"/></g></g></g></svg>