<?xml version="1.0" encoding="UTF-8"?>
<svg id="Layer_1" data-name="Layer 1" xmlns="http://www.w3.org/2000/svg" viewBox="0 0 677.71 1080">
  <defs>
    <style>
      .cls-1 {
        fill: #fbf0eb;
      }

      .cls-2 {
        fill: #aa4e43;
      }
    </style>
  </defs>
  <rect class="cls-1" x="0" width="677.71" height="1080"/>
  <g>
    <g>
      <path class="cls-2" d="M411.39,603.23c.16-5.73,1.98-12.56-4.5-14.27-11.36-2.99-22.87-4.6-34.64-5.81l-21.83-2.25-44.5-4.98-42.96-6.14c-.92-.13-1.55-.69-1.92-1.08-.61-.64-.35-1.93-.19-2.93,2.78-16.73.07-28.71-7.35-43.6-3.35-6.72-6.17-13.51-7.06-21.1-1.27-10.81.94-21.78,6.18-31.58l11.52,8.34c7.76,4.32,16.46,7.36,25.54,7.05,13.63-.46,27.18-10.8,36.23-20.89l12.74-14.21c-2.34-4.81.07-8.88,2.71-12.73,1.38-2.02.77-5.14,3.75-6.8,3.84-2.13,3.07-9.58,8.44-7.82l-.55,2.84c.62-.28,1.1-.73,1.15-.95.07-.33.64-.4.65.05.01.4-.11.85-.56,1.56,3.22.98,5.33,3.89,5.3,7.53l1.07,6.99-.07,6.36c-.04,3.73,1.61,6.21,4.9,8.24,6.35,3.91,10.21,10.03,10.5,17.63.62,16.04-2.84,26.35-13.99,38.35l-14.8,15.91c-14.42,15.51-27.62,24.96-20.17,48.54l29.57,3.03c16.28,1.67,32.14,3.68,47.95,7.19,5.21,1.15,9.07,5.23,10.33,9.83l-3.45,7.68ZM371.44,479.95c.41-.23.46-.49.44-.96l-.38-9.38c-1.74,1.72-.49,3.75-.37,5.47l.32,4.87ZM336.53,514.63c-.74-2.38-1.5-3.86-.69-6.48.46-1.48.87-3.43-.82-4.59-1.81,2.21-4.14,3.01-6.34,4.35l-4.87,5.45-3.59,3.02c-1.95.92-3.87,1.15-5.37,2.77-1.17,1.26-3.68.14-4.78.52-4.07,1.41-7.3,1.02-11.34.41-1.09-.16-2.42-.06-3.05-1.4-2.57,1.38-6.38-1.2-9.06-3.97-.62-.65-2.65-1.03-2.44-2.11l.66-3.38-3.71-1.26c-2.68-1.68-4.48-3.92-6.53-6.12-1,1.1-1.4,2.03-2.91,2.61-.56-1.94-1.78-3.27-3.14-3.08-2.39.33-1.53,3.45-4.09,4.88.99,2.26.46,4.97.71,7.38.85,8.37,4.2,11.82,4.23,14.12.03,2.57,2.5,4.5,2.98,6.7l2.42,11.19-.12,5.1.04,7.44c.63,2.7,1.21,4.75-.98,7.06-.45.48-.74,2.04-.32,2.45.34.33,1.25.75,2.02.86l47.97,6.55c-3.21-9.98-2.36-20.33,3.11-29.04l11.99-15.24-1.48-3.14.9-5.17c-.3-.5-1.09-1.22-1-1.83.07-.46.62-1.21.94-1.75l-1.33-4.3Z"/>
      <path class="cls-2" d="M272.8,419.8c2.84.21,5.56-1.31,6.24-4.62l5.78-1.36c1.63-.38,3.01-.41,3.26-2.62.5.55.95.94,1.46,1.15.47.19,1.49-.08,1.88-.46,1.84-1.84,4-1.5,6.03-2.12,5.35-1.63,10.25-2.74,15.83-3.17,1.28-.52,2.77-2.77,4.75-2.56.59.06.69,1.23.56,2.04-.1.63-1.47.72-2.04,1.36l-9.02,10.06c-.56-1.26-1.14-3.81-2.66-3.71-1.72.11-2.54,3.13-2.89,4.95-1.44-.98-1.27-3.65-2.8-3.77s-1.51,2.13-2.5,2.42c-.75.22-1-1.01-1.39-1.34-2.12-1.81-4.75.76-6.55,1.35s-4.36-.37-6.07,1.67c-1.64,1.94-3.57,1.47-5.81,1.16-1.14-.16-3.46,1.7-4.2-.11-.06-.16-.3-.36-.57-.39-1,.26-2.64.73-3.3,2.08-.32.66,1.5,1.81,2.18,1.46,1.38-.71,2.31-1.61,4.49-1.57-.53,1.3-2.32,2.22-3.45,2.55-1.54.45-2.98-.69-4.15-1.76-2.23,1.88-4.28,1.97-6.55,2.52,1.85.71,3.25-.17,5.1-.35-.1,3.54-4.02.76-5.66,3.67-.58,1.03-1.87.05-2.38.13-1.79.26-2.39,2.65-2.45,3.88-.15,2.94,4.09,5.96,4.52,5.67l1.84-1.24,4.72-.76c3.48.3,6.17-.2,8.95-2.27l5.5-1.21c1.98-.44,2.8-1.81,2.67-3.95,5.61,1.69,6.71-2.44,7.18-2.7,1.15-.62,3.51,1.82,5.04.46.47-.42.75-1.39,1.12-2.41,1.38.49,2.16.54,3.32,1.95l-14.24,9.11-12.42,4.22c-5.63,1.91-15.19-.66-15.26,1.72,0,.36.03,1.17.46,1.47.3.21,1.09-.11,1.81-.52.48,1.91,1.47,2.58,3.02,3.51,5.56,3.34,7.43.53,12.41,1.42,3.36-1.35,7.2-3.26,10.46-3.92,1.6-.33,2.93.33,4.18-1.44.83-1.17,2.21-2.46,3.77-2.61.98,4.24-4.03,3.9-3.14,6.73-3.29,2.26-7.42,3.4-11.32,4.47-3.25.9-6.77,2.16-9.85.49-2.59-1.41-10.9-.73-15.68-7.64-.51-.74-.22-1.67.29-1.97,1.42-.85,3.68,1.04,3.45-.58-.18-1.21-2.53-.03-3.35-2.76-.31-1.02-1.11-1.61-2.2-1.26-.47.15-.75.87-.7,1.64.07,1.03,2.58,1.99,1.7,2.95-.18.19-.75.26-1.63.44-1.56-3.8-4.5-6.71-8.41-8.81-2.48,1.17-4.73-.03-6.01-2.29-.34-.89-.99-1.13-1.52-1.27-.48-.13-1.59.15-1.51.56.25,1.23.93,1.85.26,3.38-.61-2.1-3.56-2.47-4.66-3.61-1.58-3.41.31-7.32,2.26-10.09.26-1.78.71-3.29,2.67-4.39.12-.69,1.04-1.3,1.5-1.18.32.08,1.03.67.94.97l-.44,1.54-2.64,10.39c.37.86,2.7.53,3.06-.8l3.58,3.38c.78-1.41,2.23-1.22,3.3-1.86l8.06-4.82c.29-.17.6-1.22,1.25-.77.34.24.54.74.94,1.26-.1-1.11-.01-2.21.67-2.86.35-.33,4.89-2.33,5.27-1.11l4.02-2.89,1.87,2.19.36-1.63c.13-.59,1.33-.93,1.69.08-.15,1.07-.24,2.14.34,2.46s2.15.3,2.75-.24c.59-.45,1.04.12.39.53.05.13.14.27.23.37Z"/>
      <path class="cls-2" d="M261.3,415.45c-4.84-.1-12.43-2.51-13.7-6.45.24-1.63,3.33-4.24,4.99-3.59l7.96,3.09c1.36.53,4.85-.34,5.54-1.7.68-2.19.46-4.8,2.42-6.37,3.98-3.19,9.08-4.48,14-5.51,1.49-.88,1.39-3.61,1.92-5.16,3.07,11.1-8.2,8.69-10.61,16.07-.13.4-.76,1.06-.74,1.4.04.5.49,1.2,1.32,1.9l-7.46,4.59c-2.26-.93-4.11.09-5.63,1.73Z"/>
      <path class="cls-2" d="M320.91,404.01c-1.27-.92-2.05-2.89-3.56-3.21-2.76-.59-4.26-2.85-6.46-3.96l-13.1-6.63c-.98-.49-1.83-.73-1.29-2.27l4.01,1.93,7.06,2.17,4.48,2.22c4.2,2.08,8,4.65,8.86,9.76Z"/>
      <path class="cls-2" d="M302.54,352.95c-2.85,5.66-14.79,8.09-22.39,7.91l15.43-5.1,6.96-2.81Z"/>
      <g>
        <g>
          <path class="cls-2" d="M422.29,743.77c1.43-4.35,3.93-8.91,8.15-8.9-1.62,4.04-5.02,6.39-8.15,8.9Z"/>
          <path class="cls-2" d="M427.23,767.88c-.63.76-.81,1.41-1.15,1.66-.6.44-1.91.05-2.01-.55l6.77-8.1c.35-.42.57-.65.88-.75.63-.2,1.47.51.91,1.19l-5.41,6.55Z"/>
        </g>
        <g>
          <path class="cls-2" d="M56.67,752.35c-1.87,4.01-10.86,7.93-14.12,7.16l-3.63-2.28c1.42-.09,2.86-.06,2.88-.54l.14-2.68c.92-1.98,3.88-2.16,5.49-1.62-.77.31-1.34.66-1.46.92,3.84.88,6.61-.58,10.7-.96Z"/>
          <path class="cls-2" d="M80.99,715.82c-4.67.45-7.62,3.74-10.48.84.67-1.43,1.94-1.54,3.04-2.22,1.17-.72.93-2.78.2-3.79,3.97-.86,7.96-.88,10.62,2.13-1.58.31-2.65-.64-3.87-1.06-2.72,1.79-6.29.87-4.7,2.55.71.75,2.2-.7,3.11-.52.58.11,1.14.76,2.07,2.08Z"/>
          <path class="cls-2" d="M63.02,725.19c-2.67-1.49-4.05-3.63-3.06-4.49.38-.33,3.63,2.28,8.86-.32-1.52,2.04-3.25,3.59-5.8,4.81Z"/>
          <path class="cls-2" d="M55.38,731.06c-1.4,1.42-3.07,2.11-4.83.88,2.48-3.68,4.18-5.13,7.93-4.05l-3.1,3.17Z"/>
          <path class="cls-2" d="M98.18,725.87l-8.86-3.91c-.79-.86-1.59-1.25-2.17-2.41l7.02,2.38c1.89.64,3.62,1.62,4.01,3.94Z"/>
          <path class="cls-2" d="M175.65,834.93l-8.44-2.03-9.51-3.13c2.37-1.08,4.13.53,6.1,1.05,4.24,1.1,8.39,1.41,11.85,4.12Z"/>
        </g>
      </g>
    </g>
    <g>
      <path class="cls-2" d="M346.69,788.81c-1.21.49-2.66.18-3.59-.59l7.38-21.91,12.85-43.04,13.87-43.62,4.68-12.63c5.94-16.02,13.18-31.23,21.78-45.41l-3.44,11.81c-1.05,3.61-2.2,7.26-4.01,10.61-4.9,9.08-8.73,18.18-12.04,27.91l-10.26,30.24-11.73,37.94-15.49,48.69Z"/>
      <path class="cls-2" d="M397.62,744.25c-.91,3.1-2.2,5.37-2.18,8.16l-16.32-2.37c.3-2.27,1.23-4.36,2.43-6.74,1.27,1.65,2.51,2.09,4.11,1.09.56,1.05,1.34,2.17,2.27,2.03l3.58-.56c2.22-.35,3.98.4,6.12-1.61Z"/>
      <g>
        <path class="cls-2" d="M308.68,1007.26h-4.19l3.85-28.39c-3.99,2.9-7.99,4.92-12.55,3.74.78-1.49,2.3-2.15,3.82-2.84,5.11-2.32,9.34-5.47,12.96-9.83.72-4.36,2.07-8.31,4.4-12.09l3.91-10.1c1.53-3.94,2.59-7.94,3.29-12.47-2.48.76-4.86,2.29-6.07,4.04-1.86,4-3.81,7.79-6.75,11.08-1.2-1.63.17-3.38.12-4.51-.19-4.05,1.44-6.66,3.03-10.04,2.59-5.48,3.2-11.42,4.05-17.97,9.25,4.85,18.44,9.95,27.08,16.18,1.91,1.38,3.79,2.26,4.83,4.62l-6.22-1.17c-2.25-1.31-3.03-1.02-5.26-.7-2.89.41-5.4.63-8.06,2.67-1.77,1.37-4.5,3-5.86,4.98-2.18,3.17-3.59,6.85-4.91,10.39l-3.2,8.57c-1.64,4.38-3.11,8.68-3.82,13.42l-4.45,30.4Z"/>
        <path class="cls-2" d="M296.48,923.04c-1.53,1.85-4.16-1.78-8.4-.09-2.26.9-4.83,1.59-6.48,3.78-.59-.62-2.95.13-2.46.74l6.19,7.76-18.16,5.36c-10.76,3.97-20.48,9.55-29.76,16.21l-15.03,10.77c-5.88,4.21-13.2,10.08-16.56,3.81-2.48-4.63.38-9.76-3.39-10.59,2.16-.29,3.75.17,6.08.51-.3,2.89-.66,6.21,1.32,8.89,4.27-.75,7.05-3.78,10.24-6.01l9.86-6.89c15.06-10.52,32.74-23.13,51.17-23.13l-5.84-2.03-13.11-5.85c-6.95-3.1-13.71-4.1-16.79-6.6l-16.56-13.4c4.01.04,7.15,1.58,10.7,2.59l13.44,3.85c23.25,4.42,41.77-5.72,55.3-24.23,14.24-19.48,17.73-44.35,17.19-68.29-.26-11.23-.9-21.98-2.66-33.1l-1.01-11.4c-.12-1.3,1.23-2.12,1.98-2.18,1.2-.09,2.12.62,2.22,2.01l.57,7.92c3.39,28.69,5.38,60.1-4.5,87.42-1.85,5.11-3.53,9.81-6.74,14.44l27.57,2.24,10.98.79c3.12.22,6.2-.11,9.58,1.23.17.78-.47,1.45-1.11,2.26l-3.74-1.28-7.69-.17c-1.64-.04-2.21-.03-3.59-.18l-4.28-.46-4.12.03c-3.48.03-6.09.92-9.2,1.71-2.19.56-3.56.54-5.57,1.9l-4.68,3.17c-1.87,1.27-3.56,2.4-4.87,4.25-1.51,2.13-3.56,2.14-5.81,2.37-5.49.57-6.17-1.62-6.52-1.59s-1.28.74-1.23,1.1,1.09.93,1.47,1.04l8.13,2.29,18.43,4.72-11.75-.96c-2.9-.24-5.7.47-8.45,1.52l4.33,4.01c-2.4-.44-4.11-.13-5.25,1.63-1.95,2.99-6.65.78-8.7,4.36l-1.47-1.21c-.08,1.39-.57,2.08-1.27,2.93ZM261.48,919.16c.41-1.81.63-2.16.55-3.3-5.59-.43-10.42-2-15.94-3.68l.31,2.8c4.53,3.62,14.14,6.29,18.83,4.37-1.31-.87-2.47-.58-3.75-.19Z"/>
        <path class="cls-2" d="M444.98,954.88l-5.78-.06c-2.91-.03-7.32-1.35-8.56-3.4l15.62-7.12,14.24-5.58c.36,2.31.71,4.94-.12,6.99l-1.53,3.78c-2.2,5.43-8.8,7-13.87,5.39Z"/>
        <path class="cls-2" d="M298.7,970.03c-1.17-.56-2.83.01-3.28,1.26l-1.12-4.85,9.96-3.53,3.79-6.12c.29-.47,1.38.22,1.26.52l-.59,1.48c-.7,5.79-7.47,12.46-10.03,11.24Z"/>
        <path class="cls-2" d="M414.68,896.1c-1.54-.33-3.76.26-5.37.05l-5.99-.75c-.72-.09-2.06,1.32-3.04.05-.1-.13-.78-.26-1.01-.23s-.19.44-.13,1.15c-2.19-1.37-4.49-.76-6.75-1.05-1.89-.24-3.12-.84-5.19-.61-1,.11-3.39-.68-4.04-1.75l29.17,1.87,12.37.62c1.12.06,2.86-.78,4.02.83-2.09,2.11-3.95-.2-9.42.52-1.97.26-2.8-.32-4.61-.7Z"/>
        <path class="cls-2" d="M436.93,921.85c-2.43.84-4.57-.24-6.74-.37l-9.84-.59-8.65-.66-6.11-.07c-2.93-.03-5.59-.76-8.6-.58-2.11.13-3.96.1-5.59-1.01,2.09-.73,3.75.23,5.63.29l11.37.36,11.04.55,14.37,1.03c1.34.1,2.45-.28,3.1,1.03Z"/>
        <path class="cls-2" d="M398.29,950.78c-1.38,1.2-3.37.1-4.68.46-2.77.76-5.35.91-7.05-1.64-.38.47-1.87.68-2.07.07-.23-1.29,1.88-2.29,3.29-2.18l9.86.77c.61.05,1.02.29,1.19.5.33.4.29,1.31-.53,2.02Z"/>
        <path class="cls-2" d="M231.16,974.34c-4.41,1.56-8.73,3.08-11.03.59,3.86-1.06,7.1-2.05,11.03-.59Z"/>
        <path class="cls-2" d="M146.03,945.89c8.27,1.29,9.05,4.35,7.11,3.76l-1.58-.49c-2.18-.67-4.23-1.12-5.53-3.27Z"/>
      </g>
    </g>
    <g>
      <path class="cls-2" d="M285.85,297.81c-4.97-9.01-.24-10.36-4.41-14.61-.64-.65-1.83-2.47-1.88-3.45-.18-3.64-9.44-12.12-16.56-12.68l-1.22-.69c-.19-.11-.81.08-.82.4-.01.34.85.68.35,1.9-1.08-1.54-2.65-1.02-3.84-1.44-2-.7-3.93-1.72-6.2-.29-.97.72.07,3.19.73,4.4-2.24-.9-1.62-3.86-3.45-4.34-.81-.66-1.32-1.29-2.12-1.41-2.02-.29-2.63.73-3.2,1.72-1.24.26-3-.49-3.82-1.52l-1.6,1.2c-.82-1.56-2.51-1.87-3.87-1.55.73.67,1.15,1.27,1.09,1.89-.13,1.4-2.38.16-3.29,1.52-.23.34.22.87.54,1.55.67.93-.46,1.66-1.07.56-.21-.93-1.28-.8-.94.11.42.32.65.98.63,1.19-.03.27-.96-.15-1.25.19l-1,1.17c-.17.2-1.02-.94-1.49-.97-.57,1.29-1.28,2.84-2.94,3.43.16.78.75.91,1.2,1.41-1.46-.2-3.68.21-3.64,1.17.11,2.82-2.87,2.78-4.37,3.66-1.18.69-2.09,1.24-3.67,1.86s-2.88,2.81-4.85,3.22c-1.66.35-1.62,2.21-1.89,3.08-3.28.16-8.07,9.14-8.46,11.45-.97,5.81-2.89,11.29-2.81,16.74l.22,14.62.47,9.22c.15,2.86-.24,5.7,1.27,8.4,1.45-1.85,2-4.3,4.17-4.86l3.71-.96c2.38-.62,4.03-.28,6.25-.98,2.84-.9,6.48,1.14,9.21.83s9.02.31,10.54,1.89l10.02,10.43c1.73,1.8,3.21,4.21,3.21,6.72,0,.69-2.02.38-2.45-.61-1-2.26-3.35-4.09-5.91-2.52,2.33,1.48,4.65,1.83,5.48,4.79-2.79-1.29-5.42-2.39-8.68-3.09.38,2,.46,3.26-.31,4.93-.56,1.22-2.2,1.49-3.95,2.13-2.23.82-4.61,2.72-7.13,1.4-1.88-.98-2.34-3.33-3.49-5.47-1.44,2.24-1.53,4.68-.64,7.51.79.2,2.46-1.37,2.75,1.14-3.46-1.17-7.09,1.71-7.24,2.09-.38.97-.35,2.45-.2,3.9,8.94,2.12,14.56-3.02,22.71-5.59-5.45,5.54-14.61,9.5-22.47,7.37-3.49-.95-6.26-6.55-11.31-4.13-.65-2.46-1.4-2.95-2.61-4.94.93-.3,1.22.07,1.94.32l-.53-1.65c-.31-.96,2.3-1.22,2.3-1.77,0-.3-.57-.8-.92-1.3.76.07,1.22.52,2.45.23-.45-.52-.69-1.11-.52-1.74.11-.39,1.13-.23,1.7-.04,1.88-2.02,3.71-5.14,6.47-6.13l5.45-1.96c.04-.2-.76-.53-1.21-1.11l3.24-1.98c-.94-2.72-2.79-3.46-5.26-3.28l-7.91.57c-1.48,2.79-3.74,4.06-5.89,6l-2.51,4.11c-1.02,1.67-.93,4.11.6,5.36l-2.05,1.47c2.87.99,2.06,2.71,2.43,4.39,1.21,5.53.45,8.63.52,11.03.12,4.48,2.87,8.81,2.09,13.35-.21,1.23-1.18,2.08-.52,3.62l-3.2-3.02c.93-.33,1.33.36,2.32.86.32-1.99-.99-3.59-2.16-5.11-.41-3.67-1.19-7.12-2.68-10.4.55-3.96.34-7.74-2.05-11.44-.93,1.64-1.46,2.73-2.99,2.64-.26,1.34-.3,2.62-1.24,3.97.11-2.56.96-4.93.2-7.39l-.64,2.33-2.06,1.3c-1.21,2.06-1.49,4.5-3.79,5.52.34-1.27,1.93-2.33.07-3.77-.98,3.14-2.47,5.38-4.08,7.74l-2.72,3.99c-.56.83-1.53,1.02-1.81,2.24-.26,1.11-.46,1.72.64,3.1-3.73,2.36-2.48,4.57-4.3,4.42-1.5-.13-1.55-.7-1.63-2.15l-.41-6.65c-.02-.39-.66-1.4-.4-1.64.48-.44,1.09-.58,2.42-1.06-2.2-1.16-1.13-3.43-.47-4.91-3.89-5.07,1.71-6.3,2.22-11.99l1.06-11.77c.23-2.5,1.95-5.05.44-7.66-.84-1.45.67-2.51.88-3.41,1.41-6.15-.11-12.25.2-18.47l.93-18.82c.14-2.86,1.08-5.61-.31-8.48,1.4-2.22,1.59-4.54.03-6.38,2.13-15.82,5.38-29.89,16.15-41.08.58,2.31-1.21,2.67-1.63,4.09,2.83-.6,3.96-2.93,5.96-4.49l4.18-3.26-3.19-.79c1.47-.86,2.28-1.02,2.8-1.99.62-1.17,1.18-1.89-.54-3.14,3.26-2.33,6.2-1.1,6.84-5.08,2.06.35,3.31.85,5.73.43-1.91-1.23-1.26-2.1-.77-3.29,1.09-2.64,3.28-.53,3.27-3.25,0-.34,1.16.03,1.55.23l2.81-3.71c1.81-2.39,6.88-.21,11.52-3.89,2.01-2.88,6.15-4.2,8.86-2.74.41-.51,1.73-2.1,2.32-1.65,1.35,1.06,1.75.54,3.19.4l9.09-.85c2.59-.24,4.08-.67,6.56.03l5.93-.3c2-.1,3.58-.65,5.2-.83l5.85,1.37,6.23.58c8.03-.36,15.51,1.18,23.06,3.89,3.28,1.18,6.39,2.04,8.92,4.8l3.62,2.27c1.19,1.69,5.48,3,7.13,5.19,1.07,1.42,2.15,2.14,3.54,3.39l6.14,5.51c-.61,3.64,3.2,3.37,2.37,6.02,3.15,1.36,5.35,4.16,6.73,7.47,2.06,1.18,3.6,2.98,3.16,5.45l6.46,10.11,4.03,5.46c-2.79,3.24,4.78,3.63,4.25,10.15-.02.29.81,1.04.63,1.26s-.86.47-1.59.62c2.05,2.01,3.22,4.79,2.64,7.89,2.04,1.63,3.12,3.54,2.43,6.03,2.14,1.57,2.49,3.51,2.38,6.24.89-.69.7-1.68.64-2.48,1.83.66,1.7,2.64,2.49,3.89l2.66,4.23c.84,1.34,1.84,2.05.45,4.04,1.86,2.29,3.13,4.7,3.8,7.45,2.2.65,2.84,2.53,2.76,4.73.35.54.32,1.89-.11,2.07l-1.57.67c1.35,1.61-.37,3.4-.49,4.57-.4,4.07,1.62,8.92,1.32,12.42,1.58.81,2.14,2.96.59,4.38.17.72.5,1.3.17,2.38-1.82-1.31-2.17-2.98-2.58-4.99-.8.66-1.5.41-1.4-.03,1.04-2.55.03-4.5.11-6.59,1.51.6,1.87-1.05.49-.89-.9-.57-1.64-1.41-2.89-.51,1.79,1.39,1.84,6.67,1.82,6.7-.21.4-1,.35-1.48.28.19,1.37,1.56,1.95,1.83,2.56.58,5.07,5.83,3.81,4.79,6.95-3.09-1.12-3.36-3.01-4.61-3.39-2.52-.76,1.25,2.89,1.61,4.46l1.14,4.98c-3.88-3.11-4.26-10.6-9.75-13.35.29.7.74,1.65-.1,2.1-2.53-2.34-3.89-4.87-6.49-4.12-1.13-2.58-3.59-3.73-6.32-3.26-3.8-2.67-7.44-5.04-11.66-5.63,1.02,1.56,3.2,2.01,3.64,3.42.37,1.16.95,2.61,2.5,2.56,2.35-.08,2.46,1.73,3.45,2.5,8.1,6.28,8.8,11.92,10.39,13.48,2.74,2.7,5.09,4.72,4.83,9.85-.09,1.86.84,4.06-.59,5.55-.21-1.96-1.52-.87-.61.13l-.13,1.14c-.05.46-1,.51-.98.14.18-3.6-.74-6.55-2.33-9.66-.75.79-.77,1.65-.88,2.87-.46,1.02.54,1.18.64-.11,1.61.65.62,2.12.72,2.99.53,4.74,1.16,9.04.67,13.4-2.56-.68-4.51.54-5.8,1.9.97,2.59-1.09-.19-3.87,1.28l-.87-12.85.37-1.05c.08-.21-.19-.58-.59-.75-.35-.16-.92-.18-1.32.92-3.86-1.51-4.5-4.42-7.22-6.81-1.66-1.21-2.28-3.05-1.43-5.17-2.05-1.54-2.08-4.23-3.16-6.09-1.36-2.33-1.84-4.26-2.5-6.76-.35-1.32-.81-1.43-.34-2.82.72-2.11-2.32-4.23-3.1-5.73-1.47-2.83-3.74-4.27-5.36-6.47-2.12-2.89-3.69-5.49-6.74-7.58-4.31-2.96-6.68-11.99-9.84-8.95-3.99-3.05-9.88-3.32-15.15-7.12-5.07-.71-8.98,1.45-13.53,1.57-.84.94-2.3,1.85-3.86,2.46-1.66.65-3.31,2.35-5.17,3.32-1.97,1.03-3.36,3.74-4.9,5.04,3.3,1.98,6.39.56,8.83-1.51,2.09.66,4.39.66,6.66.42l6.86-.71c2.61-.27,6.21.78,8.73,1.23.49.99.87,2.6,2.84,2.23-.19,1.37-.95,1.65-2.2,2.95l5.92-.3c-.19.75-.38,1.14-.6,1.41-.16.2-.23.83.2.75l1.98-.34c-1.08.28-1.19,1.84-1.69,2.28-1.4,1-3.78,2.49-5.46,2.88-7.28-.9-8.58,4.15-10.59,1.31-2.78,1.38-5.79,3.63-9.14,3.48-2.8-.12-4.69-4.46-4.21-6.97-2.28-.51-3.07,1.28-4.02,2.59l-3.65,5-3.56,4.29c-.72-2,.5-2.91.71-4.76-1.69.79-2.47,1.59-4.34,1.43-.39.64-.52,1.28-.71,2.26-1.64.4-3.44.04-4.98-.97-.83-.55-2.3-7.55-.25-9.29-1.08-.24-1.36.32-1.77.4-.81.17-4.04-5.69-3.07-8,.75.81.63,1.59,1.01,1.65.68.12,1.04.71,2.12.12-.77-1.7-1.15-3.23.16-4.73-.94-3.47,6.86-.33,9.85-8.13,2.02-.74,4.32-.6,6.16-2.1,3.27-.7,6.52-1.63,8.99-4.28,3.08-.24,5.95-.86,8.47-2.38l6.01.95c1.94.31,4.66-.28,6.32.98,2.46,1.88,4.56,3.74,7.57,4.79l1.2.89c.44.32,1.34-.37,1.33-.8-.04-3.78-8.31-10.53-13.17-13.35l-10.09-5.84c-2.95-1.71-4.58-3.88-6.21-6.83ZM301.44,267.96c-2.36-2.47-4.05-4.78-7.3-6.52l3.85,5.9c.79,1.21,2.04,1.99,3.45.62ZM283.37,264.62c-.61-.7-2.01-1.26-2.97-.92l12.14,13.25c.26-.3.39-.66.51-1.09l-9.68-11.23ZM319.34,308.04c.3.13.82-.45.77-.74,0,.05-1.87-5.12-1.47-4.39l-3.31-6.04c-.14-.26-1.07-.46-1.37-.35-.5.18.46.96-.1,2.05-1.41-1.36-2.09-3.31-3.28-5.21-1.39-2.21-3.69-4.29-4.36-6.74-.53-1.94-1.81-2.29-3.07-3.61-5.25-5.51-7.51-12.35-13.1-15.89l8.98,13.42,3.71,5.38c.59.22,2.31.25,2.11,1.1l-.44,1.87c.63-.12,1.09-.19,1.42-.14.55.08.65.8.86,1.1,2.84,3.95.1,8.32,4.08,7.63.95,3.43,1.45,5.81,2.08,4.16.06-.17.35-.53.68-.64l2.16,3.6c1.43-4.32.99-1.31,3.66,3.43ZM317.15,287.47c-.77-2.25-2.46-3.59-3.9-5.28l-11.35-13.25c-1.25,1.81,1.36,2.65,1.83,3.47,1.13,1.94,2.19,2.67,3.46,4.16l9.74,11.37.23-.47ZM314.05,295.35c.77-1.5-1.14-2.03-1.32-2.73-.39-1.52-1.56-2.67-2.27-3.88-2.67-4.55-4.41-9.9-9.01-12.78,2.46,5.97,6.39,9.95,9.19,14.95.97,1.74,1.59,3.47,3.42,4.43ZM317.56,287.97l-.41.68,8.43,10.13c-.11-3.06-2.82-4.94-4.66-7.02l-3.36-3.79ZM332.43,308.04c.15,1.03.53,2.25,1.93,2-1.91-3.08-3.52-5.91-5.98-8.34-.59-.07-.8,1.28-.11,1.33.2.01.63.42.75.67-.08,2.06.7,4.16,3.42,4.34ZM182.63,332.05c.91-3.88-.03-6.49-.33-9.79-.14-1.56.67-3.42-1.05-4.33-.63,2.26.16,4.18.34,6.25.25,2.87-.04,5.45,1.03,7.87ZM292.91,337.88c1.24-.19,1.94.23,2.52-.36,2.45-2.47-7.21-2.56-14.38.09.39.74,1.2,1.89,1.87,1.79l9.98-1.52ZM277.62,341.49c.85.03,1.12.27,1.47.4.3-1.24-.64-2.08-1.5-2.35-1.41-.44-3.87,3.6-2.35,6.06,1.39-.84,2.35-2.2,2.38-4.12ZM226.43,358.81c.25-.31-.65-1.7-.91-1.54l-1.09.67c-2.43.16-4.53,1.05-6.41,2.19l8.42-1.32ZM226.9,362.67c-1.57-.67-3.45.91-3.24,1.77.24.98,1.95,1.11,2.83.57.61-.37,1.74-1.77.41-2.34Z"/>
      <path class="cls-2" d="M174.64,414.36c-.81.86-1.61-.24-1.87-.83-1.1-2.46,2.24-3.02,1.23-5.82,2.17-1.16,2.82-3.13,4.9-4.77-.88,4.37-3.22,7.3-3.72,11.04,0,.02.04.06.09.12,2.03-1.94,2.78-4.34,4.21-7.46.87,3.33,2.74,5.8,4.2,8.69.96,1.89,1.02,3.61,3.18,4.97,1.49.94,3.23,2.01,4.09,3.88-1.49-.4-2.15-1.5-3.93-1.14,1.28,3.95,6.17,6.34,10.63,7.74-.23.95-.47,1.41-.1,2.33-6.92-1.46-16.4-6.5-20.27-12.75-.92-1.49-2.57-3.37-2.14-5.39l-.51-.6Z"/>
      <path class="cls-2" d="M196.72,415.77c-3.76-7.47-6.34-15.01-8.91-22.95-.7-2.17-2.03-4.12.49-6.12,2.85,13.79,8.69,26.11,14.59,39.29-3.76-2.36-4.4-6.73-6.16-10.23Z"/>
      <path class="cls-2" d="M383.61,334.9c-.75-1.36-1.76-3.17-2.07-4.16-.08-4.24-1.76-7.52-3.91-11.62,6.36,1.27,8.88,9.19,5.99,15.78Z"/>
      <rect class="cls-2" x="359.68" y="356.72" width=".43" height=".43" transform="translate(-146.98 359.09) rotate(-45.01)"/>
    </g>
  </g>
</svg>