<?xml version="1.0" encoding="UTF-8"?>
<svg id="Layer_1" xmlns="http://www.w3.org/2000/svg" version="1.1" viewBox="0 0 2873 4313">
  <!-- Generator: Adobe Illustrator 30.4.0, SVG Export Plug-In . SVG Version: 2.1.4 Build 226)  -->
  <defs>
    <style>
      .st0 {
        fill: #aa4e43;
      }
    </style>
  </defs>
  <path class="st0" d="M2082.29,3429.58l13.39,3.86-4.46,9.81c-.68,1.49-3.4,6.34-1.92,6.94l8.29,3.41c-1.45,5.62-8.93,12.33-12.86,17.39l-5.46,7.04c-8.36,10.77-23.39,12.69-35.94,16.72l-23.05,7.4-70.99,27.05c-32.86,12.52-65.93,19.49-100.93,21.84l-71.41,4.8-39.82-.58-28.58.95-43.95-1.82-76.32-2.53-185.22-3.73-89.06-4.7-71.94-3c-7.94-.33-15.42-4.78-21.85-7.41l-7.17-2.94c-4.71-1.93.45-19.42-14.17-18.31-9,.68-14.13-4.79-18.03-11.28l-23.49-7.29-32.47-10.72c-6.52-2.15-13.57-1.77-19.89-4.39l-16.95-7.02c-10.45.99-22.26,1.13-31.35-3.25,2.3-11.2,11.91-17.18,21.93-15.38,8.75,1.57,14.26-3.67,19.91-9.35l14.16-14.22c3.82-3.84-1.13-15.79-4.34-19.95l-9.79-12.64-13.18-13.75-16.54,1.78-27.47-3.76-9.55-1.02c-2.54-.27-4.96-8.38-2.62-9.46,11.65-5.39,21.48-2.54,23.95-10.49,3.61-11.63-13.49-5.11-24.55-18.77,12.66-19.84,28.02-9.59,32.38-13.23,2.06-1.73,4.14-5.75,5.73-9.14-7.49-7.25-14.6-4.17-22.91-.09l-18.06,2.61c-11.96,1.73-22.43-6.25-38.17-8.3l-4.83-.63c-.87-.11-2.14-3.17-1.33-3.49l5.89-2.33,7.42-18.73-10.65-1.96c4.02-5.06,7.28-11.11,7.47-16.87-6.62-2.35-12.12,1.3-17.76,3.9l-16.8,7.72c-3.75,1.72-12.26-2.55-16.72-3.36-7.96-1.45-14.42-2.86-20.21-8.07l-13.71-12.34-13.76,1.86-2.24-7.2c-1.61-5.19-13.84,5.72-33.73,3.13-3.78-.49-7.31-2.99-10.77-4.55l-32.52-14.63-8.14-21.68c-13.99,0-25.92-2.72-34.4-14.69,1.53-3.41,5.24-11.29,8.41-13.77l28.09-21.89c35.54-22.66,73.47-38.26,113.64-50.82l89.55-22.81c64.39-12.77,128.51-19.52,194.17-23.42l23.25-1.38c148.56-6.09,296.53,6.14,442.62,34.51,119.21,23.15,252.23,59.95,354.85,124.36l1.27,1.76c-4.16,3.15-4.35,3.29-3,2.27,11.33,4.7,16.24,6.26,26.61,13.72-9.59,2.35-14.67,1.26-23.09.66l-29.13-2.07c-1.29-1.05-2.5-2.09-2.74-1.51l-2.49,5.95c-16.72,5.5-21.55-14.38-46.62-14.63-14.5-.14-24.91-7.44-36.5-17.87-2.9,7.87,1.73,14.32,7.73,18.43,7.42,5.09-6.69,8.78-19.63-7.62-3.85-4.88-13.83-6.77-17.76-5.29l.78,24.61,2.98,19.94c.85,5.72-.12,10.62-4.42,14.54l12,13.12c-11.75,1.57-18.68-1.58-27.53-5.98l-19.75-9.82c-6.74-3.35-19.85-3.07-26.61-4.2-3.45-4.74-6.4-7.66-9.99-9.39l.41,10.59-30.18-4.03-35.68-4.77c1.36,4.65,7.12,9.14,12.77,9.85l20.14,2.53,4.84,1.25c.88.23,2.13,3.3,1.28,3.61l-6.38,2.29,4.66,15.72-7.22-4.09-14.99.86c-10.31-3.98-20.34-1.52-29.47,4.55-5.42,3.6-12.57,5.98-8.89,14.56,4.45.06,6.4,5.03.22,3.96-6.31-1-14.01-.75-18.23,2.85-3.49,2.98-3.76,15.07.89,16.89,6.46,2.52,15.3,4.15,20.77,3.96l31.68-2.83,24.54-.43,28.33,3.97c7.01.98,13.42,3.42,19.94,6.38,15.04,6.84,22.65.52,24.12,12.2l22.11,5.77-10.01,17.47c-1.01,1.77-1.7,5.41-2.52,9.56,4.9-.12,7.41-1.98,10.96-5.1l20.72-18.22,7.85,16.25c4.34,8.99,14.01,16.76,21.03,13.1,9.97-5.2,18.27-8.57,29.51-11.36.65,3.18,1.05,5.15.88,4.3-7.46,1.49-9.13,3.06-9.58,8.88l25.24-4.36-14.57,11.25c.17,4.8,8.6,6.61,14.56,3.42l3.26,3.4-9.15,12.04c-.42.55.42,4.1,1.11,4.02,7.44-.91,8.51-5.49,23.22-6.81l4.79-.43c4.62-.41-6.2,7.85-3.08,14.98,12.76-2.76,9.77-20.72,32.66-21.73l9.32,14.88c14.5,8.97,32.42-13.27,40.72,1.97l1.21,2.21,11.08-5.94ZM1381.27,3080.76l20.29.69c16.63.56,34.45,5.99,50.65-4.61l-81.33-4.3c-1.4-.07-5.08.32-5.34,1.52l-1.22,5.7,16.94,1ZM1481.66,3079.35l-19.88.37,19.5,6.5c.98.33,4.28-2.39,5.1-3.01s-3.66-3.87-4.72-3.85ZM1355.29,3079.28c1.81.23,6.89-3.58,5.63-4.64-.95-.8-5.04-2.85-6.64-2.84l-35.53.25c2.16,3.12,4.58,3.24,8.97,3.79l27.57,3.44ZM1447.88,3102.21l-3.78,12.38,3,.92,3.78-12.38-3-.92ZM1428.73,3158.57c4.1.7,13.4-1.68,16.08-3.2l3.65-23.32c-1.42-.38-6.75-1.77-6.36-3.22l2.03-7.49c-3.87-1.77-12.22-6.03-16.83-6.17l-30.23-.92c-.37,2.77.29,9.87,3.05,10.54l11.68,2.81c-3.8,9.38-2.82,21.32,3.29,28.62l13.65,2.34ZM1469.4,3119.21l-18.3.33c-2.74.05-4.12,8.05-1.92,9.98l20.21-10.31ZM1498.52,3125.25l-2.27,5.34,10.36,4.41,2.27-5.34-10.36-4.41ZM1599.77,3223.28c-4.75,1.33-9.64,1.69-14.71.34-.95.5-3.89,2.84-4.34,1.73l-2.1-5.19c-.94-2.32-5.16-6.14-7.74-6.77-2.11-.52-5.15,4.01-6.84,5.4l-27.55,22.7-3.83-24.22-9,1.23c.11-5.19-.07-9.75-2.6-12.79-4.87,19.28,15.41,35.13-4.83,44.45l-5.69-19.84-9.97-7.93-4.75-22.73.68-24.44-9.94,19.13c-13.73-7.6-22.19-7.71-35.22-5.57-1.98-.6-6.59-2.07-7.07-.27-2.5,9.24,2.23,16.02-1.68,16.89l-8.47,1.88c-3.01-6.4-6.89-11.53-12.28-14.87l-23.69-14.69-7.59,10.94-18.01-.2-20.92-2.2c-9.93-1.05-13.24-14.32-11.95-24.46l-10.33,2.95c-1.66-3.19-6.14-7.65-9.93-9.21l-15.45-6.35.86-14.69c1.21-20.77,15.43-13.19,32.15-21.98l-22.76.77c-9.2.31-14.18,12-17.95,19.03-3.31,1.54-8.34,4.16-9.84,5.56,6.42,23.54-13.99,11.06-39.84,23.77,11.64,4.09,20.08,2.61,31.93,1.11-2.19,6.65-4.67,10.14-8.7,14.38-6.63,6.97-7.57,20.72-.69,28.66,4.86,5.6,14.06,4.98,22.05,3.55l1.66,10.07,13.46,16.27,19.15-2.35,13.31,14.46,25.41,2.91,18.09-12.15c6.9,8.1,15.85,8.58,26.11,5.21-.65,10.9,2.03,16.75,7.6,22.37,8.05,8.11,15.62,12.91,27.57,11.48,17.02-2.04,18.98-11.8,33.04-15.01l17.68,5.58c7.55,2.38,14.7,2.63,22.26.32,6.05,21.06,32.02,27.67,51.71,24.88,7.34-1.04,13,3.65,13.93,9.73,2.41-13.95,15.54-9.9,28.86-29.33,2.06-3.01,10.78-3.45,14.39-4.28,7.47-1.72,12.07-2.53,19.65-.77,2.38-12.35-5.08-25.35-17.99-29.21l-8.32-21.55-18.94,5.32ZM1452.35,3143.48l-.31,13.37c9.55-7.8,15.07-12.65,19.52-21.89l-12.88,11.56c-.9.81-3.5-1.05-6.32-3.03ZM1499.23,3150.67c2.79.15,3.35-8.35.84-9.46s-7.33-2.21-9.45-1.2c-2.12,1.01-2.16,6.6-1.71,10.11l10.31.55ZM1577.49,3165.16c4.26-.42,7.33-1.04,8.9-2.61,1.31-1.31,1.11-7.47-.47-8.69-4.52-3.48-16.98-5.39-23.02-2.61-1.8,7.47,5.95,14.77,14.6,13.91ZM1627.74,3197.03c4.24.07,11.36-2.29,13.8-4.87,2.3-2.42,3.55-8.93,2.87-12.55-6.27-3.29-11.58.08-20.55,4.49l9.94-12.1c1.43-6.57-4.88-17.34-13.43-17.45-5.6-.07-19.25,13.42-17.71,22.92.54,3.31,4.57,9.76,6.57,10.51,3.83-.82,8.31-1.7,8.78-1.64-.9,3.81-2.63,10.46-.45,10.5l10.19.18ZM1416.87,3173.85c-1.46-10.98-9.65-25.01-15.85-32.5-2.55,8.58,1.27,13.58,5.5,19.08l10.35,13.43ZM1471.61,3157.88c1.61-.05,5.79-1.51,5.61-3.04-.14-1.18-.64-5.48-.53-4.53l-13.13,2.14c-1.48.24-3.1,5.74-1.55,5.7l9.61-.27ZM1496.96,3171.85c2.17-1.74,4.79-7.23,2.91-8l-6.98-2.87,4.06,10.87ZM1611.71,3208.51l-10.4,3.65,7.42-8.77-10.59-2.47c1.62-5.55.88-9.82-2.57-11.87-3.92-2.33-9.57-2.57-12.28-.9l1.68,22.61c4.35.16,8.12.26,8.3,1.91l.76,7.2,16.35-4.01c1.34-.33,4-2.24,4.87-3.11s-2.33-4.67-3.54-4.25ZM1583.29,3322.48c12.27,6.34,19.65-1.48,23.49-10.6,11.16-5.29,19.03-14.61,23.4-26.07l-1.24-8.41c-.26-1.74-6.97-.53-8.14.73-13.28,14.36-26.2,12.02-29.79,22.28l-7.72,22.07ZM1581.67,3365.46l5.73-7.21-5.7-14.62c-2.34-2.84-14.45,3.08-13.24,7.4,1.84,6.6,8.31,11.71,13.21,14.43ZM1617.48,3377.98c9.01-10.71,7.38-22.86-3.41-29.72-2.86,7.34-2.43,14.14-.08,20.4l3.49,9.31ZM1377.7,3533.22l27.1,4.89,64.99,5.64,25.95.68,48.08-1.5c11.91-.37,25.08,5.78,36.63-4.91l-54.53-3.31-28.14-.86-34.02-1.3-35.98-1.85-50.02-.81-4.18-.03c-.68,0,3.29,3.2,4.12,3.35Z"/>
  <path class="st0" d="M1917.17,3291.7l-13.09-.3c-11.16-1.08-10.95-15.51-12.64-23.78l-3.57-17.51c8.11-1.54,13.32,6.29,15.04,12.07,1.93,6.51,8.78-.24,17.52,6.5,3.95,3.05,3.4,23.17-3.27,23.01Z"/>
  <path class="st0" d="M2773.36,3250.41l-12.25-11.56c-.48-.45.16-4.37.7-4.75l3.34-2.33c-3.71,2.58,10.77,10.48,8.21,18.64Z"/>
  <path class="st0" d="M2759.73,3218.26l-5.73-5.64c-.49-.49-2.6-2.07-2.22-2.64l3.5-5.24c4.09,3.06,6.62,6.63,4.45,13.52Z"/>
  <path class="st0" d="M1951.94,3251.42c-4.92-2.25-8.44-5.2-11.86-10.72,5.47,1.32,9.41,5.17,11.86,10.72Z"/>
  <path class="st0" d="M2762.49,3230.07l-1.93-9.85c4.65.34,6.9,6.01,1.93,9.85Z"/>
  <path class="st0" d="M925.09,2436.59l-4.14-19.84c8.88,2.86,10.53,12.25,4.14,19.84Z"/>
  <path class="st0" d="M928.08,2439.64l-2.13,12.93-3.17-6.38c-1.26-2.53,2.14-7.64,5.3-6.55Z"/>
  <path class="st0" d="M925.26,2572.14c-3.69-.3-3.05-7.8.64-8.04,1.18.06.59,7.2-.64,8.04Z"/>
  <path class="st0" d="M1386.39,2941.64l9.51,6.53,10.36,8.6c-13.32,1.66-24.79,6.97-33.52,17.93-21.74-13.56-48.34-22.75-73.13-20.09l-38.71,4.16,17.83-46.14c4.36-11.28,16.1-19.75,28.21-23.73-1.01,10.56-7.33,19.04-9.87,27.78l-5.43,18.7c-.84,5.14,11.05,9.28,15.92,3.82,5.03-5.64,13.94-14.4,21.27-14.67,18.22-.67,44.05,7.82,57.56,17.1Z"/>
  <path class="st0" d="M1557.36,3008.55c-6.51,4.38-10.78-8.05-30.64-6.84-5.05-.93-11.75-4.42-17.58-3.87-5.51-10.83-18.6-6.98-26.74-9.32l-28.07-8.07-19.22-9.34c-7.59-3.69-15.15-5.73-20.47-10.72l59.79,21.94c10.12,3.72,22.66,2.25,32.41,6.83,9.2,4.32,16.9,12.47,29.49,4.92,2.38-1.43,2.16-17.34,5.84-14.74,6.15,4.34,5.08,14.77,15.2,29.2Z"/>
  <path class="st0" d="M1014.53,3008.93c-1.23-.67-5.29-2.63-6.68-1.51l-6.33,5.1c-6.22,19.26-20.77,33.84-39.76,40.15l-52.61,16.03c8.24,1.02,15.64-.15,23.72-1.71l3.61-.7c.7-.14,1.77,1.94,1.24,2.43s-2.68,2.45-3.44,2.61l-40.4,8.34-53.27,22.11c-28.02,11.63-54.3,26.46-84.13,33.24l-21.27,4.84-32.86,5.33-37.17,7.82c-1.72.36-6.72-2.47-7.59-3.47-1.16-1.33,3.12-4.42,4.94-4.64l27.49-3.24c10.96-1.29,18.71-2.53,29.66-5.24l32.97-8.18c10.1-2.51,19.06-7.03,25.14-16.63-7.51-3.38-13.98,2.52-19.95,3.3l-15.4,2.03c-10.66,1.41-18.4,3.18-30.22,6.9l6.6-14.62c-33.92-5.39-67.18-8.26-100.52-5.01-6.4.62-11.1.95-17.34-.2l-9.5,1.55c5.16-13.21,18.51-16.99,31.11-18.46l35.44-4.12c3.94-.46,8.03-.75,12.01-.63l21.29.66,20.53,1.15c11.58,4.32,18.65,3.75,28.7-2.79l12.75-8.29c1.82.95,7.14,2.01,10.76,2l20.15-.02,17.64-1.16,19.37-.54c5.59-2.77,9.41-2.82,15.44-4.05l37.07-7.59c5.93-1.22,10.08-2.73,14.93-7.64,20.04-3.32,39.98,6.87,54.8-16.02l-12.68-10.4c-43.05-12.42-86.12-13.8-130.56-11.87l-40.42,1.76-54.25-1.04-58.29-1.67c-17.64-.51-36.18.43-52.99-3.98l-29.76-7.81c7.08-3.56,13.09-3.23,20.06-2.67l41.34,3.37c5.31.43,9.89-.23,15.1-.76l24.04-2.43,63.97,4.52c3.31.23,7.82-3.6,10.02-6.69,19.82-.95,40.58-10.94,32.19-1.7l-4.61,5.07,25.04-.48,22.82,1.14,16.77-2.2c28.82-3.77,70.8-5.91,97.2,4.45l25.71-4.93,12.19.59,30.04,2.66c5.39.48,11.88-2.99,16.17-6.34l3.96,11.18c.11.3.37.6.91,1.28,3.49,4.42,1.93,11.88,1.55,18.35-.89,15.25-5.93,23.82-21.58,27.64-3.72.91-8.83,10.01-16.09,1.3l14.93-6.23,13.17-23.3c3.19-5.64,6.04-9.79,6.58-16.44l-1.46-1.52ZM992.14,3011.04c-9.83-4.37-18.97-5.09-28.21-3.6,7.53,8.94,20.1,9.95,28.21,3.6Z"/>
  <path class="st0" d="M831.48,2930.29c-30.12,6.19-59.63,3.13-89.23-.25l-84.2-9.62c-17.09-1.95-34.2-6.1-49.73-12.37l-24.2-9.78c-1.9-.77-5.34-4.47-4.79-5.43l29.31.45c7.56,3.31,15.59,4.02,22.42-.72l44.54.72,20.3-.59,31.32,6.2,21.85,3.88c25.83,4.59,50.36,8,76.74,6.07,5.79-2.71,12.48-9.79,16.93-15.01,16.17,1.52-.17,19.8,10.41,24.81,3.75,1.78,9.01-1.08,11.19-4.51l8.96-14.11,26.01,8.88,40.76,5.52,20.06,6.03c6.68,2.01,9.19,3.45,17,.87,3.55-1.17,3,11.63-.29,11.07l-29.39-5.04c-11.54-1.98-22.25-3.7-33.98-3.63l-19.99.11c-21.42.12-40.36,2.01-61.99,6.45Z"/>
  <path class="st0" d="M500.35,3024.58c-1.36,2.69-7.32,7.76-6.38,10.8l10.3,33.4c-9.26.31-9.84-9.26-13.55-13.05-6.21-6.34-13.36-11.73-17.77-18.72-12.58-19.97-16.21-42.61-8.03-64.74l13.05,9.82c7.75,5.83,18.12,12.28,28.01,11.82,8.49-.39,14.92-.96,18.74,9.68l-18.02,7.04c-2.36,2.02-4.38,10.04-6.35,13.95Z"/>
  <circle class="st0" cx="553.87" cy="3107.11" r="3.69" transform="translate(-2592.8261 3350.4413) rotate(-84.3146)"/>
  <path class="st0" d="M1320.9,1282.28l1.8,14.04-6.09,2.28c-1.49.56,1.93,6.17,3.38,5.75l14.37-4.1-3.35,4.37c-.84,1.09-.51,2.37-.1,6.79l-29.95,11.12-9.61,5.79c-2.13,1.28-6.41-2.71-7.7-4.32l-4.91,5.76c-1.01,1.19-7.42-.43-6.97-1.93l2.16-7.11-25.1-6.26-2.57-5.69c-3.14,2.41-11.42,1.4-14.86-1.16-3.13-2.33-4.83-10.26-4.28-14.31l.99-7.27c.22-1.59,5.69-1.35,7.4-1.35h6.2c4.32.02-.98-14.19,10.23-21.88,1.04-2.41,3.36-7.13,5.17-8.95l11.3-11.35c3.25-3.27,7.1-6.06,11.28-8.58l25.75-15.48,15.09-8.57,8.06-3.78,10.22-2.88,27.32-6.39,43.15-9.06-18.95,14.09c-2.93,3.98-7.34,9.59-11.54,12.13l-14.84,9-2.89-4.19c-.77-1.11-3.73,4.44-3.76,4.92-2.38-2.37-7.95-4.66-11.42-4.1l-10.32,1.68c8.76,10.58,9.3,22.73,4.61,34.97-4.77,12.45-13.49,19.1-27.43,16.76-18.88-3.16-22.45-20.25-25.26-17.58l-5.86,5.56c-5.69,5.4-9.39,13.37-5.58,20.35,3.83,7.03,9.31,12,19.2,9.36-1.22,1.49-4.26,3.9-3.58,4.91l4.15,6.05c4.29-1.52,6.8-7.55,6.21-14.05l6.25.83c1.3.17,1.03,3.65,1.06,6.79.36.31,1.19.81,1.52.26.53-.89,1.95-3.91,2.13-4.87l.86-4.67c.2-1.07,2.92-.12,4.61.41,4.59-7.21,10.83-11.02,19.51-12.26l3.14-4.32c.64-.88,4.15.81,3.97,1.89-1.2,7.05-5.19,3.5-10.66,11.89l-4.7,7.21-8.8-8.49ZM1313.26,1233c-1.5-.12.33,6.73,1.76,6.14l4.52-1.87c1.08-.44.77-3.7-.38-3.79l-5.9-.48Z"/>
  <path class="st0" d="M1185.16,1243.27c2.58-17.3,14.42-34.6,28.07-46.02,11.29-9.45,19.88-21.67,32.63-28.65l-.68,3.76c-.11.59-2.57,2.11-1.98,2.23l5.89,1.23c5.21-5.97,10.8-10.76,17.57-14.74v-3.08c0-1.07,3.71-.16,4.78-.21s-1.64,2.57-2.06,3.57l-3.64,8.58,13.54-7.4c.82-.45,2.63-3.51,2.1-4.21l-2.75-3.62,29.5-14.42-3.25,8.54c15.66-9.48,17.33-1.62,27.39-8.3.99-.66,2.94,2.04,3.94,3.12,7.8-2.95,17.01-5.09,24.83-1.95l-54.24,14.08c-3.96,1.03-9.58,1.47-13.68,2.08-6.32,1.8-14.13,8.38-18.92,13.34l9.43-1.9-29.23,33.7-23.78,24.67-2.13-3.58-9.67,11.46c-14.29,16.93-23.19,9.7-30,19.91-.84-.47-5.05-2.88-4.84-4.31l1.18-7.89Z"/>
  <path class="st0" d="M1315.28,1503.86c1.66-15.78,11.03-32.45,25.82-40.55l14.33-7.86c-1.52,10.99-9.74,18.1-19.44,20.75l-20.71,27.66Z"/>
  <polygon class="st0" points="1454.73 1518.08 1448.47 1509.63 1454.26 1495.62 1461.96 1502.8 1454.73 1518.08"/>
  <path class="st0" d="M920.44,1150.78c-4.44,4.96-9.93,11.56-16.25,11.43l16.3-16.38c.94-.94,3.61-2.58,4.72-3.07s3.34,2.31,4.68,4.26l-9.44,3.75Z"/>
  <path class="st0" d="M1142.86,930.14c-6.44.8-13.06.61-21.24-4.67l9.74-6.15,11.49,10.82Z"/>
  <path class="st0" d="M942.59,1358.65c-2.03-.1-2.78-6.51-1.01-7.38l8.54-4.2c2.56,5.6-.25,11.94-7.53,11.57Z"/>
  <path class="st0" d="M1372.41,1611.07c-4.67,3.25-6.8,4.33-14.27,6.18l-.55-8.93,14.81,2.75Z"/>
  <path class="st0" d="M939.89,1134.16c1,5.43-2.44,12.57-9.33,10.83-.51-2.76,3.88-10.02,6.77-11.37l4.04-1.9c.74-.35,1.47-1.35-1.47,2.43Z"/>
  <path class="st0" d="M938.38,1300.77c-.21,3.15-4.93,8.08-8.3,9.71-.73-5.38-.68-8.03.22-11.03.67-2.21,6.07-1.65,8.08,1.32Z"/>
  <path class="st0" d="M1158.09,940.42l-24.26-4.15c9.36-5.04,16.98-1.44,24.26,4.15Z"/>
  <path class="st0" d="M1502.67,1407.76l3.07-5.84c.84-1.61,6.73-.96,6.7.83-.03,1.59-.95,5.37-2.11,5.32l-7.66-.31Z"/>
  <path class="st0" d="M1419.26,1565.93c1.09-.41,4.94-.63,6.17-.64,1.57-.01,1.18,5.04-.22,5.71l-4.05,1.92c-1.39.66-3.34-6.45-1.9-6.99Z"/>
  <path class="st0" d="M1131.73,936.81l-16-1.72c6.08-3.06,12.36-4.96,16,1.72Z"/>
  <path class="st0" d="M992.08,1077.29c-1.18-1.7-.06-5.73,2.92-10.62,1.16,1.74.04,5.72-2.92,10.62Z"/>
  <path class="st0" d="M1440.28,1538.8c-.15,0,3.4.02,4.13.03,1.07.02.56,3.04-.27,3.71l-2.35,1.9c-.85.69-1.25-3.58-1.5-5.64Z"/>
  <path class="st0" d="M1573.97,1004.95c-2.35-9.35-7.33-15.01-14.41-21.98-5.18-5.11-6.48-11.18-17.69-6.42l3.11-12.73c8.6,1.56,12.42,7.39,16.94,13.67l14.38,20c.59.18,4.23,1.12,3.61,1.72l-5.95,5.75Z"/>
  <path class="st0" d="M1577.62,1037.77l-20.86-2.8c8.89-2.6,16.57-3.61,25.06-2.83l12.1,1.12c-4.3,5.18-9.11,5.47-16.3,4.5Z"/>
  <path class="st0" d="M877.13,2101.68l-9.83-14.92c-5.56-8.44-8.41-29.91-2.94-27.09,7.02,3.63,9.26,18.47,22.2,14.83-.23,6.61,3.33,11.82,9.18,11.73l4.6-32.13c.24-1.66,1.7-6.69,1.62-6.59l-15.62,10.44c-3.8-12.51-3.85-23.33-.2-35.04,1.97-6.31-.06-11.05-1.81-17.29-5.88-21.04-.53-44.57,7.45-64.67l8.63-21.72c2.07-5.2,3.89-11.34,4.77-17.24l3.11-20.92,5.32-43.25c-4.61,2.03-8.65,2.42-11.45.5-3.41-2.34-4.38-7.42-4.73-11.58l-.5-5.96c-.12-1.39-3.38.96-6.02,2.73l2.55-37.7,11.64,2.02c-2.22-7.38-4.56-11.42-8.43-15.02l7.34-33.82,2.17-18.88,3.51-18.19,6.15-19.26,4.81-12.02c5.13-12.81,14.5-14.51,13.25-35.8l-1.08-18.38,2.01-29.81,1.16-38.14c.17-5.48,0-10.45-.93-15.29l-4.29-22.23c-3.38-17.5,7.89-40.51,4.91-66.19-1.02-8.75-1.13-11.98-.34-21.51l-7.91,6.13,7.17-26.25-15.99-19.46c-4.86-5.91-13.85-12.31-16.18-19.24-2.05-6.09-3.45-12.44-6.65-16.34l-12.06-14.69c-5.8-7.07-11.36-13.11-12.1-23.33-.28-3.91-1.89-14.85-8.22-10.92l-7.78-15.79-10.7-23.56.35,25.32c-6.93-8.59-6.18-19.03-6.29-29.87l-4.13-8.36-1.47-6.69c-.35-1.59-6.4-.62-7.62-.13l-2.11-7.29c-1.72,9.89-2.38,18.42-1.79,28.38.36,6.02,5.84,13.4.04,20.34l-4.51-23.26-1.14-23.37-3.09-27.92c-.18-1.59-.85-7.05-2.06-6.37l-6.8,3.84-3.46-11.35c-5.93-3.7-10.43-10.79-7.54-17.14,1.76-3.88,2.4-7.08,2.43-10.71-19.8,4.92-30.01-14.85-31.74-36.36-1.24-15.4-3.55-29.63-12.75-25.93-11.58,4.66-5.24,23.8,2.9,41.31-17.56-11.04-8.04-31.22-14.71-42.13l12.85-10.94c-2.13-11,4.78-21.56,11.21-29.6l2.84-3.55c.77-.96-1.92-2.23-5.98-4.12l16.32-8.17c1.77-.89,6.04-4.11,5.49-6l-2.37-8.22.1-21.94c.14-31.63-16.55-40.85,1.53-63.09-7.16-8.75-13.33-20.34-15.39-30.22l37.91-26.58c12.47-8.74,25.94-12.74,40.26-18.75,4.62-1.94,7.15-12.38,9.21-16.8l8.93-19.12c2.82-6.04,12.92-14.65,18.8-18.25,6.04-3.7,13.76-5.27,20.72-6.6,2.54-.24,7.97,1.49,9.76-.21,2.66-2.52,3.93-7.76,3.81-11.29l3.56-13.01c-2.66,5.2-4.1,3.69-4.03-.04l.89-4.88c.17-.94,2.29-.72,3.85-.78l2.85-15.37,11.99-36.23c-.3,11.68-.5,22.13,2.02,33.24l8.17-17.7,9.95-9.36c1.06-1,5.9-1.49,6.04-2.95l.63-6.66.4-4.23c.07-.78-1.71-.87-4.23-1.47l22.4-17.06c5.39-4.1,15.77-9.92,22.55-9.93h21c6.99-.02,17.8,8.55,23.75,11.01,7.12-2.93,10.89-1.28,18.56-1.3l16.42-.03c21.89,11.05,39.45,3.83,61.74,10.47l16.56,4.93,9,3.29,17.2-5c.87-3.08,1.8-10.5,4.34-12.42,2.54-1.91,8.92-3.84,12.22-4.17,10.31-1.04,16.04,3.48,19.88,11.15l14.43,8.56,30.39-1.05c4.24-.12,12.62,5.58,15.92,8.54,11.86,10.67,28.99,14.74,42.44,4.5,4.08-3.1,11.26-8.28,15.94-7.35,10,1.98,22.64,23.93,26.9,39.74,8.87-.38,20.73-.61,29.32,2.33,13.66,9.7,21.58,28.26,25.85,44.58,2.54,9.72,9.23,10.81,15.61,17.58l16.94,17.98,5.62,12,9.95,15.72,9.73,10.33-4,4.41c-.8.88,3.1,2.2,4.53,2.4l7.21,21.39c3.71,11,8.83,19.54,22.13,20.62,24.36,1.99,29.37,12.78,40.14,5.97,1.09-.69,5.59-1.45,5.08-.44l-2.45,4.85-2.28,4.51c-.46.91,1.49,2.64,2.52,2.58l5.89-.31c-.41.67-3.69,5.25-2.43,5.91l6.09,3.18c14.02,7.32,23.82,21.5,28.94,36.86l6.44,19.3c23.74,9.07,31.83,24.7,48.97,35.52l10.67,6.73c-3.9,22.18,20.23,22.32,36.31,35.36l-16.21,1.6,7.89,19.33c3.17,7.76,5.48,14.14,10.49,19.84l-5.24,1.23c2.05-.48,2.15,17.57,11.43,17.18l11.07,28.97,7.61,6.46,8.96,9.33,21.86,33.56c2.88,4.42,1.02,13.24,11.71,12.59l-5.7-11.3,8.86-4.08c-8.8-3.61-12.98-6.47-14.23-15.48l15.7,10.65-1.03,20.94,17.57,6.75-5.74,1.6c-1.02.29-1.98,2.55-1.18,3.26s3.76,2.4,4.84,2.41l6.69.08c1.36.02.85-2.43.77-6.4l21.51,9.82,11.42-.96c19.79-5.96,36.67,7.47,49.62,23.99l15.2,19.39c4.24,5.4,17.79,3.2,24,4.09l6.91.99c1.41.2.72,2.87.26,5.8,5.97,3.91,12.7,5.78,20.01,6.79l36.12,4.97c4.65.64,7.3,3.09,10.69,7.08,4.71,5.53,18.71,6,24.07,2.72-4.35-2.31-6.85-3.51-10.49-7.55,13.98-1.08,18.82,18.47,37.91,8.03,15.14-8.29,28.84-9.79,45.98-7.43,14.11,1.94,30.76,2.73,41.69,14.08l14.94,33.07c6.39,14.14,27.41,4.91,42.58,16.07,7.51,5.53,13.45,7.77,22.49,6.09,8.61-1.6,13.52,3.67,15.55,13.94.65-.4-1.22.75-3.39,2.11l-66.4-19.38-33.2-9.71c-6.56-1.92-10.58-4.19-17.52-5.68l-61.58-13.22c-10.07,7.09-21.7,11.93-34.32,12.15l-40.46.72-17.51-1.35c-16.7-4.81-30.24-7.74-47.71-2.94-5.05,1.39-12.31-2.52-18.94-4.9l12.9,12.94,11.5,1.79-10.04,4.36c1.94,9.08,3.79,20.82-5.38,28.07l-5.72-9.94-8.33,5.75c-3.35-3.95-4.69-5.57-6.5-5.93s-7.47,2.08-6.72,3.77l4.09,9.28-10.55-6.55c-.7.19-4.24,1.13-1.51.4.65,4.44,1.01,6.71.61,8.1-4.93,17.44-1.68,35.31,12.93,47.88l-3.07,16.16c-2.54-4.59-4.89-8.46-6.34-7.13-2.13,1.95-5.7,6.52-3.97,5.34,5.07,2.53,7.29,4.02,9.42,8.02,2.65,2.06,2.45,1.94-1.63-.93-1.25,1.53-2.94,4.97-1.76,5.35l6.69,2.15,1.54,12.69c-8.61,1.77-7.67,9.42-5.78,15.67l4.24,14.09,3.93-4.05,3.73,6.38c.79,1.36,3.85,1.17,6.2,1.51l2.02,3.43c1.34,2.27,4.93-8.22,5.85-5.75l1.59,4.26c2.12,5.67,2.31,10.41.65,16.44.04,3.61,3.86,9.42,7.29,13.98l-2.77,2.85-4.45-5.75c-.76-.98-3.08-.56-5.95-.71l-.51,11.71-.15,3.23c-.03.77-2.82-1.32-2.89-2.08l-.39-4.65-2.05,1.85-1.21,16.41-.38,34.49,6.45-17.1c.83-2.2,5.47-3.52,7.74-2.73l4.88-13.71,1.7,5.36c.21.66,1.15,2.5,1.65,2.01l4.48-4.41c4.62,8.23,6.12,19.42,3.58,29.49l-6-14.02c-.43,12.63,4.88,20.74-.29,29.96-15.64,7.3-2.2,14.9-4.46,36.58l-1.51,14.58c-3.37-6.8-4.31-9.08-7.85-13.49-1.68,10.57,2.17,17.01,6.73,26l2.33-13.17c6.09,7.74,3.19,14.47,1.65,23.49l-4.21,24.7c-.29,1.72,1.92,7.03,2.85,8.78l-2.32,30.46-3.98-7.2-3.61,7c3.52-15.8,7.64-27.3,1.1-39.69-.83,1.41-2,3.59-2.45,3.23l-4.23-3.38-1.72,16.61-3.53.16c-2.44.11,5.99,25.97,3.46,45.47l10.26-14c1.92,9.06.89,17.48-1.41,27.09l-3.97,17.62-6.69-27.74-5.51,11.15c3.5-20.58-5.4-23.27-5.37-23.58.1-1.29,1.03-4.94.69-6.32-5.96-24.46.2-27.14-1.49-33.18-.62-2.2-7.53-4.63-7.93-2.47-.31,1.69-.58,5.85-1.53,5.68l-5.77-1.02c-.43,2.65.49,8.37,1.67,11.25l6.35,15.49-13.76-12.08c-.15-.44-1.52-4.51-1.38-4.1-14.37,16.82,11.97,34.28-3.45,33.31l5.28,13.87-6.85,1.98c1.05,11.73,5.69,22.45,15.94,30.94,3.25-4.1,3.86-8.24,1.61-13.2.17-.95,3.96-3.87,5.75-4.14s5.39,1.94,5.9,3.44c-3.6,8.36-9.57,16.38-17.01,24.66l-6.43-16.14c-2.14,6.55-4.05,12.08-4.49,16.7l-.83,8.63c-3.27-5.04-4.25-12.87-1.52-16.2,3.37-4.11,3.76-10.61,2.35-16.4l-6.77,6.87.92-18.41-7.02,2.15c-2.45,4.41-2.52,12.86.05,18.5l-3.14,3.98c-2.83,3.58.7,12.63,8.44,21.22,5.56,6.17-.4,22.11,7.03,36.34l1.91-27.46c.11-1.6-1.45-7.17.09-7.16l8.81.05c.32,9.92-1.62,20.41-3.65,31.1l-.4,14.37-1.58,23.83,5.5-7.38.7,15.7,3.98-9.8-.03,13.77,3.08-7.72,1.57,9.28c6.67,8.32,4.93,16.28-1.91,24.37-3.39,4.01-4.77,12.41-7.12,19.55l-.34-19.87-10.78,31.32c1.13.32,1.15.71,4.3-2.67,4.2,6.9,6.84,15.17,4.5,25.02l-5.4-7.7-.54,27.57.84,1.23,10.72-10.97,9.41,4.37c9.33,12.92-2.77,40.98-13.57,57.8l-12.99,20.24-4.89,30.22-3.1-13.16c-.76-3.22-.13-6.11.98-9.84l7.28-24.42c2.5-8.38,7.95-13.92,9.33-22.63-7.1,3.64-6.27,10.27-6.51,15.86-1.8-.16-5.66-1.01-5.5-2.16l1.04-7.25c.52-3.61,1.42-12.17,4.36-14.55,3.14-2.55,9.33-8.86,7.38-11.91l-6.39-9.95-.34-1.43c-7.25-1.72-13.45-21.36-13.33-30.07.44-32.73,18.33-46.66,11.5-63.96l-2.58,6.81-2.22-3.37c-.46-.7-3.95,1.68-4.08,2.51l-3.84,25.05-14.96,41.6c-1.45-14.98,10.16-26.26,6.55-36.17l4.95-16.54c2.33-7.77,7.57-15.34.17-24.19l-5.61,29.84c-6.89,7.07-8.66,16.03-7.85,24.67l-5.04,11.99-1.37-6.69c-1.12,1.08-3.79,3.83-4.47,3.14l-4.5-4.51-8.81,19.91c.01,4.12.57,7.75,4.4,2.08l.19,16.85c-7.79,12.9-10.72,26.27-13.45,40.91-1.71,9.18-1.2,15.78,1.44,25.73l-5.36-5.06-3.43,21.77-1.37,21.22-6.37,34.46-7.06,33.72c-2.65-5.57-2.9-8.47-3.32-13.04l-4.58-4.07,2.99-13.42-2.62-.42-3.1,12.14-14.34,8.23c-3.01,9.72-3.44,18.67-2.51,30.75l-14.98-5.25,1.98-25.7c-8.8,15.9-2.43,27.82-7.71,41.95l-7.76-3.85c-.29-5.96,1.76-14.79,5.36-20.38l4.88-28.97,5.59,1.21c1.81.39-.37-10.72,5.11-29.42,4.8-16.38,6.74-32.62,8.87-50.39l-12.49,23.18-14.66,40.62c-2.34,6.48-3.12,11.88-3.15,19.2l-2.33-4.83-11.37,27.81-2.17-1.65,6.8-19.04-6.06,4.49.32-39.24,2.13-25.01c-2.19-.3-7.21.37-7.44,1.76l-1.22,7.36c-9.17,25.77,6.92,42.43-8.15,54.38l-6.7,19.56,1.59-43.53-7.92,42.6-3.31,16.97c-.98,5.03.73,11.26-4.76,13.99-2.15-22-2.94-43.31.68-64.38,1.97-11.45,4.39-21.65,4.06-32.35-2.61,11.06-4.94,16.51-10.57,25.08-5.3,8.06-6.48,21.24-8.88,31.02-2.8.78-4.93,1.37-2.74.76l-1.29-7.29c-.22-1.22-4,2.08-5.07,2.93l-7.94,6.35-13.07,13.82,3.77-26.4c1.76-12.36,13.17-22.39,8.87-37.29-7.7,9.99-11.9,22.44-15.21,34.26l-11.63,41.46c-1.37,4.88-1.17,14.15-1.16,18.81-13.58,8.21-6.03,19.59-14.81,34.36l-6.43-4.14c-4.42-2.85,7.83-11.34,5.97-18.18-1.54-5.85-1.45-9.63-.85-17.65l-6.06,9.41-9.19-.66c-.33-.59.61-6.27,2-6.12l7.47.8c3.06-7.39-6.09-7.91-7.56-19-.31-2.31,6.25-5.94,7.09-3.85l2.38,5.92c.45,1.11,4.69-.64,4.99-1.92l4.11-17.46-6.21,3.15c-5.93,3,2.4-15.38,2.17-30.59l-9.65,20.97,12.1-59.42,7.1-25.55,18.13-44.11c2.96-7.21,8.39-17.94,7.34-24.97l-2.36-15.89-3.94,6.67,1.52-44.68c.32-9.29-.83-18.15,1.78-26.54l2.01,12.83c2.97-6.44,3.52-15.3,4.05-22.35,6.26-11.49,10.06-25.06,9.99-38.16-4.03-2.16-5.64-3.64-7.13-6.64-1.72-3.46.77-7.13,3.65-9.66l-10.8-37.77-.61,20.19-2.88-5.62c.62,9.87-.81,15.38-3.28,21.63,6.47,23.07-11.95,53.03-27.26,76-8.41,12.62-19.35,43.41-16.67,55.52l8.09,36.61c-16-27.16-15.79-61.2,1.53-89.9,9.09-15.06,20.3-28.52,22.94-47.05l2.58-18.16.59-42.49,1.42-30.17-30.46-19.14-45.7-24.71-35.93-20.25c-13.24-7.46-25.84-17.65-36.97-27.88l-11.61-10.68c-8-7.36-16.2-13.13-26.54-17.7l.39,17.66c.25,11.17,5.22,22.37,12.71,31.4l30.58,36.85c6.81,8.21,14.14,12.87,17.19,30.55,1.71,9.9,4.47,22.33-7.13,27.91l-14.93-13.78-14.64-15.95-16.92-21.94-13.51-12.25c-7.69,3.41-9.99,13.51-6.23,21.87l23,51.12,6.91,14.42,5.29,13.26-23.91,3.03-12.3-13.06-6.66-6.82c-1.86-1.91-9.52.45-9.96,3.1-1.16,6.89-5.82,14.19-8.64,20.17l-9.18,19.44,11.7,47.06c.62,2.49.41,8.62-1.64,10.02-4.97,3.41-18.51-8.56-20.62-22-3.27-3.26-11.02-7.14-16.33-9.25l-26.93,23.79c-11.29,9.98-10.07,35.3-17.74,40.35.29-11.17,1.15-24.89,6.8-33.77l15.71-24.72c-20.53,1.72-32.69,16.24-54.38,18.84,5.28,9.93,8.92,24.01.05,32.24-.21-.45-6.13-.63-6.29.55l-4.39,30.65-12.27,25.42c-11.71,14.72-16.88,29.68-18.53,47.96-1.43,15.87,2.09,29.27,6.47,44.62l5.38,18.85c6.79,23.76,5.27,45.48-1.26,68.21l-6.9,24.03,11.02,76.3,6.07,30.14c-.6,4.72-2.02,12.19.11,16.86l10.72,23.5c4.22,9.26-7.51,18.87,19.83,50.92,2.27.27,3,.36,1.16.14l.82-6.82,7.24,10.6,9.86,12.27-15.11,4.09c-9.68-10.09-18.05-23.1-25.63-35.57-1.27-2.08-4.92-5.88-5.34-8.01-.51-2.57-2.92-8.68-4.97-8.06l-10.07,3.07c-.59-12.85-4.39-26.48-11.35-37.73-5.81-9.4-6.61-15.52-6.02-26.64.78-14.57-5.59-41.9-8.72-38.03l-3.77,4.65-4.24-34.85-4.05-20.14c4.12,3.39,4.78,5.16,6.97,10.53,2.76-12.23,3.86-25.91-5.58-38.14l-1.9,23.67c-2.47-3.88-4.69-10.22-4.93-15.75-.73-16.35-5.23-30.24-7.63-46.29l-2.98-19.86c-2.82-18.81-4.8-35.96-3.6-55.41.14-2.24-3.45-7.84-4.67-6.18l-8.9,12.11-12.74,13.52c-11.8,12.52-18.94,40.84-14.57,52.56l13.46,36.07,7.8,28.74c12.56,46.28-3.62,64.96-2.95,106.62-15.19-27.64,9.55-52.74-2.29-69.53l-7.35,37.6-2.81,20.24-4.83,29.83-5.2,18.11-1.78,14.95-8.28,30.5c.49,4.67-3.72,2.72-3.49-.23,1.8-12.57,3.08-22.47-2.02-31.84.06,9.65-1.14,15.01-4.72,22.61l-4.69,13.96c-4.21,12.54-2.61,26.98-2.12,40.94,9.18-6.99,2.9-20.19,11.45-32.32,3.63,11.52-.67,18.61-3.33,27.58l-12.12,40.92-9.62,26.4c-9.81-1.17-12.43-12.06-12.67-22.21l-1.27-52.87c-.26-10.91-.48-20.4-1.94-31.17l-1.81-13.34c-.2-1.47-6.62.49-7.1,1.88-.61,1.74-1.59,5.16-1.57,7.37l.21,16.22c.07,5.59-1.61,8.54-7.18,11.73l-2.57,18.75c-5.26,20.52-8.33,40.56-8.02,61.24-4.42,11.59,3.24,24.67-8.76,34.5-6.1-19.85-4.77-39.16-3.38-59.07l1.29-18.38,2.52-29.95-1.94-35.89c-.53-9.81,2.03-17.57-4.05-25.87l-3.46,23.83c-3.18,6.22-4.14,10.56-3.85,17.38l.92,21.48-4.33,48.19c-.62,6.88-3.75,14.95-6.9,19.85-.28-17.4-18.88-12.6-8.92-28.17l-.3-11.08c4.1-7.33,4.29-14.09,2.81-21.81l1.45-10.51-10.15-.65c-2.22-.14-2.43,7.09-2.36,9.6l.46,16.89c.02.65-3.27,2.91-3.43,2.88s-2.24-2.53-2.23-3.22l.3-12.88.1-4.33c.02-.78-3.1,1.69-3.34,2.48l-7.01,22.65,3.06,15.85c2.38,12.32-10.14,23.53-9.67,23.71l-6.12-2.42,3.43,13.65-5.14-.63-5.62-16.32c-2.01,1.92-7.17,5.14-8.97,3.88-2.78-1.94-7.94-8.72-10.52-11.72l3.11-30.68c.71-6.95,1.93-11.37,5-19.16.35-5.82-1.67-15.11-3.78-22.86-2.72,8.87-3.05,16.09-2.81,25.42l-6.8,12.14c-1.28-4.54-2.81-10.29-2.54-13.43l4.2-47.94,2.67-42.21-.35-13.74,1.95-20.86c.18-1.92,4.33-6.52,2.82-7.63l-6.76-4.97-4.6-4.53c-1.27-1.25-4.78-.15-9.38.61-2.89-8.29-2.81-18.8-2.25-28.72l-5.51-13.59c-.55-1.36-1.83-5.01-.78-5.74l5.04-3.53c-1.69-6.47-.65-12.31,3.54-17.11l4.46-5.11c.93-1.07,4.13.8,7.75,2.02l-2.26-37.24-7.22,4.33c-2.61,1.57-5.35-17.86,4.04-30.96l-3.22-18.64-17.22,8.09c-10.56,4.96-20.46,8.84-31.93,5.81l-5.11-20.33-4.51,3.2c-1.14.81-5-.94-5.32-2.29-2.57-10.74,12.55-19.53,12.35-28.86l-7.81,5.93c-1.13-5.13,2.7-9.19,6.96-13.28l14.5-13.96c7.99-7.69,19.32-17.69,17.21-31.79-.88-5.57-4.47-16.66-7.63-21.65l-31.65-49.88,17.84,15.5,1.91-1.38ZM1023.52,703.65c1.56.21,6.82-2.39,7.21-3.1l-21.26-3.9-9.78,3.75,23.83,3.26ZM930.18,773.93l5.1,3.4-2.73-19.72-8,9.89,6.1-.7c1.11-.13.41,3.18-.46,7.13ZM1447.92,1475.82c6.45-6.55,12.17-14.65,14.04-22.46-6.19-5.89-13.32-7.92-20.56-9.86l-28.24-7.59-32.98-7.43c-12.19-2.75-21.78-4.27-32.52-10.53l-16.48-6.86c8.69-3.96,13.84-2.45,22.18-3.05l23.81-1.71c7.92,1.46,11.41,2.12,18.54.4,9.99-2.41,21.85,4.06,31.84,5.06l32.16,3.19,25.67,2.88,17.02-3.66c.98-.21,4.06.33,4.4,1.11l1.02,2.35c3.06,2.39,5.69,6.78,6.17,10.54-2.34.7-6.55,1.98-6.02,3.35s2.29,4.64,3.31,5.78c5.76,6.46,7.43,13.01,11.2,20.54l13.03,26.01c-.96,2.18-7.23,3.34-8.77,1.66l-10.83-11.81c-6.77-7.38-15.12-15.06-26.7-14.41-10.45.59-8.93,27.13-22.12,42.88-3.7-5.11-5.15-10.64-6.39-15.35-3.52,1.21-8.73,1.53-12.43.23-13.9,7.65-23.38,22.43-33.93,33.88l-25.18,27.34c-7.82,8.49-16.33,15.61-21.04,26.53l-16.44,10.94c-3.52,2.34-1.55,12.87.34,15.75-7.59-1.69-16.04-3.11-21.06-2.2-2.87,12.73,12.69,17.11,19.48,15.84.93-.17,3.81,3.92,2.87,4l-6.52.57c-1.46-1.15-1.55,3.65-.02,4.08l25,7.04c13.77,3.88,20.08-1.36,31.43-7.78,6.63-3.75,17.97-5.4,27.78-7.42l-20.3,17.54-15.96,9.33c-7.74,4.52-21.13,6.05-29.27,7.56-2.03.38-7.7,4.74-6.26,5.91,5.05,4.15,15.15,9.28,22.71,7.9-1.38,20.08-16.9,9.16-20.24,25.58-2.91.25-6.56.6-6.19,2.44.47,2.35,2.14,6.43,3.43,7.47l11.21,9.03,10.11,9.43,17.27,11.28,14.26,6.22c6.67,2.91,12.7,4.27,19.58,4.5,2.97,1.56,9.67,7.19,13.3,6.69l17.09-2.33,21.76-5.65c6.95-1.81,16.97-8.64,22.75-13.48l25.27-21.13,11.36-12.47c26-28.54,40.77-63.73,56.82-98.47l7.91-17.13,11.27-24.38,9.15-24.52c8.29-22.22,12.21-45.02,12.55-69.13l.74-52.28-5.09-41.08-19.36-71.6-6.81-23.91-4.84-21.89c4.36-9.19,1.95-18.26-5.12-25.07-8.95-22.75-18.31-46.29-35.16-64.17l-16.67-17.7c-5.48-5.82-21.11-8.15-24.9-15.33-2.83-5.37-4.12-9.91-7.27-12.41l-10.39-8.23c1.89-7.16-2.63-12.35-8.7-17.11l-18.14-14.24c-16.71-13.11-31.36-26.22-52.24-32.51-8.57-2.58-18.96-8.47-27.71-7.06-5.4.87-7.85,1.79-12.06-1.02l11.96-3.83c-20.14-3.49-46.1-14.3-46.28-28.91l-9.56-13.99,6.87-4.96c-7.35-3.97-12.41-7.09-17.86-11.82l-12.25-7.82,9.13-1.2c-6.78-2.99-13.46-5.7-15.58-9.75l-7.33-14.04c-5.71,7.4-11.63,13.68-21.14,14.32,6.89-4.84,14.85-10.23,16.06-17.15l-11.88-10.59-14.04.83,8.7-6.41-11.36-.83-6.41-6.38c-.18-.28-.29-1.11.41-1.15l6.32-.38c-2.77-8.57-13.08-12.45-19.32-19.5l-11.25-12.7-11.18-8.67-11.41-.5-18.01-1.93c10.34,6.04,14.88,8.33,21.35,16.23,12.45,15.19,32.47,18.66,36.57,27.63.38.83-3.57.37-4.45-.17l-13.61-8.4-39.79-27.69-5.07-.86c.68.12-5.11-10.89-6.25-8.81l-3.75,6.84c-6.08-6.99-17.79-9.38-26.51-7.62-1.38-.91-3.77-3.08-4.51-2.13-.55.71-2.53,3.91-3.43,3.81l-12.91-1.35-10.04,12.07-3.91,13.91,13.9-1.56-6.23-2.53,20.98-2.18,13.05,13.64-7.27-1.82-8.35-2.1-.76-4.7c-.16-1-4.59-.49-4.1-.08.72,2.25,1.66,5.28.64,5.03l-4.44-1.08c-1.2-.29-4.19-.16-4.67.99-.36.87-1.44,3.47-1.28,3.06,2.88,1.45,5.65,2.76,5.55,4.04l-.49,6.12c4.1,3.73,9.9,9.76,11.49,16.91l-23.16-22.03,4.26,10.24-9.91-6.45c-4.31-1.37-5.1-1.68-10.54-4.57l-11.55,20.69-11.03-7.02,1.22,11.05-7.14,1.42-4.58,12.83-3.66-6.63c-.49-.9-3.32,2.59-3.94,3.44l-6.79,9.19-8.14-4.67c-3.32-1.91-3.63,11.51-4.87,11.11l-4.56-1.44-3.09,14.18c-.23,1.06-.14,3.63.84,3.3.76-.25,2.54-.81,2.65-1.49l.5-3.32c2.97-.42,9.7-.88,10.96-3.73l4.94-11.22c.25.05,3.89,3.43,3.18,4.82l-3.49,6.83,23.81-7.65-23.22,12.87c-1.59.88-4.83,2.58-4.94,4.03l-.56,7.32c-.25,3.25-6.71,5.6-11.95,6.82l6.26,2.99-8.7,12.56-26.49,27.9-15.72,14.65c-6.89,2.54-13.76,5.97-16.32,13.24l7.2-.51c5.27-.37-10.52,9.42-10.14,14.59,1.07,14.51,1.68,33.26-3.74,45.92-1.37,1.15-6.39-1.44-5.96-2.99l1.62-5.84-6.47.81c6.26-9.03,10.74-18.37,10.32-28.82-5.02-.35-8.97,1.19-10.75,3.29l-6.86,8.06c-.72.84-1.68,3.98-1.04,4.91s2.69,2.48,3.39,1.61l4.12-5.06.24,4.96c.04.81-2.69,1.64-3.4,2.29l-16.97,15.58-5.94-4.81c-1.32-1.07-4.91,3.84-5.92,5.44l-7.52,11.88c-4.11,6.5-6.78,11.34-12.93,16.42l-15.25,12.59c-2.74,2.26-9.42,4.76-11.39,7.77l-8.08,12.38c9.23-2.56,11.62-6.32,16.48-13.48l3.5,6.65c-14.06,11.71-22.96,22.65-31.24,41.06l14.51-1.35-10.09,17.31,11.98,8.58,4.57,3.75c4.59,3.76-14.57,3.42-11.16,8.01l8.56,11.49c5.19,4.8,10.02,10.34,13.66,16.58,5.68,1.79,10.54,4.88,14.2,10.26,2.06,1.65,6.87,6.1,5.98,8.41-.76,1.98-3.32,5-5.38,7.52.7.42,4.57,2.85,4.14,4.43l-1.89,6.89,18.05,7.12c.22,1.26.93,5.45-.56,5.7l-6.3,1.08-3.9.66c-.75.13-1.1,3.66-.7,4.3l11.88,18.92c-5.24,12.25,1.24,20.62,7.76,29.98,1.56,2.24,3.03,8.57,5.46,9.66,2.43,1.09,8.63-2.32,9.14-4.94s1.02-6.48,2.38-7.13l5.59-2.66c.89-.43.35-4.33,1.34-4.38l3.66-.2c4.26-4.55,10.12-7.7,16.57-10.54l17.37-7.65c14.23-6.27,31.85-4.22,46.42-7.69,8.53-2.03,11.86-3.4,19.63-.15l15.17,6.35,3.77-9.47,16.5,1.71c4.34,4.66,7.89,6.7,13.11,10.22l13.54,9.11c26.96,18.14,27.82,39.18,45.02,61.73,6.91,9.06,15.72,17,20.41,28.69l6.86,17.07c1.63,7.93,2,15.11,5.02,22.16l8.23,19.2,7.02,10.49c10.48,15.68,36.74,32.39,56.23,25.95l10.31-7.99c17.32,2.57,16.12-11.49,25-23.48,7.08,10.81-5.06,16.07-7.07,23.42l-11.56,42.31c9.47-2.65,13.36-5.62,19.58-10.14l10.28-.46c4.73-6.99,12.09-9.98,19.91-5.42l9.82-5.36,31.32-28.2,15.67-14.6,15.56-14.48,24.67-25.04ZM1122.74,877.45l3.44-6.2c.42-.76-2.77-2.2-3.14-1.42l-2.03,4.25,1.73,3.36ZM1118.37,889.93l.13,5.72c.03,1.12,3-1.58,3.64-2.48s2.26-2.94,1.15-2.97c-.74-.02-4.94-1-4.92-.27ZM1573.76,1022.54c-6.36-1.44-25.78,2.49-32.19,11.21l12.96,3.49,16.73,4.8-4.55,2.35,18.51,5.21c1.43.4,4.21,3.47,4.66,4.32l22.17,6.07,2.36,5.1c.31.68,3.27-.84,3.43-1.12l-29.7-62.54-8.1-13.62c-8.36-14.06-22.17-28.6-37.76-35.13-6.55-2.75-23.11-.6-25.71,2.78s-.7,6.9,3.96,9.23l-9.11,7.85,7.53-.27-5.81,15.57,4.74,10.92-.76,6.77c-.15,1.36,3.95,1.32,5.28,1.59l35.3,7.13c3.1-2.02,6.09-3.5,6.9-1.88s3.22,6.52,2.21,4.47c-7.1,1.64-10.21,2.71-14.07,5.8l29.29-4.41c4.86-.73,11.1,3.86,12.51,8.99l-20.78-4.69ZM1540.03,1017.77c1.04.16,1.77-4.11.91-3.94l-3.89.75-5.84,1.86,8.82,1.32ZM1053.81,971.72l-2.83-2.93-10.22,9.77c5.83-.78,5.68-1.07,13.05-6.84ZM1542.14,1030.2c-6.62-4.54-11.26-3.66-14.23.25l14.23-.25ZM1038.92,983.07l-5.49-1.83c-1.16-.39-2.25,1.38-3.48,4.27l8.97-2.44ZM1023.51,992.44c-1.35-4.55-6.37-7.44-10.93-1.81l10.93,1.81ZM1568.1,1051.02c-7.96-7.9-17.34-7.26-27.55-5.65l27.55,5.65ZM1019.51,996.61c-.97-.02-.87,5.91-.08,5.34l3.49-2.49c.78-.56,2.32-2.71,1.37-2.73l-4.78-.12ZM1556.47,1051.88c-5.48-1.36-13.62-1.42-18.63-.93,12.78,5.29,25.47,6.01,38.09,5.78l-19.46-4.85ZM1549.78,1066.82c1.03.38,3.55-3.21,3.15-4.23l-1.63-4.13-16.03,2.95,14.51,5.42ZM1599.24,1063.58l-.91-1.84-13.1-.8.91,1.84,13.1.8ZM1604.09,1128.12l-11.94.86-18.45-12.1,3.96,12.39c.76,2.38,4.67,7.34,6.26,9.13,3.11-1.31,5.96-2.8,7.8-2.02,1.53.65,4.23,5.16,4.4,7.01l2.41,26.3c.89,9.64,6.98,16.94,15.28,20.34l9.99,10.84c4.84,5.25,10.1,9.31,16.86,12.33,11.3-22.88,8.22-45.48,4.4-69.49-4.16-26.12-8.38-53.94-24.73-74.91l-17.91-1.7c5.57,2.4,11.32,5.04,16.61,8.85-17.32-3.54-28.87-12.01-45.82-9.04,9.19,4.47,13.23,6.79,20.64,13.93l-9.52.27,13.06,7.76c-3.28,4.22-5.18,5.47-8.93,6.99-2.43.99-7.61-2.1-10.64-3.23l-14.5-5.41-10.23.8c2.03,7.06,6.73,15.68,14.48,19.89l19.17,10.41c3.89,1.66,9.68-6.66,10.78-12.52,2.09,1.33,5.01,3.49,6.23,5.06,2.98,3.84-5.1,10.78.32,17.25ZM1631.75,1216.69c-.45-6.52-4.96-9.67-12.05-7.23l12.05,7.23ZM1617.87,1232.99c-.08-7.59-3.41-11.16-9.78-13.76,1.15,5.28,4.92,11.05,9.78,13.76ZM1843.76,1305.15c1.16,1.28,7.62-.25,7.27-1.83s-2.15-5.31-3.55-6.22l-23.4-15.26c-.1,4.11,3.62,8.11,8.02,10.44l11.65,12.87ZM1911.17,1321.69c-.19-5.23-.54-8.52-1.34-8.16-1.3.58-3.25,5.24-2.04,6.01l3.38,2.15ZM2106.56,1360.72c1.26-.05,4.22-2.46,4.03-3.59-1.02-6.06-8.63-9.32-17.31-11.29l-21.85-4.96c-1.92-.44-7.84-.55-7.82,1.41.07,7.5,8.24,19.95,24.4,19.25l18.56-.81ZM1915.45,1334.09c-19.87-9.64-41.02-2.91-56.48-11.75l-13.58.79,27.57,33.86,42.49-22.89ZM2060,1347.79l-4.7,2.55,8.87,16.36,4.7-2.55-8.87-16.36ZM1934.34,1368.55c-4.43-6.6-11.38-9.63-18.42-3.9l18.42,3.9ZM1845.82,1426.81c.83-.52,1.7-8.14-.29-9.3l-6.83-3.98,7.12,13.29ZM1013.8,1431.1c-2.58-3.14-3.58-3.92-2.9-3.97l4.09-.34c1.81-.15,7.71-.45,8.13-2.21l1.37-5.79,9.28-4.87c4.08-3.44,7.51-5.75,11.84-8.2l13.89-7.85c9.08-5.13,17.1-8.55,28.62-10.67l-1.2-5.74c-.32-1.52-5.84-1.22-7.45-1.23l-24.43-.13c-12.07-.07-22.04,10.57-43.52,12.87-13.94,1.49-29.02,7.34-34.35,20.68,4.58,3.89,7.05,8.4,4.6,15.4l11.2,10.77c8.8-.17,15.82-3.4,20.81-8.72ZM1123.44,1430.94c2.36-1.59,5.43-4.71,6.61-6.9,1.09-2.04-1.48-8.11-3.33-7.55l-13.33,6.38,3.36-15.05-11.81-8.4c1.26,16.17.74,26.58-7.39,38.01,2.05,1.35,5.12,3.32,4.94,3.09,2.2-6.56,8.49-11.75,14.11-12.09.68,2.12,1.81,5.88,2.57,5.37l4.26-2.86ZM1085.3,1407.21c.19-1.93-1.22-3.65-3.15-3.85s-3.65,1.22-3.85,3.15,1.22,3.65,3.15,3.85c1.93.19,3.65-1.22,3.85-3.15ZM1095.51,1579.62l9.43,15.57c5.46-.69,10.85-.89,13.48,1.21l14.04,11.23c3.86,4.3,9.85,15.49,18.56,10.46,3.72-2.14,12.23-5.64,15.25-1.13l6.87,10.27,9.67-12.43c5.19-6.67,4.22-31.79,1.84-47.15l2.16-5.37c-4.18-9.02-2.26-17.91-1.65-27.12l1.55-23.2c-5.73-8-8.47-16.67-1.03-26.36l-17.05-16.21-14.14-15.31-17.62-18.02-8.58,4.95c-1.82,1.05.72,7.52-.34,9.4-8.71,15.41-20.71,20.08-24.27,30.31l14.06-10.7,1.71,1.72-18.49,17.66c-2.81,2.68-8.44,3.78-12.25,3.36-10.97,14.43-23.81,7.15-37.22,16.37l-13.1-6.19c-3.66,1.81-7.23,10.3-7.43,16.1l5.13.12c3.22.08.74,13.83,17.31,15.25l.28,10.72,6.54-3.71c1.11-.63,3.54,3.23,4.72,4.34l15.43,14.6c10.74,10.17,8.44,25.79,11.52,22.78l3.61-3.54ZM1084.72,1446.64c-10.14-5.46-20.96.75-33.37-15.94-3.57,4.46-5.64,12.3-3.8,18.1,1.26,3.98,8.87,7.11,13.78,7.35l11.9.59,11.49-10.11ZM1097.05,1470.34l19.37-18.46,4.83-4.61c1.12-1.07-2.46-5.38-3.76-4.55l-15.38,9.78.67,7.16c-3.72,3.06-5.91,5.88-5.73,10.68ZM1080.01,1478.99c2.24-1.88,4.89-5.04,4.62-6.98-.21-1.55-1.66-3.55-3.5-6.15l-1.12,13.13ZM1090.49,1477.14c-.99.62,2.74-1.69,4.02-2.49s-.56-5.34-1.75-6.29-3.91-.31-5.96.4l3.68,8.38ZM1885.26,1554.96l-10.66-7.53c-4.76,4.09-2.7,13.66,1.48,15.97-.08-3.16-.18-8.11,1.26-8.16l7.92-.28ZM1068.15,1478.71l6.8-.92c1.1-.15.9-3.98.66-6.21l-7.46,7.13ZM1866.19,1577.1c2.43-4.05,2.91-9.75-.08-14.62-2.29,4.09-2.75,9.64.08,14.62ZM1881.6,1581.14l-2.67-11.17c-.63,4-.37,8.54.53,12.09l2.14-.92ZM1872.95,1581.43l-1.57-10.27c-2.69,3.32-2.45,8,1.57,10.27ZM1822.6,1584.27l.12-11.12c-2.43,2.12-4.44,4.61-3.81,5.56l3.69,5.56ZM1237.52,1542.95c-7.46-7.97-14.99-10.31-21.17-6.62,3.1,8.42,15.3,10.34,21.17,6.62ZM1873.44,1650.61l3.07-8.75-4.68-3.99c-3.9,2.19-4.04,10.45,1.61,12.74ZM1884.49,1694.14l-6.65-6.46c-1.71,7.29-2.47,11.93-2.8,18.98l9.46-12.52ZM1865.89,1709.4c4.07-1.48,8-4.4,7.14-6l-4.72-8.81-2.42,14.81ZM1288.2,1681.35c3.56.7,7.99.98,11.27,3.13,1.98,1.3,7.04-.21,9.88-2.2-3.49-7.18-7.76-12.71-13.22-17.47l-4.3-3.74c-.88-.76-3.86,1.1-5.11,1.37-5.34-1.53-10.69.8-13.06,6.06l-4.14,9.18,18.68,3.67ZM1884.39,1737.49c4.71-8.64.42-13.17-5.49-16.38.08,6.36,2.2,12.23,5.49,16.38ZM1694.04,1860.19c-4.54-2.52-6.57-3.12-7.52-4.38l-3.55-4.71,1.63,14.06,9.44-4.97ZM1658.04,1888.08c2.34-1.69,4.92-4.69,4.14-6.4l-2.9-6.42-1.25,12.82ZM1602.76,1907.25c-.23-16.52,8.84-33.41,3.29-30.99-10.75,4.68-8.53,18.85-3.29,30.99ZM1830.98,1936.22c.15-1.93-1.88-5.87-3.59-6.14-1.28-.2-5.63-.15-5.63,1.15l.03,7.07c0,1.98,1.01,6.23,1.93,7.99.73,1.41,6.43.31,6.56-1.27l.7-8.81ZM1749.63,1965.93c5.38-9.43,6.33-13.44,9.04-23.3l-7.1-.13c-2.74,7.63-4.27,15.03-1.94,23.43ZM1765.02,1956.44l1.19-10.2c-2.34,1.73-3.97,2.83-3.5,4.06l2.32,6.14ZM1365.95,1917.45l-5.17,3.61,4.43,6.35,5.17-3.61-4.43-6.35ZM1705.14,1980.86l1.8-.92.56-11.12-1.8.92-.56,11.12ZM1803.41,1991.78c1.38,1.01,6.27-2.21,5.71-3.77l-2.14-6.01c-3.45.76-5.85,8.11-3.57,9.78ZM1703.21,1992.63l-3.47-15.46-5.34,23.25,8.81-7.79ZM1753.86,2003c2.79-4.41,4.98-8.65,6.45-15.57l-12.5,17.16,3.77-1.16,2.27-.43ZM1275.97,1995.19l22.7-12.8c5.45-3.07,11.4-10.58,10.28-15.8l-2.69-12.5c-21.72-2.28-17.83,16.56-25.83,20.67-.95.49-3.39-2.99-2.71-3.82l3.69-4.52-7.77-15.3c-1.54-3.04-10.01-1.49-12.99.82l-14.48-2.08c.12,2.76,1.45,6.48,4.01,13.82l-10.71-7.63,3.28,21.38,4.11-6.01c.66-.96,3.13,1.18,3.73,2.18,2.72,4.54-9.59,19.09,7.74,28.23l17.66-6.64ZM1738.2,2016.35c4.67-5.81,7.41-10.81,9.08-17.76-5.88,3.93-8.36,10.31-9.08,17.76ZM1754.21,2003.51l-2.12,1.01-1.81,9.28c3.29-3.06,4.33-6.61,3.93-10.28ZM1787.94,2013.07c.62.47-1.25-.95-3.85-2.93l-.81,14.88,4.66-11.96ZM1754.16,2027.5c5.59-2.79,7.3-7.83,6.64-13.35l-6.64,13.35ZM1668.19,2033.59c4.31-3.26,4.98-11.23.72-14.33-2.05-1.5-8.2,4.54-6.86,6.29l6.14,8.04ZM1659.81,2040.79l-.85-10.52c-2.76,3.04-3,9.77.85,10.52ZM1681.83,2050.73c4.55-1.35,7.44-6.37,1.81-10.93l-1.81,10.93ZM1661.52,2094.89c-.28,3.64.47,4,2.28,2.12l5.42-24.78c-2.46.35-4.7.83-4.86-.47l-.94-7.65-3.9,11.23-1.79-13.94c.53-.16-1.67.52-2.6.8-.62.19-1.67,3.43-1.67,4.21l-.05,30.19,1.74-1.26c.55-6.06,1.14-11.4,2.81-17.85l.47,17.04c1.72-4.62,3.5-4.41,3.09.36ZM1736.81,2084.7c1.74-1.09,4.79-3.38,4.17-4.62l-2.99-6-1.18,10.61ZM1638.77,2098.9c3.73-3.39,5.34-8.06,4.07-11.97l-4.07,11.97ZM1758.88,2108.64c1.98-1.36,4.77-3.6,4.02-4.4l-3.45-3.63-.57,8.03ZM1644.85,2114.86l4.37-17.3c-12.14,4.31-13.19,13.93-15.74,24.66-1.44,6.07-5.23,10.65-4.5,18.6,5.92-6.38,15.16-23.12,15.88-25.96ZM1601.2,2122.78c2.45-1.34,4.1-6.42,2.67-7.06-2.45,1.31-4.08,6.37-2.67,7.06ZM1156.89,2087.08c4.49-5.56,6.19-8.99,6.74-13.56-7.58,1.67-9.46,8.32-6.74,13.56ZM878.11,2103.09l-1.69,1.43c1.83,4.12,4.37,7.85,9.63,9.96l-7.94-11.39ZM1146.75,2180.55c3.47-.74,7.16-10.26,6.12-13.67-6.45.4-10.54,8.75-6.12,13.67ZM1217.99,2234.67c7.74-12.87-1.11-23.54-3.63-34.57-1.54-6.76-2.52-11.93-5.72-19.24-4.49,6.99-1.43,11.41.11,17.49l9.23,36.32ZM1171.11,2207.46l3.18-3.14-.7-17.12-.17-4.17c-.03-.67-3.82,2.28-3.77,2.96l1.47,21.48ZM1207.52,2237.48c4.5-8.7,1.56-15.94-4.74-21.7.58,7.64,2,14.17,4.74,21.7ZM1575.48,2282.84l3.4-5.97c.49-.86-1.15-3.81-1.07-2.88l-3.39,5.96c-.48.84,1.12,3.78,1.06,2.89ZM1216.07,2263.54l1.27-15.19c-7.01,4.79-5.53,11.89-1.27,15.19ZM981.15,2288.08c-.2-5.23-.54-8.55-1.33-8.17-1.29.61-3.29,5.2-2.09,5.97l3.43,2.2ZM1144.71,2351.11c3.37-14.51,1.86-29.74-7.34-40.79l7.34,40.79ZM961.37,2380.74l3.81-31.79c.54-4.51-1.66-11.04-4.61-14.84l-4.74,40.72c-.24,2.1,3.49,6.18,5.53,5.91ZM984.96,2421.9l-3.46-16.49c-4.98,5.01-4.53,10.65-2.98,16.16l1.54,5.46c.35,1.25,6.16.85,5.89-.42l-.99-4.72ZM1058.78,2454.93l-1.99-.2-1.78,17.91,1.99.2,1.78-17.91Z"/>
  <path class="st0" d="M1908.49,1532.24l-7.81-11.43-.98,9.58-6.47-12.08c-5.02,2.42-12.87,1.44-16.45-1.17-5.67-4.14-7.47-12.53-3.5-16.94l5.28.44c5.8.48-3.12-11.93-1.2-16.17l4.39-9.72,9.74.8,8.33,21.94c.83,2.18-6.57,6.38-8.14,6.69-.3,0,5,3.59,6.01,4.97l12.7,17.39,3.52,2.16c.69.43.32,3-.15,3.65-.72.99-4.39.62-5.26-.13Z"/>
  <path class="st0" d="M1928.8,1906.77c-13.41-11.54-23.58-26.16-32.2-40.53l14.88-7.28c2.81,20.92,22.43,33.06,17.32,47.82Z"/>
  <path class="st0" d="M1907.44,1789.74l-4.84.92,4.16-19.12c4.66,5.48,3.72,11.54,2.46,17.29l1.19,1.38,2.72-9.65,1.56-5.54c.31-1.09,4,3.51,3.89,4.67l-2.66,28.65c-.11,1.19-2.34,5.65-3.38,5.38l-5.56-1.5c1.97,5.29,2.84,10.05,1.18,14.45l-6.95-19.96,4.72-.1.95-14.55.56-2.33Z"/>
  <path class="st0" d="M1952.42,1598.59c-.2,13.04-4.74,32.53-13.45,40.96-.68-4.21-1.72-12.11-.04-15.32l13.48-25.64Z"/>
  <path class="st0" d="M1740.54,1153.81c-5.43-4.49-9.01-10.7-13.55-17.39l-13.54-19.96c-3.96-5.84-11-9.51-13.53-17.91,13.67,9.08,22.96,23.27,31.45,37.95l9.17,17.32Z"/>
  <path class="st0" d="M874.87,2144.93l-8.6-13.55,7.29-4.86,9.21,13.61c.86,1.28-.64,6.37-2.03,7.04s-4.94-.77-5.88-2.24Z"/>
  <path class="st0" d="M1796.98,2086.6c1.12-13.95,5.45-25.69,10.87-37.64.74,14.1-4.72,25.88-10.87,37.64Z"/>
  <path class="st0" d="M1865.82,1901.86l-2.23-8.99c-3.84-7.2-10.02-15.49-4.55-24.33l7.34,22.73c.35,1.08,3.03,3.97,3.64,4.87.61.9-1.14,2.6-4.2,5.72Z"/>
  <polygon class="st0" points="1898.88 1848.43 1890.63 1845.97 1894.26 1823.88 1898.88 1848.43"/>
  <path class="st0" d="M1904.21,1546.43l4.54,12.01-4.97-2.64c-.97-.51-2.09.67-4.41,2.22-2.32-4.45-4.48-10.7-4.08-14.63l3.98,5.28c.7.92,1.08.38,4.95-2.23Z"/>
  <path class="st0" d="M1922.67,1664.89l-3.83-15c-1.99-5.7-2.71-12.47-1.87-17.98,6.41,10.81,7.13,22.68,5.7,32.98Z"/>
  <path class="st0" d="M1953.28,1588.2l-2.92-20.82c3.86.1,7.93,4.54,8.45,8.16.73,5.02-1.72,9.49-5.53,12.66Z"/>
  <path class="st0" d="M753.57,1062.13c-2.61,1.04-10.27-1.06-12.18-3.81l7.41-8.83,4.33,4.9c.85.97-1,1.99-4.65,4.17-1.56-1.1,1.12.78,5.09,3.57Z"/>
  <path class="st0" d="M1908.83,1577.98l-8.85-15.81c8.5,1.53,10.13,8.14,8.85,15.81Z"/>
  <path class="st0" d="M1911.29,1668.62l.69-16.56c7.1,3.45,6.7,11.76-.69,16.56Z"/>
  <path class="st0" d="M1738.65,2230.34l-5.17,9.79c-4.13-3.97-1.79-11.45.57-13.91.64-.67,5.08,3.21,4.6,4.12Z"/>
  <path class="st0" d="M1900.91,1805.25c-4.72-3.67-6.08-9.27-1.92-15.39l1.92,15.39Z"/>
  <path class="st0" d="M1672.35,2238.81c-1.43-7.25-1.91-15.05,4.37-20.13l-4.37,20.13Z"/>
  <path class="st0" d="M1924.09,1542.73c-7.41,2.11-9.72-6.12-6.83-11.2,2.11,2.59,5.59,7.93,6.83,11.2Z"/>
  <polygon class="st0" points="1779.68 2130.41 1787.36 2115.04 1783.89 2131.42 1779.68 2130.41"/>
  <path class="st0" d="M1944.77,1564.55l-9.22-10.34c4.65.18,10.88.64,9.22,10.34Z"/>
  <path class="st0" d="M1881.2,1445.14c.4,1.22-7.67-.05-7.05-1.15l4.21-7.52,2.84,8.67Z"/>
  <path class="st0" d="M1752.85,1212.09c-2.86.92-7.1,1.67-7.82.48-.97-1.61-1.78-3.56-3.44-8.09l11.26,7.61Z"/>
  <path class="st0" d="M760.02,1134.99c-3.79-3.07-6.31-8.68-2.15-13.61l2.15,13.61Z"/>
  <path class="st0" d="M879.74,2055.36c-4.74-2.8-4.84-7.4-1.55-12.44l1.55,12.44Z"/>
  <path class="st0" d="M1821.66,2131.12l-1.65-8.37c-.24-1.2,2.71-2.84,4.93-3.25l-3.28,11.62Z"/>
  <path class="st0" d="M804.83,1218.06l-.75-13.79c4.38,2.66,3.54,9.86.75,13.79Z"/>
  <path class="st0" d="M1852.6,1826.12l-3-11.74c4.05,2.23,7,6.16,3,11.74Z"/>
  <polygon class="st0" points="1718.35 2171.06 1718.91 2159.95 1720.71 2159.02 1720.15 2170.14 1718.35 2171.06"/>
  <path class="st0" d="M1747.98,1164.4c-2.61.13-5.73-3.99-4.88-8l4.88,8Z"/>
  <path class="st0" d="M1530.71,961.85c-1.33,1.34-3.16,3.15-3.12,3.35.05.26-2.04-1.91-2.59-2.45-.83-.81,1.4-3.72,2.56-3.76l4.35-.14c1.06-.03-.95,2.75-1.2,3Z"/>
  <path class="st0" d="M2028.18,2764.07c-12.68,1.35-25.28,4.12-37.72,8.13-16.54-8.81-34.56-11.02-53.84-13.34-16.12-1.94-31.24-6.04-47.45-4.13-14.18,1.67-28.81,2.44-42.64,6.93-10.93,3.55-19.31,4.65-31.36,4.48l-25.57-.37-39.98.28-26.11-.49-38.37-.09-35.28.72c-21.7.44-41.45,4.68-59.39,16.99l-88.64-9.86-19.87-2.73-23.17-3.81-32.53-4.85-29.86-4.82-32.06-1.19-22.95,1.89c-2.1.17-7.8.06-8.48-1.89s1.48-6.59,1.47-8.98c-.04-19.03,3.35-37.77,5.63-56.92l4.75-39.98c3.9-32.78,19.28-48.62,19.66-66.98.58-28.08-.47-55.68-3.48-83.42-1.52-14.01,1.3-22.08,9.52-32.33,8.71-10.87,13.22-26.19,18.59-39.65,4.68-11.74,3.7-25.1,4.08-37.93.92-30.94-.14-55.3-31.42-62.22l8.59-27.06c17.71,26.02,34.44,48.25,54.37,70.47l27.72,24.95,31.03,36.71c17.31,20.48,38.31,37.87,59.58,54.05,6.12-5.72,12.63-5.95,17.51.11,1.58,1.96,6.51,3.76,9.22,4.11,6.8,5.52,14.3,9.85,23.31,13.04l15.32,5.43,26.62,11.51c16.84,7.28,33.52,15.9,52.12,18.76,6.5,1,10.62,2.62,16.3,4.9l26.9,10.8,46.6,11.2,21.75,5.03,21.32,5.47,53.85,15.41-8.06,16.2,19.39,8.52c6.08,2.67,12.24,4.74,18.67,6.57l26.04,7.4,18.1,5.27.66,12.46,19.56,17.08,39.84,27.63c7.36,5.11,15.1-.97,18.85-7.09,9.93-16.2-10.14-14.16-9.55-31.01,17.23.51,29.88,1.85,46.74,6.02l-20.21,21.2c-20.44,21.44-27.25,52.89-15.68,81.4Z"/>
  <path class="st0" d="M2433.68,2752.1c.32-2,1.56-6.58,2.46-8.41.89-1.83,5.88-2.04,8.34-1.98l53.76,1.14,2.39,3.82c1.69,2.71-37.93,18.18-66.94,5.43Z"/>
  <path class="st0" d="M1542.83,2300.3l-3.63,8c-7.48-4.15-14.3-6.83-21.69-5.93,3.27,9.47,1.57,20.29-4.45,24.29-2.69.69-7.85-2.27-12.84-4.95-.74,3.98-.13,10.13,1.43,15.61l-1.48,9.22c2.39,3.06,4.25,5.42,4.76,7.36.77,2.92-1.2,8.14-4.89,9.71l-8.41-29.63-13.7-41.65c-1.12-3.39-7.94-9.37-7.09-12.84.84-3.43,1.93-8.1,1.83-10.49s-6.92-3.73-8.97-5.4l-13.37-10.93,7.25-19.22c3.18-8.44,3.89-14.94,8.06-22.2l15.41-26.86,45.01,38.17c2.32.28,4.69-4.2,5.52-7.9l16.78,1.6.87,19.82c.14,3.17,3.95,9.48,5.29,11.29l-6.03,16.51-3.45,12.42,7.03-7.84-5.02,23.43c3.92.37,5.55.3,5.56,1.39l.09,7.89-.32,5.81c-.06,1.15,1.97,1.61,2.38,1.79-5.05,12.28,2.22,20.54-4.71,25.01-2.62-4.64-3.79-7.1-4.22-10.39l-2.99-23.05ZM1513.78,2261.5c-1.35.75-3.41,2.62-4.37,3.78-.72.86,3.46,3.88,4.57,3.96l21.15,1.55c.74-4.53,1.25-10.08-.75-10.64l-10.36-2.9,8.37-3.38c2.62-6.53.31-16.72-5.23-21.35l-45.65-38.15-7.75,13.44-10.45,18.14c8.51,3.51,10.88,6.72,12.73,13.4l4.55,16.43c1.85,6.66,4.4,9.85,12.17,9.32,4.1-.28,7.79-5.84,8.16-10.12,6.39,3.6,11.37,2.61,21.78,1.56l-8.95,4.98ZM1465.16,2240.96c-7.98,1.16-8.98,7.23-6.75,11.66,1.32,2.62,6.44,5.54,9.86,4.5l-3.11-16.16ZM1510.92,2314.61l.47-17.68c-6.29-5.6-13.21-11.71-16.21-17.88l-3.79-7.78c-.69-1.43-6.08-.23-7.49.69l10.79,37.73,9.53,8.44c1.07.77,6.65-2.06,6.69-3.52ZM1539.69,2301.33c3.06-13.59,1.24-18.28-5.06-24.05l-20.38-1.76c-3.64,7.72-.17,15.68,7.69,19.54,6.19,3.04,12.85,5.62,17.75,6.28Z"/>
  <path class="st0" d="M1603.46,2437.69l-31.7-6.85-26.7-4.84-9.61-.2c-2.37-.05-4.29-5.58-4.49-8.46-.68-9.53-5.84-13.46-14.67-17.7l-14.68-7.05-1.68-3.99c-.39-.93-3.15,1.33-4.07,1.94l-4.26,2.79c-1.53,1-9.73-5.35-7.73-13.51.61-2.48,8.29-3.86,10.63-2.61l27.72,14.8c10.35,6.86,7.21,23.84,26.79,22.28l12.13,3.87,7.76,7.88,2.23-7.25c.47-1.52,4.51-.32,5.65.75l3.22,3.02c.87.81,3.42-1.98,3.23-3.15s-2.7-3.56-3.95-3.81l-36.47-7.25-4.47-13.2c7.57-1.91,12.8.24,18.26,7.67l3.75-5.73c.97-1.48-7.53-14.09-3.44-13.82l8.21.54,6.37.15c1.47.03-.87-4.94-1.75-6.53l-10.77.68c-2.35-6.28,8.07-13.72,11.31-9.99l7.57,8.73.53-5.8c.08-.94,1.82-3.4,2.37-2.63l2.79,3.94,8.29,10.66v-11.8c7.95-1.28,12.12,8.24,10.17,15.18l-17.41-2.54-4.94-.89c-1.02-.18-3.56,1-3.24,1.99l2.05,6.48c1.72,5.43,1.35,14.96,6.78,17.26,2.05-1.09,6.17-4.19,7.4-2.92l5.8,6c.94-.54,6.89-4.67,8.34-3.08l6.67,7.29c1.14-1.94,5.02-6.94,7.18-6.1s5.41,5.15,5.91,7.54l1.28,6.14c.28,1.32-4.86.08-6.16-.86-2.52-1.83-8.02-.69-10.78-1.13l-24.78-3.93,10.55,12.41,5.53-6.11,8.2,9.29c1.37-2.22,3.99-5.23,5.45-4.9,3.76,1.04,11.37,1.94,16.57,1.89,2.62.69,6.75,8.97,6.99,11.26l-18.75-.64-17.15-3.16ZM1570.15,2401.1c.94-.61,5.17-1.53,4.51-2.38l-2.82-3.59c-.46-.58-3.17.76-3.72,1.32l-3.22,3.24c-.7.7,1.47,3.86,2.29,3.33l2.97-1.92Z"/>
  <path class="st0" d="M1668.04,2497.26c-14.3-.72-35.67-5.05-42.91-11.69-1.31-1.21,2.36-6.51,4.12-6.21,2.57.44,7.41,4.88,8.24,6.38l13.75-9.85,2.84,14.09c4.13-3.66,6.56-5.5,8.5-4.62,3.04,1.37,5.04,3.15,5.44,11.9Z"/>
  <path class="st0" d="M1681.97,2412.37l.27,9.98-12.02.52-6.66-15.8,24.95,2.37c3.91.37,6.02,12.01,2.93,14.82l-9.47-11.89Z"/>
  <path class="st0" d="M1534.27,2371.24l-23.52-6.5-3.91-14.74,22.3,7.16c1.8,2.97,4.34,10.7,5.13,14.08Z"/>
  <path class="st0" d="M1627.66,2373.48l5,16.78-11.66-4.67c-3.93,1.85-8.82,2.39-12.08-.07-2.73-2.06-5.51-10.22-2.85-11.89,5.3-3.15,10.89,4.31,13.85,8.72l-.26-6.2c-.06-1.43,2.69-1.84,7.99-2.66Z"/>
  <path class="st0" d="M1564.16,2464.81c10.99,6.04,23.74.07,24.61,15.16-13.38-1.72-31.46-9.01-38.71-17.61,6.03-.58,9.76.07,14.1,2.45Z"/>
  <path class="st0" d="M1635.16,2423.58c-3.44-.53-5.77-11.14-5.56-13.6l13.6-1.14c2.75,2.67,6.28,9.02,8.46,14.17-5.65.7-11.7,1.32-16.5.57Z"/>
  <path class="st0" d="M1762.43,2497.43c-2.12.15-8.28.28-9.25-1.19-1.21-1.84-2.02-4.41-3.54-8.61l-5.53,4.16c-.83-5.57,1.82-7.85,6.56-8.41,3.02-.36,5.18,3.57,7.04,9.23l7.52-14.56c.93-1.62,6.07,1.35,5.84,3.24-.68,5.5-10.42,8.94-6.23,10.51l6.7,2.51c.6-.53-.74,2.55-1.87,2.63l-7.26.5Z"/>
  <path class="st0" d="M1720.18,2505.18c-4.72-3.18-10.72-8.44-7.78-16.55l2.87,5.42c.74,1.4,5.18,3.35,5.93,1.96,1.11-2.05-1.08-7.14-2.36-8.9l16.72-2.94,5.45,13.45c-3.1,1.17-7.53-2.66-11.47-9.18l-9.38,16.73Z"/>
  <path class="st0" d="M1596.9,2317.49c3.18-4.2,8.1-4.56,14.51-5.1l25.79-2.19c.74-.06,3.29-1.98,3.91-2.4.93-.62,4.04,3.4,2.98,3.78l-4.92,1.74c-13.24,4.69-26.03,6.8-42.28,4.17Z"/>
  <path class="st0" d="M1621.37,2485.68l-7.91-7.21c-.87,2-8.01,7.17-7.81,4.94l.67-7.36c.17-1.88-16.29-6.55-7.22-9.18,4.12-1.19,12.4,3.2,14.87,9.14l9.62-3.88-2.23,13.55Z"/>
  <path class="st0" d="M1481.31,2385.53c-.69,2.16-7.64,3.11-10.63,1.58-2.85-1.46-4.29-7.24-4.27-13.36,1.81-.33,7.48.27,9.68,1.25s3.83,5.43,5.22,10.53Z"/>
  <path class="st0" d="M2098.15,2190.57l-5.23-21.86c10.55,4.07,7.26,14.02,6.91,20.89.45.54.97,1.06,1.06,1.43l2.28,9.02.83,1.64,7.84,23.08c2.3,6.76,2.39,11.09-2.29,16.3l-7.1-38.89c-.67-.6-.89-.78-.98-1.16l-2.17-9.09-1.14-1.36Z"/>
  <path class="st0" d="M1703.21,2496.08l-9.89,2.33-1.14-14.2c-.06-.8,1.16-4.54,1.9-4.37l4.85,1.13c1.11.26-2.56,4.13-1.56,4.72l6.1,3.65c1.39.83,1.3,6.37-.26,6.74Z"/>
  <path class="st0" d="M1659,2408.97l6.45,13.1c-2.45.47-8.29.32-10.58-.8-2.66-1.31-3.75-8.67-3.34-11.83.16-1.27,6.73-1.97,7.47-.47Z"/>
  <path class="st0" d="M1564.22,2166.06l5.3-25.57.77-14.55c3.74,12.91,3.6,27.87-6.07,40.13Z"/>
  <path class="st0" d="M1678.32,2498.99c-7.93-.24-11.13-13.07-4.44-19.7l4.44,19.7Z"/>
  <circle class="st0" cx="2118.45" cy="2264.27" r="4.31" transform="translate(-344.5531 4147.9853) rotate(-84.3146)"/>
  <path class="st0" d="M1685.22,2505.34l-.84-16.47c5.17,4.34,3.83,11.31.84,16.47Z"/>
  <path class="st0" d="M1581.02,2317.33c-.39-2.02-.75-4.25-.47-3.18l7.62-1.23c1.1-.18.73,4.67-.36,4.64l-6.79-.22Z"/>
  <path class="st0" d="M1553.74,2373.27c-.2.78-5.35,3.08-5.84,1.98l-2.77-6.21,8.61,4.23Z"/>
  <path class="st0" d="M1567.49,2118.01l-1.75-12.67c2.87,3.74,3.66,7.93,1.75,12.67Z"/>
  <path class="st0" d="M1541.97,2368.05l1.42-7.86c4.29.98,3.41,7.33-1.42,7.86Z"/>
  <path class="st0" d="M1497.53,2247.38c-5.77-4.17-8.9-11.27-9.71-18.47,4.98,5.1,8.91,9.78,9.71,18.47Z"/>
  <path class="st0" d="M1426.73,3149l-.58-20.71c2.88-.36,7.85.49,9.57,1.65l-9,19.06Z"/>
</svg>