<?xml version="1.0" encoding="UTF-8"?>
<svg id="Layer_1" xmlns="http://www.w3.org/2000/svg" xmlns:xlink="http://www.w3.org/1999/xlink" version="1.1" viewBox="0 0 1093.22 142.43">
  <!-- Generator: Adobe Illustrator 30.2.1, SVG Export Plug-In . SVG Version: 2.1.1 Build 1)  -->
  <defs>
    <style>
      .st0 {
        fill: #faf1eb;
      }

      .st1 {
        clip-path: url(#clippath-1);
      }

      .st2 {
        clip-path: url(#clippath-3);
      }

      .st3 {
        clip-path: url(#clippath-4);
      }

      .st4 {
        clip-path: url(#clippath-2);
      }

      .st5 {
        clip-path: url(#clippath-7);
      }

      .st6 {
        clip-path: url(#clippath-6);
      }

      .st7 {
        clip-path: url(#clippath-8);
      }

      .st8 {
        clip-path: url(#clippath-5);
      }

      .st9 {
        clip-path: url(#clippath);
      }
    </style>
    <clipPath id="clippath">
      <polygon class="st0" points="33.72 31.22 33.72 111.95 84.75 111.95 84.75 105.81 47.58 105.81 47.58 74.65 75.55 74.65 75.55 68.52 47.58 68.52 47.58 37.36 84.75 37.36 84.75 31.22 33.72 31.22"/>
    </clipPath>
    <clipPath id="clippath-1">
      <path class="st0" d="M161.3,33.06c-4.17,1.72-7.55,4.23-10.12,7.55-2.58,3.31-3.86,7.3-3.86,11.96,0,3.85.96,7.16,2.88,9.94,1.92,2.78,4.74,5.28,8.46,7.49,3.72,2.21,8.32,4.46,13.8,6.75,6.79,2.86,11.96,5.42,15.52,7.67,3.56,2.25,5.34,5.3,5.34,9.14,0,3.52-1.64,6.56-4.91,9.14-3.27,2.58-7.81,3.87-13.62,3.87-4.01,0-8.02-.84-12.02-2.52-4.01-1.68-7.81-4.84-11.41-9.51l-4.05,4.54c3.35,4.75,7.52,8.2,12.51,10.37,4.99,2.17,9.98,3.25,14.97,3.25,5.97,0,11.08-1.04,15.34-3.13,4.25-2.08,7.54-4.92,9.88-8.53,2.33-3.6,3.49-7.56,3.49-11.9,0-3.76-.96-7.01-2.88-9.75s-4.62-5.23-8.1-7.48c-3.48-2.25-7.59-4.44-12.33-6.56-4.83-2.29-8.94-4.17-12.33-5.64-3.4-1.47-5.95-3.09-7.67-4.85-1.72-1.76-2.58-4.07-2.58-6.93,0-1.8.63-3.56,1.9-5.28,1.27-1.72,3.17-3.15,5.7-4.29,2.53-1.14,5.68-1.72,9.45-1.72,4.58,0,8.91,1.06,13,3.19,4.09,2.13,7.15,5.24,9.2,9.32l4.05-4.54c-1.47-2.94-3.58-5.48-6.32-7.61-2.74-2.13-5.85-3.74-9.32-4.85-3.48-1.1-7.01-1.65-10.61-1.65-4.74,0-9.2.86-13.37,2.57"/>
    </clipPath>
    <clipPath id="clippath-2">
      <path class="st0" d="M283.49,37.36h16.81c3.68,0,6.67.59,8.96,1.78,2.29,1.19,4.05,2.68,5.28,4.48,1.23,1.8,2.06,3.64,2.52,5.52.45,1.88.67,3.56.67,5.03s-.23,3.15-.67,5.03c-.45,1.88-1.29,3.72-2.52,5.52-1.23,1.8-2.99,3.29-5.28,4.48-2.29,1.19-5.28,1.78-8.96,1.78h-16.81v-33.61ZM269.63,31.22v80.72h13.86v-34.84h17.18c5.31,0,9.83-.59,13.56-1.78,3.72-1.19,6.89-2.96,9.51-5.34,5.15-4.66,7.73-9.94,7.73-15.83s-2.58-11.16-7.73-15.83c-2.62-2.37-5.79-4.15-9.51-5.34-3.72-1.18-8.24-1.78-13.56-1.78h-31.04Z"/>
    </clipPath>
    <clipPath id="clippath-3">
      <path class="st0" d="M410.96,54.9l12.88,29.32h-26.37l13.5-29.32ZM378.08,111.95h6.75l9.82-21.59h31.89l9.45,21.59h15.09l-35.58-81.46-37.42,81.46Z"/>
    </clipPath>
    <clipPath id="clippath-4">
      <path class="st0" d="M528.48,37.36h11.29c4.33,0,8.36,1.37,12.08,4.11,3.72,2.74,6.75,6.67,9.08,11.78,2.33,5.12,3.5,11.23,3.5,18.34s-1.17,13.23-3.5,18.34c-2.33,5.11-5.36,9.04-9.08,11.78-3.72,2.74-7.75,4.11-12.08,4.11h-11.29V37.36ZM535.35,31.22h-20.73v80.72h23.43c5.64,0,10.94-1.04,15.89-3.13,4.95-2.09,9.28-4.97,13.01-8.65,3.72-3.68,6.64-7.95,8.77-12.82,2.13-4.87,3.19-10.12,3.19-15.77s-1.07-10.9-3.19-15.76c-2.13-4.86-5.05-9.14-8.77-12.82-3.72-3.68-8.06-6.56-13.01-8.65-4.95-2.08-10.24-3.13-15.89-3.13h-2.7Z"/>
    </clipPath>
    <clipPath id="clippath-5">
      <path class="st0" d="M658.52,37.36h16.81c3.68,0,6.66.59,8.96,1.78,2.29,1.19,4.05,2.68,5.27,4.48,1.23,1.8,2.06,3.64,2.52,5.52.45,1.88.68,3.56.68,5.03s-.23,3.15-.68,5.03c-.45,1.88-1.29,3.72-2.52,5.52-1.22,1.8-2.99,3.29-5.27,4.48-2.29,1.19-5.27,1.78-8.96,1.78h-16.81v-33.61ZM644.66,31.22v80.72h13.86v-34.84h15.46c7.6,0,12.64,5.85,15.09,17.54.49,2.37,1,4.91,1.53,7.61.53,2.7,1.2,5.93,2.03,9.69h14.11c-.9-4.5-1.7-8.46-2.39-11.9-.7-3.44-1.41-6.87-2.15-10.31-.66-3.19-2.01-6.07-4.05-8.65-2.05-2.58-4.74-4.6-8.1-6.07,1.72-.57,3.29-1.29,4.72-2.15,1.43-.86,2.76-1.82,3.99-2.88,5.15-4.66,7.73-9.94,7.73-15.83s-2.58-11.16-7.73-15.83c-2.62-2.37-5.79-4.15-9.51-5.34-3.72-1.18-8.24-1.78-13.56-1.78h-31.04Z"/>
    </clipPath>
    <clipPath id="clippath-6">
      <rect class="st0" x="775.44" y="31.22" width="13.86" height="80.72"/>
    </clipPath>
    <clipPath id="clippath-7">
      <polygon class="st0" points="916.27 31.22 916.27 90.72 865.36 31.22 859.23 31.22 859.23 111.95 865.36 111.95 865.36 52.57 916.15 111.95 922.29 111.95 922.29 31.22 916.27 31.22"/>
    </clipPath>
    <clipPath id="clippath-8">
      <path class="st0" d="M1019.08,54.9l12.88,29.32h-26.38l13.5-29.32ZM986.2,111.95h6.75l9.81-21.59h31.9l9.45,21.59h15.09l-35.58-81.46-37.42,81.46Z"/>
    </clipPath>
  </defs>
  <g>
    <polygon class="st0" points="33.72 31.22 33.72 111.95 84.75 111.95 84.75 105.81 47.58 105.81 47.58 74.65 75.55 74.65 75.55 68.52 47.58 68.52 47.58 37.36 84.75 37.36 84.75 31.22 33.72 31.22"/>
    <g class="st9">
      <rect class="st0" x="17.62" y="23.95" width="83.23" height="95.27" transform="translate(-26.87 36.68) rotate(-28.32)"/>
    </g>
  </g>
  <g>
    <path class="st0" d="M161.3,33.06c-4.17,1.72-7.55,4.23-10.12,7.55-2.58,3.31-3.86,7.3-3.86,11.96,0,3.85.96,7.16,2.88,9.94,1.92,2.78,4.74,5.28,8.46,7.49,3.72,2.21,8.32,4.46,13.8,6.75,6.79,2.86,11.96,5.42,15.52,7.67,3.56,2.25,5.34,5.3,5.34,9.14,0,3.52-1.64,6.56-4.91,9.14-3.27,2.58-7.81,3.87-13.62,3.87-4.01,0-8.02-.84-12.02-2.52-4.01-1.68-7.81-4.84-11.41-9.51l-4.05,4.54c3.35,4.75,7.52,8.2,12.51,10.37,4.99,2.17,9.98,3.25,14.97,3.25,5.97,0,11.08-1.04,15.34-3.13,4.25-2.08,7.54-4.92,9.88-8.53,2.33-3.6,3.49-7.56,3.49-11.9,0-3.76-.96-7.01-2.88-9.75s-4.62-5.23-8.1-7.48c-3.48-2.25-7.59-4.44-12.33-6.56-4.83-2.29-8.94-4.17-12.33-5.64-3.4-1.47-5.95-3.09-7.67-4.85-1.72-1.76-2.58-4.07-2.58-6.93,0-1.8.63-3.56,1.9-5.28,1.27-1.72,3.17-3.15,5.7-4.29,2.53-1.14,5.68-1.72,9.45-1.72,4.58,0,8.91,1.06,13,3.19,4.09,2.13,7.15,5.24,9.2,9.32l4.05-4.54c-1.47-2.94-3.58-5.48-6.32-7.61-2.74-2.13-5.85-3.74-9.32-4.85-3.48-1.1-7.01-1.65-10.61-1.65-4.74,0-9.2.86-13.37,2.57"/>
    <g class="st1">
      <rect class="st0" x="131.18" y="22.08" width="88.46" height="99.01" transform="translate(-12.96 91.8) rotate(-28.32)"/>
    </g>
  </g>
  <g>
    <path class="st0" d="M283.49,37.36h16.81c3.68,0,6.67.59,8.96,1.78,2.29,1.19,4.05,2.68,5.28,4.48,1.23,1.8,2.06,3.64,2.52,5.52.45,1.88.67,3.56.67,5.03s-.23,3.15-.67,5.03c-.45,1.88-1.29,3.72-2.52,5.52-1.23,1.8-2.99,3.29-5.28,4.48-2.29,1.19-5.28,1.78-8.96,1.78h-16.81v-33.61ZM269.63,31.22v80.72h13.86v-34.84h17.18c5.31,0,9.83-.59,13.56-1.78,3.72-1.19,6.89-2.96,9.51-5.34,5.15-4.66,7.73-9.94,7.73-15.83s-2.58-11.16-7.73-15.83c-2.62-2.37-5.79-4.15-9.51-5.34-3.72-1.18-8.24-1.78-13.56-1.78h-31.04Z"/>
    <g class="st4">
      <rect class="st0" x="254.18" y="21.39" width="92.73" height="100.39" transform="translate(2.02 151.17) rotate(-28.33)"/>
    </g>
  </g>
  <g>
    <path class="st0" d="M410.96,54.9l12.88,29.32h-26.37l13.5-29.32ZM378.08,111.95h6.75l9.82-21.59h31.89l9.45,21.59h15.09l-35.58-81.46-37.42,81.46Z"/>
    <g class="st2">
      <rect class="st0" x="363.12" y="18.05" width="102.91" height="106.34" transform="translate(15.85 205.23) rotate(-28.33)"/>
    </g>
  </g>
  <g>
    <path class="st0" d="M528.48,37.36h11.29c4.33,0,8.36,1.37,12.08,4.11,3.72,2.74,6.75,6.67,9.08,11.78,2.33,5.12,3.5,11.23,3.5,18.34s-1.17,13.23-3.5,18.34c-2.33,5.11-5.36,9.04-9.08,11.78-3.72,2.74-7.75,4.11-12.08,4.11h-11.29V37.36ZM535.35,31.22h-20.73v80.72h23.43c5.64,0,10.94-1.04,15.89-3.13,4.95-2.09,9.28-4.97,13.01-8.65,3.72-3.68,6.64-7.95,8.77-12.82,2.13-4.87,3.19-10.12,3.19-15.77s-1.07-10.9-3.19-15.76c-2.13-4.86-5.05-9.14-8.77-12.82-3.72-3.68-8.06-6.56-13.01-8.65-4.95-2.08-10.24-3.13-15.89-3.13h-2.7Z"/>
    <g class="st3">
      <rect class="st0" x="499.32" y="20.8" width="94.89" height="101.56" transform="translate(31.5 267.99) rotate(-28.32)"/>
    </g>
  </g>
  <g>
    <path class="st0" d="M658.52,37.36h16.81c3.68,0,6.66.59,8.96,1.78,2.29,1.19,4.05,2.68,5.27,4.48,1.23,1.8,2.06,3.64,2.52,5.52.45,1.88.68,3.56.68,5.03s-.23,3.15-.68,5.03c-.45,1.88-1.29,3.72-2.52,5.52-1.22,1.8-2.99,3.29-5.27,4.48-2.29,1.19-5.27,1.78-8.96,1.78h-16.81v-33.61ZM644.66,31.22v80.72h13.86v-34.84h15.46c7.6,0,12.64,5.85,15.09,17.54.49,2.37,1,4.91,1.53,7.61.53,2.7,1.2,5.93,2.03,9.69h14.11c-.9-4.5-1.7-8.46-2.39-11.9-.7-3.44-1.41-6.87-2.15-10.31-.66-3.19-2.01-6.07-4.05-8.65-2.05-2.58-4.74-4.6-8.1-6.07,1.72-.57,3.29-1.29,4.72-2.15,1.43-.86,2.76-1.82,3.99-2.88,5.15-4.66,7.73-9.94,7.73-15.83s-2.58-11.16-7.73-15.83c-2.62-2.37-5.79-4.15-9.51-5.34-3.72-1.18-8.24-1.78-13.56-1.78h-31.04Z"/>
    <g class="st8">
      <rect class="st0" x="629.23" y="21.33" width="92.94" height="100.51" transform="translate(46.94 329.17) rotate(-28.33)"/>
    </g>
  </g>
  <g>
    <rect class="st0" x="775.44" y="31.22" width="13.86" height="80.72"/>
    <g class="st6">
      <rect class="st0" x="757.12" y="32.77" width="50.51" height="77.64" transform="translate(59.71 379.78) rotate(-28.32)"/>
    </g>
  </g>
  <g>
    <polygon class="st0" points="916.27 31.22 916.27 90.72 865.36 31.22 859.23 31.22 859.23 111.95 865.36 111.95 865.36 52.57 916.15 111.95 922.29 111.95 922.29 31.22 916.27 31.22"/>
    <g class="st5">
      <rect class="st0" x="843.85" y="21.1" width="93.81" height="100.98" transform="translate(72.68 431.21) rotate(-28.32)"/>
    </g>
  </g>
  <g>
    <path class="st0" d="M1019.08,54.9l12.88,29.32h-26.38l13.5-29.32ZM986.2,111.95h6.75l9.81-21.59h31.9l9.45,21.59h15.09l-35.58-81.46-37.42,81.46Z"/>
    <g class="st7">
      <rect class="st0" x="971.25" y="18.05" width="102.9" height="106.34" transform="translate(88.66 493.77) rotate(-28.32)"/>
    </g>
  </g>
</svg>