<?xml version="1.0" encoding="UTF-8"?>
<svg id="Layer_1" xmlns="http://www.w3.org/2000/svg" version="1.1" viewBox="0 0 205.71 61.52">
  <!-- Generator: Adobe Illustrator 30.2.1, SVG Export Plug-In . SVG Version: 2.1.1 Build 1)  -->
  <defs>
    <style>
      .st0 {
        fill: #faf1eb;
      }
    </style>
  </defs>
  <g>
    <path class="st0" d="M28.96,38.66v-16.15h7.89c2.03,0,3.56.38,4.58,1.15,1.02.77,1.53,1.78,1.53,3.05,0,.85-.21,1.58-.62,2.2s-.98,1.1-1.71,1.44c-.72.34-1.55.51-2.49.51l.44-.95c1.02,0,1.92.17,2.7.5.79.33,1.4.82,1.83,1.46.44.65.66,1.44.66,2.38,0,1.38-.55,2.46-1.64,3.24-1.09.78-2.7,1.17-4.82,1.17h-8.35ZM32.67,35.85h4.36c.97,0,1.7-.16,2.2-.47.5-.32.75-.82.75-1.51s-.25-1.18-.75-1.51c-.5-.33-1.23-.5-2.2-.5h-4.64v-2.72h3.99c.91,0,1.6-.16,2.09-.47.48-.32.73-.8.73-1.44s-.24-1.1-.73-1.42c-.48-.32-1.18-.47-2.09-.47h-3.71v10.52Z"/>
    <path class="st0" d="M54.45,38.94c-1.28,0-2.46-.21-3.54-.62-1.08-.42-2.02-1-2.81-1.75-.79-.75-1.41-1.64-1.85-2.65s-.66-2.12-.66-3.32.22-2.31.66-3.32,1.06-1.9,1.86-2.65c.8-.75,1.74-1.34,2.82-1.75,1.08-.42,2.25-.62,3.51-.62s2.45.21,3.52.62,2,1,2.79,1.75c.79.75,1.41,1.63,1.86,2.64.45,1.01.67,2.12.67,3.33s-.22,2.31-.67,3.33c-.45,1.02-1.07,1.91-1.86,2.65-.79.75-1.72,1.33-2.79,1.74s-2.23.62-3.5.62ZM54.43,35.75c.72,0,1.39-.12,2-.37.61-.25,1.14-.6,1.6-1.06.46-.46.82-1.01,1.07-1.64.25-.63.38-1.33.38-2.1s-.13-1.47-.38-2.1c-.25-.63-.61-1.18-1.06-1.64-.45-.46-.99-.82-1.6-1.06-.62-.25-1.28-.37-2.01-.37s-1.39.12-2,.37c-.61.25-1.14.6-1.6,1.06-.46.46-.82,1.01-1.07,1.64-.25.63-.38,1.33-.38,2.1s.13,1.45.38,2.09c.25.64.61,1.19,1.06,1.65.45.46.99.82,1.6,1.06.62.25,1.28.37,2.01.37Z"/>
    <path class="st0" d="M73.92,38.94c-1.28,0-2.46-.21-3.54-.62-1.08-.42-2.02-1-2.81-1.75-.79-.75-1.41-1.64-1.85-2.65s-.66-2.12-.66-3.32.22-2.31.66-3.32,1.06-1.9,1.86-2.65c.8-.75,1.74-1.34,2.82-1.75,1.08-.42,2.25-.62,3.51-.62s2.45.21,3.52.62,2,1,2.79,1.75c.79.75,1.41,1.63,1.86,2.64.45,1.01.67,2.12.67,3.33s-.22,2.31-.67,3.33c-.45,1.02-1.07,1.91-1.86,2.65-.79.75-1.72,1.33-2.79,1.74s-2.23.62-3.5.62ZM73.9,35.75c.72,0,1.39-.12,2-.37.61-.25,1.14-.6,1.6-1.06.46-.46.82-1.01,1.07-1.64.25-.63.38-1.33.38-2.1s-.13-1.47-.38-2.1c-.25-.63-.61-1.18-1.06-1.64-.45-.46-.99-.82-1.6-1.06-.62-.25-1.28-.37-2.01-.37s-1.39.12-2,.37c-.61.25-1.14.6-1.6,1.06-.46.46-.82,1.01-1.07,1.64-.25.63-.38,1.33-.38,2.1s.13,1.45.38,2.09c.25.64.61,1.19,1.06,1.65.45.46.99.82,1.6,1.06.62.25,1.28.37,2.01.37Z"/>
    <path class="st0" d="M85.55,38.66v-16.15h3.71v16.15h-3.71ZM88.89,34.97l-.21-4.31,7.73-8.14h4.15l-6.97,7.5-2.08,2.21-2.63,2.75ZM96.6,38.66l-5.75-7.04,2.45-2.65,7.66,9.69h-4.36Z"/>
    <path class="st0" d="M109.15,38.66v-16.15h3.09l9.53,11.63h-1.5v-11.63h3.69v16.15h-3.07l-9.55-11.63h1.5v11.63h-3.69Z"/>
    <path class="st0" d="M135.64,38.94c-1.28,0-2.46-.21-3.54-.62-1.08-.42-2.02-1-2.81-1.75-.79-.75-1.41-1.64-1.85-2.65s-.66-2.12-.66-3.32.22-2.31.66-3.32,1.06-1.9,1.86-2.65c.8-.75,1.74-1.34,2.82-1.75,1.08-.42,2.25-.62,3.51-.62s2.45.21,3.52.62,2,1,2.79,1.75c.79.75,1.41,1.63,1.86,2.64.45,1.01.67,2.12.67,3.33s-.22,2.31-.67,3.33c-.45,1.02-1.07,1.91-1.86,2.65-.79.75-1.72,1.33-2.79,1.74s-2.23.62-3.5.62ZM135.61,35.75c.72,0,1.39-.12,2-.37.61-.25,1.14-.6,1.6-1.06.46-.46.82-1.01,1.07-1.64.25-.63.38-1.33.38-2.1s-.13-1.47-.38-2.1c-.25-.63-.61-1.18-1.06-1.64-.45-.46-.99-.82-1.6-1.06-.62-.25-1.28-.37-2.01-.37s-1.39.12-2,.37c-.61.25-1.14.6-1.6,1.06-.46.46-.82,1.01-1.07,1.64-.25.63-.38,1.33-.38,2.1s.13,1.45.38,2.09c.25.64.61,1.19,1.06,1.65.45.46.99.82,1.6,1.06.62.25,1.28.37,2.01.37Z"/>
    <path class="st0" d="M151.14,38.66l-5.28-16.15h3.88l4.59,14.3h-1.94l4.8-14.3h3.46l4.61,14.3h-1.87l4.71-14.3h3.58l-5.28,16.15h-4.01l-4.08-12.55h1.06l-4.2,12.55h-4.01Z"/>
  </g>
  <rect class="st0" width="205.71" height="2.56"/>
  <rect class="st0" y="58.96" width="205.71" height="2.56"/>
  <rect class="st0" width="2.56" height="61.52"/>
  <rect class="st0" x="203.15" width="2.56" height="61.52"/>
</svg>