<?xml version="1.0" encoding="UTF-8"?>
<svg id="Layer_1" xmlns="http://www.w3.org/2000/svg" xmlns:xlink="http://www.w3.org/1999/xlink" version="1.1" viewBox="0 0 786.13 1001.3">
  <!-- Generator: Adobe Illustrator 30.2.1, SVG Export Plug-In . SVG Version: 2.1.1 Build 1)  -->
  <defs>
    <style>
      .st0 {
        fill: none;
      }

      .st1 {
        fill: #193248;
        fill-rule: evenodd;
      }

      .st2 {
        clip-path: url(#clippath);
      }
    </style>
    <clipPath id="clippath">
      <rect class="st0" width="786.13" height="1001.3"/>
    </clipPath>
  </defs>
  <g class="st2">
    <path class="st1" d="M71.38,1072.58l-3.51-.94-1.28-2.23-1.28-2.23-3.51-.94-3.51-.94-3.51-.94-3.51-.94-1.28-2.23-1.28-2.23-1.28-2.23.94-3.51.94-3.51-1.28-2.23-3.51-.94-1.28-2.23-1.28-2.23-1.28-2.23-1.28-2.23-1.28-2.23.94-3.51-1.28-2.23-1.28-2.23.94-3.51.94-3.51-1.28-2.23-1.28-2.23.94-3.51.94-3.51-1.28-2.23-1.28-2.23.94-3.51.94-3.51-1.28-2.23-1.28-2.23.94-3.51-1.28-2.23-1.28-2.23.94-3.51.94-3.51-1.28-2.23-1.28-2.23.94-3.51-1.28-2.23-1.28-2.23.94-3.51.94-3.51-1.28-2.23-1.28-2.23.94-3.51.94-3.51.94-3.51.94-3.51.94-3.51.94-3.51-1.28-2.23-1.28-2.23.94-3.51.94-3.51,2.23-1.28,2.23-1.28.94-3.51,2.23-1.28,3.51.94,3.51.94,3.51.94,2.23-1.28,2.23-1.28,2.23-1.28.94-3.51.94-3.51,2.23-1.28,2.23-1.28-1.28-2.23-1.28-2.23.94-3.51,2.23-1.28,2.23-1.28,2.23-1.28,3.51.94,2.23-1.28,2.23-1.28,2.23-1.28-1.28-2.23-1.28-2.23.94-3.51,2.23-1.28,2.23-1.28,2.23-1.28,2.23-1.28.94-3.51.94-3.51-1.28-2.23-1.28-2.23.94-3.51-1.28-2.23-1.28-2.23.94-3.51.94-3.51,2.23-1.28,2.23-1.28.94-3.51,2.23-1.28,2.23-1.28,2.23-1.28,3.51.94,3.51.94,3.51.94,3.51.94,3.51.94,3.51.94,3.51.94,2.23-1.28,2.23-1.28,2.23-1.28,2.23-1.28,2.23-1.28,2.23-1.28,3.51.94,2.23-1.28,2.23-1.28,2.23-1.28,2.23-1.28,2.23-1.28,2.23-1.28,2.23-1.28,2.23-1.28,3.51.94,3.51.94,2.23-1.28,2.23-1.28,2.23-1.28,2.23-1.28,3.51.94,1.28,2.23,1.28,2.23,1.28,2.23,1.28,2.23,3.51.94,2.23-1.28,2.23-1.28,2.23-1.28,2.23-1.28,2.23-1.28,2.23-1.28,3.51.94,3.51.94,3.51.94,2.23-1.28.94-3.51.94-3.51.94-3.51.94-3.51.94-3.51.94-3.51,2.23-1.28,2.23-1.28,2.23-1.28,2.23-1.28,2.23-1.28,2.23-1.28,2.23-1.28,2.23-1.28.94-3.51,2.23-1.28,2.23-1.28,2.23-1.28,3.51.94,2.23-1.28,2.23-1.28,3.51.94,1.28,2.23,1.28,2.23,1.28,2.23,1.28,2.23,3.51.94,3.51.94,3.51.94,3.51.94,1.28,2.23,1.28,2.23,2.23-1.28,2.23-1.28,3.51.94,2.23-1.28,2.23-1.28,3.51.94,2.23-1.28,2.23-1.28,3.51.94,2.23-1.28,2.23-1.28,3.51.94,3.51.94,3.51.94,3.51.94,3.51.94,3.51.94,3.51.94,3.51.94,1.28,2.23,1.28,2.23,1.28,2.23,1.28,2.23,3.51.94,3.51.94,3.51.94,2.23-1.28,2.23-1.28,2.23-1.28.94-3.51.94-3.51,2.23-1.28,2.23-1.28.94-3.51.94-3.51.94-3.51.94-3.51.94-3.51.94-3.51.94-3.51,2.23-1.28,2.23-1.28,2.23-1.28,3.51.94,2.23-1.28,2.23-1.28,3.51.94,2.23-1.28,2.23-1.28,3.51.94,2.23-1.28,2.23-1.28,3.51.94,2.23-1.28,2.23-1.28,3.51.94,2.23-1.28,2.23-1.28,3.51.94,1.28,2.23,1.28,2.23,3.51.94,3.51.94,3.51.94,3.51.94,2.23-1.28,2.23-1.28,2.23-1.28,2.23-1.28,2.23-1.28.94-3.51,2.23-1.28,2.23-1.28.94-3.51.94-3.51.94-3.51.94-3.51.94-3.51-1.28-2.23-1.28-2.23.94-3.51-1.28-2.23-1.28-2.23.94-3.51-1.28-2.23-1.28-2.23-1.28-2.23-1.28-2.23-1.28-2.23-1.28-2.23-1.28-2.23-1.28-2.23-1.28-2.23-1.28-2.23-1.28-2.23-1.28-2.23-1.28-2.23-3.51-.94-1.28-2.23-1.28-2.23-1.28-2.23-1.28-2.23-1.28-2.23-1.28-2.23-1.28-2.23.94-3.51-1.28-2.23-1.28-2.23.94-3.51-1.28-2.23-1.28-2.23.94-3.51.94-3.51,2.23-1.28,2.23-1.28-1.28-2.23-1.28-2.23.94-3.51-1.28-2.23-1.28-2.23-1.28-2.23-1.28-2.23.94-3.51-1.28-2.23-1.28-2.23-1.28-2.23-1.28-2.23.94-3.51-1.28-2.23-1.28-2.23-1.28-2.23-1.28-2.23.94-3.51-1.28-2.23-1.28-2.23.94-3.51.94-3.51.94-3.51,2.23-1.28,2.23-1.28,2.23-1.28,2.23-1.28,2.23-1.28,3.51.94,3.51.94,3.51.94,3.51.94,3.51.94,3.51.94,2.23-1.28,2.23-1.28,2.23-1.28,2.23-1.28,2.23-1.28,2.23-1.28,3.51.94,3.51.94,2.23-1.28,2.23-1.28,2.23-1.28.94-3.51.94-3.51-1.28-2.23-1.28-2.23-1.28-2.23-1.28-2.23-1.28-2.23-1.28-2.23.94-3.51,2.23-1.28,2.23-1.28.94-3.51.94-3.51.94-3.51.94-3.51.94-3.51.94-3.51.94-3.51,2.23-1.28,2.23-1.28,2.23-1.28,3.51.94,1.28,2.23,1.28,2.23,1.28,2.23,1.28,2.23,1.28,2.23,1.28,2.23,3.51.94,1.28,2.23,1.28,2.23,1.28,2.23,1.28,2.23,3.51.94,3.51.94,3.51.94,3.51.94,3.51.94,3.51.94,3.51.94,1.28,2.23,1.28,2.23,1.28,2.23,1.28,2.23,1.28,2.23,1.28,2.23,1.28,2.23,1.28,2.23,3.51.94,3.51.94,3.51.94,3.51.94,1.28,2.23,1.28,2.23,1.28,2.23-.94,3.51,1.28,2.23,1.28,2.23,1.28,2.23,1.28,2.23,1.28,2.23,3.51.94,3.51.94,3.51.94,2.23-1.28,2.23-1.28,3.51.94,3.51.94,1.28,2.23,1.28,2.23,1.28,2.23,1.28,2.23,3.51.94,3.51.94,3.51.94,2.23-1.28,2.23-1.28,3.51.94,3.51.94,3.51.94,1.28,2.23,1.28,2.23,3.51.94,3.51.94,3.51.94,1.28,2.23,1.28,2.23,3.51.94,3.51.94,3.51.94,3.51.94,2.23-1.28,2.23-1.28,2.23-1.28.94-3.51,2.23-1.28,2.23-1.28,2.23-1.28,2.23-1.28,2.23-1.28,3.51.94,2.23-1.28,2.23-1.28,2.23-1.28,2.23-1.28,2.23-1.28.94-3.51.94-3.51.94-3.51,2.23-1.28,2.23-1.28,2.23-1.28,3.51.94,2.23-1.28,2.23-1.28,3.51.94,3.51.94,2.23-1.28,2.23-1.28,3.51.94,2.23-1.28,2.23-1.28,3.51.94,2.23-1.28.94-3.51.94-3.51.94-3.51.94-3.51.94-3.51-1.28-2.23-3.51-.94-3.51-.94-1.28-2.23-1.28-2.23-2.23,1.28-.94,3.51-2.23,1.28-2.23,1.28-2.23,1.28-3.51-.94-1.28-2.23-1.28-2.23-1.28-2.23.94-3.51-1.28-2.23-1.28-2.23-1.28-2.23-1.28-2.23.94-3.51-1.28-2.23-1.28-2.23-1.28-2.23-1.28-2.23-1.28-2.23-3.51-.94-3.51-.94-1.28-2.23-1.28-2.23-3.51-.94-3.51-.94-3.51-.94-1.28-2.23-1.28-2.23-1.28-2.23.94-3.51-1.28-2.23-1.28-2.23-1.28-2.23-1.28-2.23.94-3.51-1.28-2.23-1.28-2.23.94-3.51.94-3.51-1.28-2.23-3.51-.94-3.51-.94-1.28-2.23-1.28-2.23-1.28-2.23.94-3.51-1.28-2.23-1.28-2.23-1.28-2.23-3.51-.94-3.51-.94-3.51-.94-1.28-2.23-1.28-2.23-1.28-2.23-1.28-2.23-1.28-2.23-1.28-2.23-1.28-2.23-1.28-2.23-1.28-2.23-1.28-2.23-1.28-2.23.94-3.51.94-3.51.94-3.51-1.28-2.23-1.28-2.23-1.28-2.23-3.51-.94-1.28-2.23-1.28-2.23-1.28-2.23-1.28-2.23-1.28-2.23-1.28-2.23-3.51-.94-3.51-.94-3.51-.94-3.51-.94-1.28-2.23-1.28-2.23-1.28-2.23.94-3.51.94-3.51.94-3.51.94-3.51.94-3.51.94-3.51.94-3.51-1.28-2.23-3.51-.94-1.28-2.23-1.28-2.23-1.28-2.23.94-3.51.94-3.51,2.23-1.28,2.23-1.28.94-3.51.94-3.51-1.28-2.23-1.28-2.23-1.28-2.23-1.28-2.23-1.28-2.23-1.28-2.23.94-3.51.94-3.51.94-3.51-1.28-2.23-1.28-2.23-1.28-2.23-2.23,1.28-2.23,1.28-3.51-.94-3.51-.94-1.28-2.23-1.28-2.23-1.28-2.23-1.28-2.23-2.23,1.28-2.23,1.28-3.51-.94-2.23,1.28-2.23,1.28-3.51-.94-3.51-.94-2.23,1.28-2.23,1.28-3.51-.94-2.23,1.28-2.23,1.28-3.51-.94-1.28-2.23-1.28-2.23-3.51-.94-1.28-2.23-1.28-2.23-1.28-2.23-1.28-2.23-1.28-2.23.94-3.51.94-3.51-1.28-2.23-1.28-2.23-1.28-2.23-3.51-.94-2.23,1.28-2.23,1.28-3.51-.94-2.23,1.28-2.23,1.28-3.51-.94-1.28-2.23-1.28-2.23-3.51-.94-1.28-2.23-1.28-2.23-1.28-2.23-1.28-2.23-1.28-2.23.94-3.51-1.28-2.23-1.28-2.23-1.28-2.23-1.28-2.23-1.28-2.23-1.28-2.23.94-3.51-1.28-2.23-1.28-2.23-1.28-2.23-1.28-2.23-1.28-2.23-1.28-2.23.94-3.51,2.23-1.28,2.23-1.28.94-3.51-1.28-2.23-1.28-2.23-1.28-2.23-1.28-2.23.94-3.51-1.28-2.23-1.28-2.23-1.28-2.23-1.28-2.23.94-3.51,2.23-1.28,2.23-1.28.94-3.51-1.28-2.23-1.28-2.23-1.28-2.23-1.28-2.23.94-3.51.94-3.51.94-3.51.94-3.51.94-3.51.94-3.51.94-3.51,2.23-1.28,2.23-1.28,2.23-1.28,2.23-1.28,2.23-1.28,3.51.94,2.23-1.28,2.23-1.28,2.23-1.28,2.23-1.28,3.51.94,2.23-1.28,2.23-1.28,2.23-1.28.94-3.51.94-3.51.94-3.51.94-3.51.94-3.51.94-3.51.94-3.51.94-3.51.94-3.51.94-3.51-1.28-2.23-1.28-2.23.94-3.51-1.28-2.23-1.28-2.23.94-3.51.94-3.51-1.28-2.23-1.28-2.23.94-3.51.94-3.51-1.28-2.23-1.28-2.23.94-3.51-1.28-2.23-1.28-2.23.94-3.51,2.23-1.28,2.23-1.28.94-3.51.94-3.51.94-3.51,2.23-1.28,2.23-1.28,2.23-1.28,2.23-1.28,2.23-1.28,2.23-1.28,2.23-1.28,3.51.94,1.28,2.23,1.28,2.23,3.51.94,3.51.94,2.23-1.28,2.23-1.28,2.23-1.28.94-3.51,2.23-1.28,2.23-1.28,2.23-1.28,3.51.94,2.23-1.28,2.23-1.28,2.23-1.28-1.28-2.23-3.51-.94-1.28-2.23-1.28-2.23-1.28-2.23.94-3.51.94-3.51.94-3.51,2.23-1.28,2.23-1.28,2.23-1.28,2.23-1.28,2.23-1.28,2.23-1.28.94-3.51,2.23-1.28,2.23-1.28,2.23-1.28,2.23-1.28,2.23-1.28,2.23-1.28,2.23-1.28,3.51.94,2.23-1.28-1.28-2.23-1.28-2.23.94-3.51.94-3.51,2.23-1.28,2.23-1.28,2.23-1.28,3.51.94,3.51.94,3.51.94,2.23-1.28.94-3.51.94-3.51.94-3.51,2.23-1.28,2.23-1.28.94-3.51.94-3.51,2.23-1.28,2.23-1.28.94-3.51.94-3.51.94-3.51,2.23-1.28,2.23-1.28,2.23-1.28,2.23-1.28,2.23-1.28,2.23-1.28.94-3.51-1.28-2.23-1.28-2.23.94-3.51,2.23-1.28,2.23-1.28,2.23-1.28,3.51.94,3.51.94,3.51.94,2.23-1.28,2.23-1.28,2.23-1.28,2.23-1.28,2.23-1.28.94-3.51,2.23-1.28,2.23-1.28.94-3.51,2.23-1.28,2.23-1.28,2.23-1.28,2.23-1.28.94-3.51.94-3.51.94-3.51.94-3.51.94-3.51.94-3.51.94-3.51,2.23-1.28,2.23-1.28,2.23-1.28,2.23-1.28.94-3.51-1.28-2.23-1.28-2.23.94-3.51.94-3.51.94-3.51,2.23-1.28,2.23-1.28.94-3.51.94-3.51,2.23-1.28,2.23-1.28,2.23-1.28,2.23-1.28-1.28-2.23-1.28-2.23.94-3.51,2.23-1.28,2.23-1.28.94-3.51.94-3.51-1.28-2.23-1.28-2.23.94-3.51,2.23-1.28,2.23-1.28,2.23-1.28,2.23-1.28,2.23-1.28,2.23-1.28.94-3.51.94-3.51.94-3.51.94-3.51,2.23-1.28,3.51.94,1.28,2.23,1.28,2.23,1.28,2.23,1.28,2.23,1.28,2.23-.94,3.51-.94,3.51-.94,3.51-2.23,1.28-2.23,1.28-2.23,1.28-2.23,1.28-.94,3.51,1.28,2.23,1.28,2.23-.94,3.51-2.23,1.28-2.23,1.28-.94,3.51-2.23,1.28-2.23,1.28-.94,3.51,1.28,2.23,1.28,2.23-.94,3.51-2.23,1.28-2.23,1.28-2.23,1.28-2.23,1.28,1.28,2.23,1.28,2.23-.94,3.51-2.23,1.28-2.23,1.28-2.23,1.28-2.23,1.28-.94,3.51-.94,3.51,1.28,2.23,1.28,2.23,1.28,2.23,1.28,2.23,1.28,2.23,1.28,2.23-.94,3.51-2.23,1.28-2.23,1.28-2.23,1.28-2.23,1.28-2.23,1.28-2.23,1.28-2.23,1.28-2.23,1.28-.94,3.51-2.23,1.28-2.23,1.28-.94,3.51-.94,3.51-2.23,1.28-2.23,1.28-2.23,1.28-2.23,1.28-.94,3.51-2.23,1.28-2.23,1.28-.94,3.51-2.23,1.28-2.23,1.28-2.23,1.28-2.23,1.28-2.23,1.28-3.51-.94-3.51-.94-2.23,1.28-.94,3.51-.94,3.51-2.23,1.28-2.23,1.28-2.23,1.28-2.23,1.28-2.23,1.28-2.23,1.28-.94,3.51-2.23,1.28-2.23,1.28-.94,3.51-.94,3.51-.94,3.51-2.23,1.28-2.23,1.28-.94,3.51-.94,3.51-.94,3.51-2.23,1.28-2.23,1.28-.94,3.51-.94,3.51-2.23,1.28-2.23,1.28-2.23,1.28-3.51-.94-3.51-.94-2.23,1.28,1.28,2.23,1.28,2.23-.94,3.51-.94,3.51-2.23,1.28-2.23,1.28-2.23,1.28-3.51-.94-3.51-.94-3.51-.94-2.23,1.28-2.23,1.28-2.23,1.28-.94,3.51-2.23,1.28-2.23,1.28-2.23,1.28-2.23,1.28,1.28,2.23,3.51.94,1.28,2.23,1.28,2.23,1.28,2.23-.94,3.51-.94,3.51-.94,3.51-2.23,1.28-2.23,1.28-2.23,1.28-2.23,1.28-2.23,1.28-3.51-.94-2.23,1.28-2.23,1.28-2.23,1.28-.94,3.51-2.23,1.28-2.23,1.28-.94,3.51-2.23,1.28-2.23,1.28-2.23,1.28-3.51-.94-1.28-2.23-1.28-2.23-3.51-.94-3.51-.94-3.51-.94-2.23,1.28-2.23,1.28-2.23,1.28-.94,3.51-.94,3.51-.94,3.51-.94,3.51,1.28,2.23,1.28,2.23-.94,3.51,1.28,2.23,1.28,2.23-.94,3.51-.94,3.51,1.28,2.23,1.28,2.23-.94,3.51-.94,3.51,1.28,2.23,1.28,2.23-.94,3.51,1.28,2.23,1.28,2.23-.94,3.51-.94,3.51-.94,3.51-.94,3.51-.94,3.51-.94,3.51-.94,3.51-.94,3.51-.94,3.51-.94,3.51-2.23,1.28-2.23,1.28-2.23,1.28-2.23,1.28-2.23,1.28-3.51-.94-2.23,1.28-2.23,1.28-2.23,1.28-2.23,1.28-2.23,1.28-2.23,1.28-3.51-.94-2.23,1.28-.94,3.51-.94,3.51-.94,3.51-.94,3.51-.94,3.51,1.28,2.23,1.28,2.23,1.28,2.23,1.28,2.23-.94,3.51-2.23,1.28-2.23,1.28-.94,3.51,1.28,2.23,1.28,2.23-.94,3.51,1.28,2.23,3.51.94,3.51.94,1.28,2.23,1.28,2.23,1.28,2.23-.94,3.51-2.23,1.28-2.23,1.28-.94,3.51-2.23,1.28-2.23,1.28,1.28,2.23,1.28,2.23-.94,3.51,1.28,2.23,1.28,2.23,1.28,2.23,1.28,2.23,1.28,2.23,1.28,2.23-.94,3.51,1.28,2.23,1.28,2.23,1.28,2.23,1.28,2.23,1.28,2.23,3.51.94,2.23-1.28,2.23-1.28,3.51.94,2.23-1.28,2.23-1.28,3.51.94,2.23-1.28,2.23-1.28,3.51.94,1.28,2.23,1.28,2.23,1.28,2.23-.94,3.51-.94,3.51,1.28,2.23,1.28,2.23-.94,3.51-.94,3.51,1.28,2.23,1.28,2.23,1.28,2.23,3.51.94,2.23-1.28,2.23-1.28,3.51.94,2.23-1.28,2.23-1.28,3.51.94,3.51.94,2.23-1.28,2.23-1.28,3.51.94,2.23-1.28,2.23-1.28,3.51.94,1.28,2.23,1.28,2.23,1.28,2.23,1.28,2.23,3.51.94,3.51.94,2.23-1.28,2.23-1.28,3.51.94,3.51.94,1.28,2.23,1.28,2.23,1.28,2.23-.94,3.51-.94,3.51-.94,3.51-.94,3.51-.94,3.51,1.28,2.23,1.28,2.23,1.28,2.23,3.51.94,1.28,2.23,1.28,2.23,1.28,2.23-.94,3.51-2.23,1.28-2.23,1.28-.94,3.51-.94,3.51-.94,3.51,1.28,2.23,3.51.94,1.28,2.23,1.28,2.23,1.28,2.23-.94,3.51-.94,3.51-.94,3.51-.94,3.51-.94,3.51-.94,3.51,1.28,2.23,3.51.94,3.51.94,1.28,2.23,1.28,2.23,1.28,2.23,1.28,2.23,3.51.94,3.51.94,1.28,2.23,1.28,2.23,1.28,2.23,1.28,2.23,1.28,2.23,1.28,2.23,1.28,2.23-.94,3.51-.94,3.51-.94,3.51-.94,3.51,1.28,2.23,1.28,2.23,1.28,2.23,1.28,2.23,1.28,2.23,3.51.94,2.23-1.28,2.23-1.28,2.23-1.28,2.23-1.28,2.23-1.28,2.23-1.28,2.23-1.28,2.23-1.28,3.51.94,3.51.94,3.51.94,1.28,2.23,1.28,2.23,1.28,2.23-.94,3.51-.94,3.51,1.28,2.23,1.28,2.23-.94,3.51-2.23,1.28-2.23,1.28-2.23,1.28-2.23,1.28-2.23,1.28-2.23,1.28,1.28,2.23,3.51.94,3.51.94,3.51.94,1.28,2.23,1.28,2.23,1.28,2.23-.94,3.51-.94,3.51-.94,3.51-.94,3.51-.94,3.51,1.28,2.23,1.28,2.23-.94,3.51,1.28,2.23,1.28,2.23,1.28,2.23,3.51.94,3.51.94,3.51.94,1.28,2.23,1.28,2.23,3.51.94,3.51.94,3.51.94,1.28,2.23,1.28,2.23,1.28,2.23,1.28,2.23,2.23-1.28,2.23-1.28,2.23-1.28,2.23-1.28,3.51.94,3.51.94,3.51.94,1.28,2.23,1.28,2.23,1.28,2.23-.94,3.51,1.28,2.23,1.28,2.23,1.28,2.23,1.28,2.23,1.28,2.23,3.51.94,1.28,2.23,1.28,2.23,1.28,2.23-.94,3.51-.94,3.51-.94,3.51-.94,3.51-.94,3.51-.94,3.51-.94,3.51-.94,3.51-.94,3.51-.94,3.51-2.23,1.28-2.23,1.28-2.23,1.28-3.51-.94-3.51-.94-2.23,1.28-2.23,1.28-3.51-.94-2.23,1.28-2.23,1.28-3.51-.94-3.51-.94-2.23,1.28-2.23,1.28-2.23,1.28-.94,3.51-.94,3.51-.94,3.51-2.23,1.28-2.23,1.28-2.23,1.28-3.51-.94-2.23,1.28-2.23,1.28-2.23,1.28-2.23,1.28-2.23,1.28-2.23,1.28-2.23,1.28-2.23,1.28-2.23,1.28-.94,3.51-2.23,1.28-2.23,1.28-2.23,1.28-3.51-.94-3.51-.94-3.51-.94-2.23,1.28-2.23,1.28-3.51-.94-3.51-.94-1.28-2.23-1.28-2.23-3.51-.94-3.51-.94-3.51-.94-1.28-2.23-1.28-2.23-3.51-.94-3.51-.94-3.51-.94-3.51-.94-3.51-.94-3.51-.94-3.51-.94-2.23,1.28-2.23,1.28-3.51-.94-1.28-2.23-1.28-2.23-1.28-2.23-1.28-2.23-3.51-.94-3.51-.94-3.51-.94-2.23,1.28-2.23,1.28-3.51-.94-1.28-2.23-1.28-2.23-3.51-.94-1.28-2.23-1.28-2.23-1.28-2.23-1.28-2.23-3.51-.94-1.28-2.23-1.28-2.23-1.28-2.23-1.28-2.23-3.51-.94-3.51-.94-1.28-2.23-1.28-2.23-1.28-2.23-1.28-2.23-1.28-2.23-1.28-2.23-1.28-2.23-1.28-2.23-3.51-.94-3.51-.94-3.51-.94-3.51-.94-3.51-.94-3.51-.94-3.51-.94-1.28-2.23-1.28-2.23-1.28-2.23-1.28-2.23-1.28-2.23-1.28-2.23-3.51-.94-2.23,1.28-.94,3.51-.94,3.51-.94,3.51,1.28,2.23,1.28,2.23,1.28,2.23,1.28,2.23,1.28,2.23,1.28,2.23-.94,3.51-.94,3.51-.94,3.51-.94,3.51-.94,3.51-.94,3.51-2.23,1.28-2.23,1.28-2.23,1.28-3.51-.94-3.51-.94-3.51-.94-2.23,1.28-2.23,1.28-2.23,1.28-2.23,1.28-2.23,1.28-2.23,1.28-2.23,1.28-2.23,1.28-3.51-.94-3.51-.94-3.51-.94-3.51-.94-3.51-.94-3.51-.94-2.23,1.28,1.28,2.23,1.28,2.23,1.28,2.23,1.28,2.23-.94,3.51,1.28,2.23,1.28,2.23-.94,3.51,1.28,2.23,1.28,2.23,1.28,2.23,1.28,2.23-.94,3.51,1.28,2.23,1.28,2.23,1.28,2.23,1.28,2.23,1.28,2.23,1.28,2.23-.94,3.51-.94,3.51-.94,3.51-2.23,1.28-2.23,1.28,1.28,2.23,1.28,2.23-.94,3.51,1.28,2.23,1.28,2.23,1.28,2.23,1.28,2.23,1.28,2.23,3.51.94,1.28,2.23,1.28,2.23,1.28,2.23,1.28,2.23,1.28,2.23,1.28,2.23,1.28,2.23,1.28,2.23,1.28,2.23,1.28,2.23,1.28,2.23,1.28,2.23,1.28,2.23,1.28,2.23,1.28,2.23-.94,3.51,1.28,2.23,1.28,2.23-.94,3.51,1.28,2.23,1.28,2.23-.94,3.51,1.28,2.23,1.28,2.23-.94,3.51-.94,3.51-.94,3.51-.94,3.51-.94,3.51-.94,3.51-.94,3.51-.94,3.51-.94,3.51-.94,3.51-2.23,1.28-2.23,1.28-2.23,1.28-3.51-.94-3.51-.94-2.23,1.28-2.23,1.28-2.23,1.28-2.23,1.28-2.23,1.28-2.23,1.28-3.51-.94-3.51-.94-1.28-2.23-1.28-2.23-3.51-.94-3.51-.94-3.51-.94-3.51-.94-2.23,1.28-2.23,1.28-3.51-.94-2.23,1.28-2.23,1.28-3.51-.94-2.23,1.28-2.23,1.28-3.51-.94-2.23,1.28-2.23,1.28-2.23,1.28-.94,3.51-.94,3.51-2.23,1.28-2.23,1.28-.94,3.51-.94,3.51-.94,3.51-.94,3.51-.94,3.51-.94,3.51-2.23,1.28-2.23,1.28-2.23,1.28-2.23,1.28-2.23,1.28-2.23,1.28-2.23,1.28-3.51-.94-3.51-.94-3.51-.94-3.51-.94-2.23,1.28-2.23,1.28-3.51-.94-1.28-2.23-1.28-2.23-1.28-2.23-1.28-2.23-3.51-.94-3.51-.94-3.51-.94-3.51-.94-3.51-.94-3.51-.94-3.51-.94-2.23,1.28-2.23,1.28-3.51-.94-2.23,1.28-2.23,1.28-3.51-.94-2.23,1.28-2.23,1.28-3.51-.94-2.23,1.28-2.23,1.28-3.51-.94-3.51-.94-3.51-.94-3.51-.94-1.28-2.23-1.28-2.23-3.51-.94-3.51-.94-3.51-.94-2.23,1.28-2.23,1.28-2.23,1.28-2.23,1.28-2.23,1.28-2.23,1.28-2.23,1.28-.94,3.51-.94,3.51-.94,3.51-.94,3.51-.94,3.51-.94,3.51-.94,3.51-.94,3.51-2.23,1.28-2.23,1.28-2.23,1.28-3.51-.94-3.51-.94-3.51-.94-1.28-2.23-1.28-2.23-3.51-.94-2.23,1.28-2.23,1.28-2.23,1.28-2.23,1.28-2.23,1.28-2.23,1.28-3.51-.94-3.51-.94-3.51-.94-1.28-2.23-1.28-2.23-2.23,1.28-2.23,1.28-3.51-.94-3.51-.94-2.23,1.28-2.23,1.28-2.23,1.28-2.23,1.28-2.23,1.28-2.23,1.28-2.23,1.28-2.23,1.28-3.51-.94-2.23,1.28-2.23,1.28-2.23,1.28-2.23,1.28-2.23,1.28-2.23,1.28-3.51-.94-3.51-.94-3.51-.94-3.51-.94-3.51-.94-3.51-.94-2.23,1.28,1.28,2.23,1.28,2.23,1.28,2.23,1.28,2.23-.94,3.51-.94,3.51-.94,3.51-2.23,1.28-2.23,1.28-.94,3.51-2.23,1.28-2.23,1.28-2.23,1.28-2.23,1.28,1.28,2.23,1.28,2.23-.94,3.51-.94,3.51-2.23,1.28-2.23,1.28-2.23,1.28-3.51-.94-2.23,1.28-.94,3.51-2.23,1.28-2.23,1.28-.94,3.51-2.23,1.28-2.23,1.28-.94,3.51-2.23,1.28-2.23,1.28-.94,3.51-.94,3.51-2.23,1.28-2.23,1.28-2.23,1.28-3.51-.94-3.51-.94-2.23,1.28-.94,3.51-.94,3.51-.94,3.51,1.28,2.23,1.28,2.23-.94,3.51-.94,3.51-.94,3.51-.94,3.51,1.28,2.23,1.28,2.23-.94,3.51,1.28,2.23,1.28,2.23-.94,3.51-.94,3.51,1.28,2.23,1.28,2.23-.94,3.51-.94,3.51,1.28,2.23,1.28,2.23-.94,3.51,1.28,2.23,1.28,2.23-.94,3.51-.94,3.51,1.28,2.23,1.28,2.23-.94,3.51,1.28,2.23,1.28,2.23-.94,3.51-.94,3.51,1.28,2.23,3.51.94,1.28,2.23,1.28,2.23,1.28,2.23,1.28,2.23,1.28,2.23-.94,3.51,1.28,2.23,1.28,2.23,1.28,2.23,3.51.94,3.51.94,3.51.94,1.28,2.23,1.28,2.23,1.28,2.23-.94,3.51-2.23,1.28-2.23,1.28-2.23,1.28Z"/>
  </g>
</svg>