<?xml version="1.0" encoding="UTF-8"?>
<svg id="Layer_1" xmlns="http://www.w3.org/2000/svg" version="1.1" viewBox="0 0 205.71 61.52">
  <!-- Generator: Adobe Illustrator 30.2.1, SVG Export Plug-In . SVG Version: 2.1.1 Build 1)  -->
  <defs>
    <style>
      .st0 {
        fill: #faf1eb;
      }
    </style>
  </defs>
  <g>
    <path class="st0" d="M22.38,38.66v-16.15h6.99c1.45,0,2.69.23,3.74.7,1.05.47,1.85,1.14,2.42,2.02.57.88.85,1.92.85,3.14s-.29,2.23-.85,3.1c-.57.87-1.38,1.53-2.42,2s-2.29.69-3.74.69h-4.91l1.66-1.64v6.14h-3.74ZM26.11,32.94l-1.66-1.75h4.71c1.15,0,2.01-.25,2.58-.75.57-.5.85-1.19.85-2.06s-.28-1.58-.85-2.08c-.57-.49-1.43-.74-2.58-.74h-4.71l1.66-1.78v9.16ZM32.64,38.66l-4.04-5.86h3.99l4.08,5.86h-4.04Z"/>
    <path class="st0" d="M43.05,35.66h8.79v3h-12.5v-16.15h12.2v3h-8.49v10.15ZM42.77,29.02h7.77v2.91h-7.77v-2.91Z"/>
    <path class="st0" d="M60.12,38.94c-1.29,0-2.53-.17-3.71-.52-1.18-.35-2.14-.8-2.86-1.35l1.27-2.81c.69.49,1.51.9,2.46,1.21.95.32,1.9.47,2.87.47.74,0,1.33-.07,1.79-.22.45-.15.79-.35,1-.61.21-.26.32-.56.32-.9,0-.43-.17-.77-.51-1.03-.34-.25-.79-.46-1.34-.62s-1.17-.32-1.83-.46c-.67-.15-1.34-.33-2.01-.54-.67-.22-1.28-.49-1.83-.83-.55-.34-1-.78-1.35-1.34-.35-.55-.52-1.26-.52-2.12,0-.92.25-1.76.75-2.53s1.25-1.37,2.26-1.82c1.01-.45,2.27-.68,3.79-.68,1.02,0,2.02.12,3,.36.98.24,1.85.6,2.61,1.07l-1.15,2.84c-.75-.43-1.51-.75-2.26-.96-.75-.21-1.49-.31-2.21-.31s-1.32.08-1.78.25c-.46.17-.79.39-.99.66-.2.27-.3.58-.3.93,0,.42.17.75.51,1,.34.25.79.46,1.34.61.55.15,1.17.31,1.83.46.67.15,1.34.33,2.01.53.67.2,1.28.47,1.83.81.55.34,1,.78,1.35,1.34.35.55.52,1.25.52,2.1,0,.91-.25,1.74-.76,2.49-.51.75-1.26,1.36-2.27,1.82-1.01.46-2.28.69-3.82.69Z"/>
    <path class="st0" d="M72.88,38.66v-13.1h-5.17v-3.05h14.07v3.05h-5.17v13.1h-3.74Z"/>
    <path class="st0" d="M81.67,38.66l7.2-16.15h3.69l7.22,16.15h-3.92l-5.91-14.26h1.48l-5.93,14.26h-3.83ZM85.27,35.2l.99-2.84h8.3l1.02,2.84h-10.31Z"/>
    <path class="st0" d="M108.64,38.94c-2.29,0-4.08-.64-5.38-1.91-1.29-1.28-1.94-3.1-1.94-5.47v-9.04h3.74v8.91c0,1.54.32,2.65.95,3.32.63.68,1.51,1.02,2.65,1.02s2.02-.34,2.65-1.02c.63-.68.95-1.78.95-3.32v-8.91h3.69v9.04c0,2.37-.65,4.19-1.94,5.47-1.29,1.28-3.08,1.91-5.38,1.91Z"/>
    <path class="st0" d="M119.64,38.66v-16.15h6.99c1.45,0,2.69.23,3.74.7,1.05.47,1.85,1.14,2.42,2.02.57.88.85,1.92.85,3.14s-.29,2.23-.85,3.1c-.57.87-1.38,1.53-2.42,2s-2.29.69-3.74.69h-4.91l1.66-1.64v6.14h-3.74ZM123.38,32.94l-1.66-1.75h4.71c1.15,0,2.01-.25,2.58-.75.57-.5.85-1.19.85-2.06s-.28-1.58-.85-2.08c-.57-.49-1.43-.74-2.58-.74h-4.71l1.66-1.78v9.16ZM129.91,38.66l-4.04-5.86h3.99l4.08,5.86h-4.04Z"/>
    <path class="st0" d="M134.47,38.66l7.2-16.15h3.69l7.22,16.15h-3.92l-5.91-14.26h1.48l-5.93,14.26h-3.83ZM138.07,35.2l.99-2.84h8.3l1.02,2.84h-10.31Z"/>
    <path class="st0" d="M154.27,38.66v-16.15h3.09l9.53,11.63h-1.5v-11.63h3.69v16.15h-3.07l-9.55-11.63h1.5v11.63h-3.69Z"/>
    <path class="st0" d="M176.26,38.66v-13.1h-5.17v-3.05h14.07v3.05h-5.17v13.1h-3.74Z"/>
  </g>
  <rect class="st0" x="-.32" y="0" width="206.36" height="2.56"/>
  <rect class="st0" x="-.32" y="58.96" width="206.36" height="2.56"/>
  <rect class="st0" x="-.32" y="0" width="2.56" height="61.52"/>
  <rect class="st0" x="203.47" y="0" width="2.56" height="61.52"/>
</svg>